<svg xmlns="http://www.w3.org/2000/svg" width="55" height="40" viewBox="0 0 55 40">
  <g id="Group_238" data-name="Group 238" transform="translate(-880 -5051)">
    <rect id="Rectangle_137" data-name="Rectangle 137" width="55" height="40" transform="translate(880 5051)" fill="#ff6e3a"/>
    <path id="Path_1102" data-name="Path 1102" d="M4.892-21.557a4.694,4.694,0,0,1,3.291.986A3.379,3.379,0,0,1,9.239-17.98a3.771,3.771,0,0,1-.524,1.949A3.8,3.8,0,0,1,7.1-14.588a5.994,5.994,0,0,1-2.721.553,9.982,9.982,0,0,1-2.242-.257A6.757,6.757,0,0,1,.18-15.045L1.4-17.836a5.786,5.786,0,0,0,1.406.61,5.265,5.265,0,0,0,1.436.209,1.946,1.946,0,0,0,1.011-.233.723.723,0,0,0,.388-.65.651.651,0,0,0-.35-.6,2.769,2.769,0,0,0-1.262-.2H.94l.532-6.817H8.539v2.855H4.42l-.076,1.107ZM15-14.034a4.526,4.526,0,0,1-2.5-.7,4.664,4.664,0,0,1-1.7-2.021,7.419,7.419,0,0,1-.616-3.152,7.419,7.419,0,0,1,.616-3.152,4.664,4.664,0,0,1,1.7-2.021,4.526,4.526,0,0,1,2.5-.7,4.526,4.526,0,0,1,2.5.7,4.664,4.664,0,0,1,1.7,2.021,7.419,7.419,0,0,1,.616,3.152,7.419,7.419,0,0,1-.616,3.152,4.664,4.664,0,0,1-1.7,2.021A4.526,4.526,0,0,1,15-14.034Zm0-3.032q1.216,0,1.216-2.839T15-22.744q-1.216,0-1.216,2.839T15-17.066Zm8.557-2.358a2.68,2.68,0,0,1-2.037-.834,3.2,3.2,0,0,1-.79-2.294,3.626,3.626,0,0,1,.365-1.684A2.552,2.552,0,0,1,22.1-25.311a2.874,2.874,0,0,1,1.451-.369,2.874,2.874,0,0,1,1.451.369,2.552,2.552,0,0,1,1.011,1.075,3.626,3.626,0,0,1,.365,1.684,3.2,3.2,0,0,1-.79,2.294A2.68,2.68,0,0,1,23.556-19.424Zm6.247-6.1h2.569L25.106-14.291H22.538Zm-6.247,4.363a.553.553,0,0,0,.479-.329,2.237,2.237,0,0,0,.19-1.067,2.237,2.237,0,0,0-.19-1.067.553.553,0,0,0-.479-.329.553.553,0,0,0-.479.329,2.237,2.237,0,0,0-.19,1.067,2.237,2.237,0,0,0,.19,1.067A.553.553,0,0,0,23.556-21.156Zm7.8,7.026a2.68,2.68,0,0,1-2.037-.834,3.2,3.2,0,0,1-.79-2.294,3.626,3.626,0,0,1,.365-1.684A2.552,2.552,0,0,1,29.9-20.017a2.874,2.874,0,0,1,1.452-.369,2.874,2.874,0,0,1,1.451.369,2.552,2.552,0,0,1,1.011,1.075,3.626,3.626,0,0,1,.365,1.684,3.2,3.2,0,0,1-.79,2.294A2.68,2.68,0,0,1,31.353-14.131Zm0-1.732a.553.553,0,0,0,.479-.329,2.237,2.237,0,0,0,.19-1.067,2.237,2.237,0,0,0-.19-1.067.553.553,0,0,0-.479-.329.553.553,0,0,0-.479.329,2.237,2.237,0,0,0-.19,1.067,2.237,2.237,0,0,0,.19,1.067A.553.553,0,0,0,31.353-15.863ZM6.548.224A6.284,6.284,0,0,1,3.463-.53,5.491,5.491,0,0,1,1.32-2.623,5.925,5.925,0,0,1,.545-5.647,5.925,5.925,0,0,1,1.32-8.671a5.491,5.491,0,0,1,2.143-2.093,6.284,6.284,0,0,1,3.085-.754,6.284,6.284,0,0,1,3.085.754,5.491,5.491,0,0,1,2.143,2.093,5.925,5.925,0,0,1,.775,3.024,5.925,5.925,0,0,1-.775,3.024A5.491,5.491,0,0,1,9.634-.53,6.284,6.284,0,0,1,6.548.224Zm0-3.064a2.2,2.2,0,0,0,1.208-.345,2.423,2.423,0,0,0,.859-.978,3.258,3.258,0,0,0,.319-1.484,3.258,3.258,0,0,0-.319-1.484,2.423,2.423,0,0,0-.859-.978,2.2,2.2,0,0,0-1.208-.345,2.2,2.2,0,0,0-1.208.345,2.423,2.423,0,0,0-.859.978,3.258,3.258,0,0,0-.319,1.484,3.258,3.258,0,0,0,.319,1.484,2.423,2.423,0,0,0,.859.978A2.2,2.2,0,0,0,6.548-2.84ZM17.674-8.406v1.925h4.438v2.855H17.674V-.033H14.087V-11.261h8.648v2.855Zm10.016,0v1.925h4.438v2.855H27.69V-.033H24.1V-11.261h8.648v2.855Z" transform="translate(888.82 5083.776)" fill="#fff"/>
  </g>
</svg>
