<svg xmlns="http://www.w3.org/2000/svg" width="55" height="40" viewBox="0 0 55 40">
  <g id="Group_239" data-name="Group 239" transform="translate(-1300 -5051)">
    <rect id="Rectangle_131" data-name="Rectangle 131" width="55" height="40" transform="translate(1300 5051)" fill="#ff6e3a"/>
    <path id="Path_1103" data-name="Path 1103" d="M4.456-16.2a9.6,9.6,0,0,1-2.217-.255,5.942,5.942,0,0,1-1.772-.687l.994-2.249a6.337,6.337,0,0,0,1.465.608,5.725,5.725,0,0,0,1.556.229,2.412,2.412,0,0,0,.915-.124.4.4,0,0,0,.275-.373q0-.288-.36-.432A7.734,7.734,0,0,0,4.13-19.8a13.421,13.421,0,0,1-1.765-.477,3.009,3.009,0,0,1-1.229-.837A2.27,2.27,0,0,1,.612-22.69,2.715,2.715,0,0,1,1.1-24.259a3.2,3.2,0,0,1,1.445-1.112,6,6,0,0,1,2.334-.405,8.475,8.475,0,0,1,1.85.2,5.8,5.8,0,0,1,1.6.6L7.4-22.742a5.675,5.675,0,0,0-2.55-.68q-1.19,0-1.19.575,0,.275.353.412a7.477,7.477,0,0,0,1.164.294,11.968,11.968,0,0,1,1.765.451,3.071,3.071,0,0,1,1.249.83,2.228,2.228,0,0,1,.53,1.569,2.685,2.685,0,0,1-.484,1.563,3.257,3.257,0,0,1-1.445,1.112A5.917,5.917,0,0,1,4.456-16.2Zm11.612-1.8H12.59l-.615,1.6H8.837l4-9.154h3.034l4,9.154H16.683Zm-.85-2.223-.889-2.3-.889,2.3Zm14.607-5.335-3.871,9.154H22.921L19.05-25.567h3.322l2.184,5.348,2.236-5.348Zm8.108,6.826v2.328H30.323v-9.154h7.441v2.328H33.357v1.072h3.871v2.223H33.357v1.2ZM7.726-8.294a4.7,4.7,0,0,1,2.161.509,4.064,4.064,0,0,1,1.6,1.435,3.825,3.825,0,0,1,.6,2.125A4.112,4.112,0,0,1,11.4-1.883,4.409,4.409,0,0,1,9.543-.321,6.166,6.166,0,0,1,6.927.224,6.893,6.893,0,0,1,3.722-.484,5.009,5.009,0,0,1,1.588-2.591,7.087,7.087,0,0,1,.825-6.024,7.708,7.708,0,0,1,1.706-9.8a5.908,5.908,0,0,1,2.47-2.434,7.831,7.831,0,0,1,3.7-.835,8.81,8.81,0,0,1,2.18.263,5.869,5.869,0,0,1,1.762.736l-1.544,3a3.876,3.876,0,0,0-2.307-.672,2.9,2.9,0,0,0-1.825.554A2.612,2.612,0,0,0,5.2-7.586,4.259,4.259,0,0,1,7.726-8.294ZM6.637-2.736a1.315,1.315,0,0,0,.944-.345,1.241,1.241,0,0,0,.363-.944,1.271,1.271,0,0,0-.363-.954,1.3,1.3,0,0,0-.944-.354,1.3,1.3,0,0,0-.944.354,1.271,1.271,0,0,0-.363.954,1.241,1.241,0,0,0,.363.944A1.315,1.315,0,0,0,6.637-2.736ZM18.3-8.294a5.82,5.82,0,0,1,3.932,1.117,3.729,3.729,0,0,1,1.262,2.933,4.1,4.1,0,0,1-.627,2.207A4.466,4.466,0,0,1,20.931-.4,7.5,7.5,0,0,1,17.68.224,12.561,12.561,0,0,1,15-.067,8.347,8.347,0,0,1,12.667-.92l1.453-3.16a7.118,7.118,0,0,0,1.68.69,6.616,6.616,0,0,0,1.716.236,2.43,2.43,0,0,0,1.208-.263.813.813,0,0,0,.463-.736.731.731,0,0,0-.418-.681,3.471,3.471,0,0,0-1.507-.227H13.575l.636-7.719h8.446v3.233H17.734l-.091,1.253Zm9.281,2.416a3.294,3.294,0,0,1-2.434-.944,3.51,3.51,0,0,1-.944-2.6,3.927,3.927,0,0,1,.436-1.907,2.961,2.961,0,0,1,1.208-1.217,3.585,3.585,0,0,1,1.735-.418,3.585,3.585,0,0,1,1.735.418,2.961,2.961,0,0,1,1.208,1.217,3.927,3.927,0,0,1,.436,1.907,3.51,3.51,0,0,1-.944,2.6A3.294,3.294,0,0,1,27.578-5.879Zm7.465-6.9h3.069L29.431-.067H26.361ZM27.578-7.84a.663.663,0,0,0,.572-.372,2.418,2.418,0,0,0,.227-1.208,2.418,2.418,0,0,0-.227-1.208A.663.663,0,0,0,27.578-11a.663.663,0,0,0-.572.372,2.418,2.418,0,0,0-.227,1.208,2.418,2.418,0,0,0,.227,1.208A.663.663,0,0,0,27.578-7.84ZM36.9.115a3.294,3.294,0,0,1-2.434-.944,3.51,3.51,0,0,1-.944-2.6,3.927,3.927,0,0,1,.436-1.907,2.961,2.961,0,0,1,1.208-1.217A3.585,3.585,0,0,1,36.9-6.968a3.585,3.585,0,0,1,1.735.418,2.961,2.961,0,0,1,1.208,1.217,3.927,3.927,0,0,1,.436,1.907,3.51,3.51,0,0,1-.944,2.6A3.294,3.294,0,0,1,36.9.115Zm0-1.962a.663.663,0,0,0,.572-.372,2.418,2.418,0,0,0,.227-1.208,2.418,2.418,0,0,0-.227-1.208.663.663,0,0,0-.572-.372.663.663,0,0,0-.572.372A2.418,2.418,0,0,0,36.1-3.427a2.418,2.418,0,0,0,.227,1.208A.663.663,0,0,0,36.9-1.847Z" transform="translate(1307 5084)" fill="#fff"/>
  </g>
</svg>
