<svg id="Group_178" data-name="Group 178" xmlns="http://www.w3.org/2000/svg" xmlns:xlink="http://www.w3.org/1999/xlink" width="18" height="18" viewBox="0 0 18 18">
  <defs>
    <clipPath id="clip-path">
      <rect id="Rectangle_116" data-name="Rectangle 116" width="18" height="18" fill="none"/>
    </clipPath>
  </defs>
  <g id="Group_177" data-name="Group 177" clip-path="url(#clip-path)">
    <path id="Path_1018" data-name="Path 1018" d="M9,0A9,9,0,0,0,5.741,17.392c-.034-.62-.078-1.557-.054-2.044.037-.767,1.15-5,1.15-5-.822-2.3.329-3.4,1.333-3.505S9.356,7.5,9.338,8.191a21.3,21.3,0,0,1-.84,3.14c-.128,1.15,1.461,1.954,2.647,1.022a4.635,4.635,0,0,0,1.223-5.477C11.328,4.5,8.224,4.7,7,5.324A4.069,4.069,0,0,0,4.9,8.7a3.31,3.31,0,0,0,.644,2.138c.055.1.1.144.089.24s-.2.9-.246,1.075-.116.185-.363.062A3.383,3.383,0,0,1,3.4,9.7,5.278,5.278,0,0,1,4.915,4.9a6.406,6.406,0,0,1,7.463-.671A5.392,5.392,0,0,1,14.4,10.751a4.677,4.677,0,0,1-3.916,3.341,2.448,2.448,0,0,1-2.451-1.013s-.2.767-.6,2.177a8.953,8.953,0,0,1-1.074,2.352A9,9,0,1,0,9,0" transform="translate(0.001)" fill="#fff"/>
  </g>
</svg>
