<svg xmlns="http://www.w3.org/2000/svg" width="18" height="18" viewBox="0 0 18 18">
  <g id="Group_172" data-name="Group 172" transform="translate(-1102.401 393.861)">
    <path id="Path_333" data-name="Path 333" d="M1132.15-368.707a4.6,4.6,0,0,0-4.595,4.594,4.6,4.6,0,0,0,4.595,4.594,4.6,4.6,0,0,0,4.594-4.594A4.6,4.6,0,0,0,1132.15-368.707Zm0,7.611a3.02,3.02,0,0,1-3.017-3.017,3.02,3.02,0,0,1,3.017-3.017,3.02,3.02,0,0,1,3.017,3.017A3.02,3.02,0,0,1,1132.15-361.1Z" transform="translate(-20.749 -20.748)" fill="#fff"/>
    <circle id="Ellipse_55" data-name="Ellipse 55" cx="1.169" cy="1.169" r="1.169" transform="translate(1115.065 -390.819)" fill="#fff"/>
    <path id="Path_334" data-name="Path 334" d="M1115.15-393.861h-7.5a5.257,5.257,0,0,0-5.251,5.251v7.5a5.257,5.257,0,0,0,5.251,5.251h7.5a5.257,5.257,0,0,0,5.251-5.251v-7.5A5.257,5.257,0,0,0,1115.15-393.861Zm3.673,12.749a3.677,3.677,0,0,1-3.673,3.673h-7.5a3.677,3.677,0,0,1-3.673-3.673v-7.5a3.677,3.677,0,0,1,3.673-3.673h7.5a3.677,3.677,0,0,1,3.673,3.673Z" fill="#fff"/>
  </g>
</svg>
