<svg id="Group_88" data-name="Group 88" xmlns="http://www.w3.org/2000/svg" xmlns:xlink="http://www.w3.org/1999/xlink" width="80" height="80" viewBox="0 0 80 80">
  <defs>
    <clipPath id="clip-path">
      <path id="Path_700" data-name="Path 700" d="M40,0l-3.371,5.73L32.193.634,30.041,7.026l-5.324-4.05-.938,6.667-6.042-3,.414,6.667-6.427-1.625,1.683,6.557-6.7-.468L9.738,23.8l-6.7.827,4.138,5.4L.772,32.2,5.738,36.64,0,40l5.931,3.306L.717,47.852l6.427,2.094L3.035,55.4l6.758.744L6.759,62.177l6.759-.477-1.738,6.565,6.483-1.873-.469,6.832,6.041-3.058.91,6.777,5.269-4.132,2.207,6.419,4.408-5.069L40,80l3.365-5.84,4.469,4.931,2.179-6.253,5.379,3.995.8-6.556,6.041,2.948-.5-6.556,6.676,1.763-1.821-6.556,6.7.275L70.317,56.2l6.7-.969-4.11-5.317,6.317-2.231-4.965-4.325L80,39.983h0l-5.71-3.37,4.938-4.435L72.91,30.028l4.138-5.344-6.61-.909,2.886-6.005-6.648.381,1.71-6.469-6.51,1.653L62.1,6.86l-5.876,2.7-.855-6.5L49.99,6.943,47.835.938,43.31,5.731,40,0Z" transform="translate(0 -0.001)" fill="none"/>
    </clipPath>
    <linearGradient id="linear-gradient" x1="0.145" y1="0.855" x2="0.147" y2="0.855" gradientUnits="objectBoundingBox">
      <stop offset="0" stop-color="#f7931e"/>
      <stop offset="1" stop-color="#f4c121"/>
    </linearGradient>
    <clipPath id="clip-path-2">
      <rect id="Rectangle_46" data-name="Rectangle 46" width="80" height="80" fill="none"/>
    </clipPath>
    <clipPath id="clip-path-3">
      <path id="Path_702" data-name="Path 702" d="M138.588,157.468a18.548,18.548,0,1,0,18.548-18.522,18.535,18.535,0,0,0-18.548,18.522" transform="translate(-138.588 -138.946)" fill="none"/>
    </clipPath>
    <linearGradient id="linear-gradient-2" x1="-0.278" y1="1.279" x2="-0.275" y2="1.279" xlink:href="#linear-gradient"/>
    <clipPath id="clip-path-5">
      <path id="Path_735" data-name="Path 735" d="M403.277,252.7l-1.666.242,1.206,1.174-.285,1.657,1.49-.782,1.491.782-.285-1.657,1.206-1.174-1.666-.242-.745-1.508Z" transform="translate(-401.611 -251.192)" fill="none"/>
    </clipPath>
    <linearGradient id="linear-gradient-3" x1="-9.373" y1="6.518" x2="-9.349" y2="6.518" xlink:href="#linear-gradient"/>
    <clipPath id="clip-path-6">
      <path id="Path_736" data-name="Path 736" d="M85.729,252.7l-1.666.242,1.205,1.174-.285,1.657,1.49-.782,1.49.782-.285-1.657,1.206-1.174-1.666-.242-.745-1.508Z" transform="translate(-84.063 -251.192)" fill="none"/>
    </clipPath>
    <linearGradient id="linear-gradient-4" x1="-1.858" y1="6.518" x2="-1.834" y2="6.518" xlink:href="#linear-gradient"/>
  </defs>
  <g id="Group_77" data-name="Group 77" transform="translate(0 0)">
    <g id="Group_76" data-name="Group 76" clip-path="url(#clip-path)">
      <path id="Path_737" data-name="Path 737" d="M0,0,112.676.076l.076,112.662L.076,112.662Z" transform="matrix(0.768, -0.64, 0.64, 0.768, -39.394, 32.762)" fill="url(#linear-gradient)"/>
    </g>
  </g>
  <g id="Group_79" data-name="Group 79">
    <g id="Group_78" data-name="Group 78" clip-path="url(#clip-path-2)">
      <path id="Path_701" data-name="Path 701" d="M92.211,122.922a30.417,30.417,0,1,1,21.523-8.9,30.26,30.26,0,0,1-21.523,8.9" transform="translate(-52.211 -52.526)"/>
    </g>
  </g>
  <g id="Group_81" data-name="Group 81" transform="translate(21.452 21.478)">
    <g id="Group_80" data-name="Group 80" clip-path="url(#clip-path-3)">
      <path id="Path_738" data-name="Path 738" d="M0,0,51.389.033l.033,51.361L.033,51.361Z" transform="matrix(0.834, -0.552, 0.552, 0.834, -17.077, 11.293)" fill="url(#linear-gradient-2)"/>
    </g>
  </g>
  <g id="Group_83" data-name="Group 83">
    <g id="Group_82" data-name="Group 82" clip-path="url(#clip-path-2)">
      <path id="Path_703" data-name="Path 703" d="M160.631,249.406l1.145,1.406.928-.764a4.813,4.813,0,0,0,.514-.524q-.034.653-.034,1.439v4.318h2.24v-8.156h-1.989Z" transform="translate(-135.767 -208.925)"/>
      <path id="Path_704" data-name="Path 704" d="M206.455,246.367a2.55,2.55,0,0,0-2.223,1.015,5.549,5.549,0,0,0-.726,3.191,5.416,5.416,0,0,0,.743,3.127,2.526,2.526,0,0,0,2.207,1.052,2.559,2.559,0,0,0,2.223-1.007,7.153,7.153,0,0,0-.02-6.321,2.523,2.523,0,0,0-2.2-1.057m.584,6.092q-.17.536-.584.535t-.581-.519a6.948,6.948,0,0,1-.173-1.9,7.079,7.079,0,0,1,.173-1.919q.173-.524.581-.524t.581.544a10.506,10.506,0,0,1,0,3.785" transform="translate(-172.005 -208.285)"/>
      <path id="Path_705" data-name="Path 705" d="M249.763,246.367a2.55,2.55,0,0,0-2.223,1.015,5.548,5.548,0,0,0-.726,3.191,5.416,5.416,0,0,0,.743,3.127,2.526,2.526,0,0,0,2.207,1.052,2.559,2.559,0,0,0,2.223-1.007,7.153,7.153,0,0,0-.02-6.321,2.523,2.523,0,0,0-2.2-1.057m.584,6.092q-.171.536-.584.535t-.581-.519a6.947,6.947,0,0,1-.173-1.9,7.077,7.077,0,0,1,.173-1.919q.173-.524.581-.524t.581.544a10.51,10.51,0,0,1,0,3.785" transform="translate(-208.609 -208.285)"/>
      <path id="Path_706" data-name="Path 706" d="M332.627,268.057a1.921,1.921,0,0,0-1.553-.686,1.884,1.884,0,0,0-1.536.661,3.464,3.464,0,0,0,.014,3.76,1.853,1.853,0,0,0,1.522.694,1.926,1.926,0,0,0,1.573-.672,2.894,2.894,0,0,0,.556-1.894,2.809,2.809,0,0,0-.575-1.863m-1.2,2.77q-.092.326-.332.326-.213,0-.319-.284a2.889,2.889,0,0,1-.106-.926,2.976,2.976,0,0,1,.1-.921q.1-.29.322-.29.24,0,.332.326a4.282,4.282,0,0,1,0,1.768" transform="translate(-278.066 -226.042)"/>
      <path id="Path_707" data-name="Path 707" d="M306.922,247.124l-4.531,8.156h1.659l4.53-8.156Z" transform="translate(-255.584 -208.925)"/>
      <path id="Path_708" data-name="Path 708" d="M292.517,250.816a2.912,2.912,0,0,0,.553-1.9,2.81,2.81,0,0,0-.575-1.863,1.921,1.921,0,0,0-1.553-.686,1.883,1.883,0,0,0-1.536.661,3.473,3.473,0,0,0,.014,3.766,1.854,1.854,0,0,0,1.522.694,1.924,1.924,0,0,0,1.575-.672m-1.237-.945q-.1.279-.316.279t-.318-.285a2.892,2.892,0,0,1-.106-.926,2.964,2.964,0,0,1,.1-.921q.1-.29.321-.29t.316.284a4.223,4.223,0,0,1,0,1.858" transform="translate(-244.146 -208.285)"/>
      <path id="Path_709" data-name="Path 709" d="M180.809,205.31l.91-.977v-.777h-3.174v.959h1.731l-.784.846v.783h.521q.671,0,.671.426a.378.378,0,0,1-.188.338.944.944,0,0,1-.508.119,2.272,2.272,0,0,1-.637-.094,2.021,2.021,0,0,1-.58-.269l-.452.933a2.72,2.72,0,0,0,.787.319,3.8,3.8,0,0,0,.919.113,2.48,2.48,0,0,0,1.063-.2,1.483,1.483,0,0,0,.64-.536,1.323,1.323,0,0,0,.21-.72,1.193,1.193,0,0,0-.292-.811,1.46,1.46,0,0,0-.837-.448" transform="translate(-150.717 -172.091)"/>
      <path id="Path_710" data-name="Path 710" d="M205.23,207.28a1.993,1.993,0,0,0,2,0,1.816,1.816,0,0,0,.687-.786,3.153,3.153,0,0,0,0-2.449,1.813,1.813,0,0,0-.687-.786,1.993,1.993,0,0,0-2,0,1.812,1.812,0,0,0-.687.786,3.15,3.15,0,0,0,0,2.449,1.814,1.814,0,0,0,.687.786m.5-2.972a.566.566,0,0,1,1,0,2.589,2.589,0,0,1,0,1.923.566.566,0,0,1-1,0,2.591,2.591,0,0,1,0-1.923" transform="translate(-172.672 -171.612)"/>
      <rect id="Rectangle_48" data-name="Rectangle 48" width="1.832" height="0.915" transform="translate(36.02 33.607)"/>
      <path id="Path_711" data-name="Path 711" d="M252.674,207.672a2.03,2.03,0,0,0,.866-.764,2.339,2.339,0,0,0,0-2.318,2.031,2.031,0,0,0-.866-.764,2.911,2.911,0,0,0-1.28-.269h-2.076v4.385h2.076a2.909,2.909,0,0,0,1.28-.269m-2.114-.72v-2.406h.784a1.275,1.275,0,0,1,.906.32,1.312,1.312,0,0,1,0,1.767,1.274,1.274,0,0,1-.906.319Z" transform="translate(-210.726 -172.091)"/>
      <path id="Path_712" data-name="Path 712" d="M282.45,207.089l.345.852h1.292l-1.944-4.385h-1.223l-1.938,4.385h1.267l.345-.852Zm-.928-2.318.564,1.4h-1.129Z" transform="translate(-235.798 -172.091)"/>
      <path id="Path_713" data-name="Path 713" d="M310.483,207.941h1.242v-1.572l1.681-2.813h-1.2L311.16,205.3l-1.041-1.741h-1.311l1.675,2.794Z" transform="translate(-261.008 -172.091)"/>
      <path id="Path_714" data-name="Path 714" d="M245.248,322.277l.745,1.508,1.666.242-1.206,1.174.285,1.657-1.49-.782-1.49.782.285-1.657-1.206-1.174,1.666-.242Z" transform="translate(-205.248 -272.461)"/>
      <path id="Path_715" data-name="Path 715" d="M283.5,323.928l.681.557.846-.244-.32.819.494.728-.879-.051-.541.694-.223-.85-.828-.3.741-.475Z" transform="translate(-238.965 -273.857)"/>
      <path id="Path_716" data-name="Path 716" d="M219.845,323.928l-.681.557-.846-.244.32.819-.494.728.879-.051.541.694.223-.85.828-.3-.741-.475Z" transform="translate(-184.378 -273.857)"/>
      <path id="Path_717" data-name="Path 717" d="M99.867,314.115l.755,1.258-2.088,1.249a3.823,3.823,0,0,1-1.071-.708,4.606,4.606,0,0,1-.839-1.023,3.494,3.494,0,0,1-.519-1.624,2.9,2.9,0,0,1,.337-1.55,3.177,3.177,0,0,1,2.707-1.62,2.9,2.9,0,0,1,1.532.441,3.586,3.586,0,0,1,1.2,1.245,3.743,3.743,0,0,1,.522,1.407,2.842,2.842,0,0,1-.123,1.344l-1.364-.415a1.859,1.859,0,0,0-.172-1.558,1.581,1.581,0,0,0-2.3-.576,1.772,1.772,0,0,0-.637.626,1.5,1.5,0,0,0-.209.809,1.713,1.713,0,0,0,.261.85,2.116,2.116,0,0,0,.627.67Z" transform="translate(-81.226 -262.165)" fill="#fff"/>
      <path id="Path_718" data-name="Path 718" d="M123.86,343.109a2.7,2.7,0,0,1,.872-1.961l2.249-2.352,1.2,1.146-2.214,2.315q-.974,1.019-.167,1.788t1.775-.254l2.214-2.316,1.184,1.129-2.249,2.352a2.71,2.71,0,0,1-1.922.96,3.257,3.257,0,0,1-2.944-2.807" transform="translate(-104.687 -286.426)" fill="#fff"/>
      <path id="Path_719" data-name="Path 719" d="M156.431,377.269l-2.185-1.18-.949.784-1.491-.805,5.076-3.929,1.44.777-.506,6.4-1.521-.821Zm.155-1.308.23-2.01-1.559,1.293Z" transform="translate(-128.307 -314.614)" fill="#fff"/>
      <path id="Path_720" data-name="Path 720" d="M204.687,389.779l-.883-.2-.353,1.519-1.619-.375L203.161,385l2.616.607a3.351,3.351,0,0,1,1.289.57,2.132,2.132,0,0,1,.22,3.149,2.017,2.017,0,0,1-1,.53l.817,2.083-1.734-.4Zm1.4-2.524a1.147,1.147,0,0,0-.7-.395l-.9-.208-.389,1.674.9.208a1.162,1.162,0,0,0,.8-.042.787.787,0,0,0,.4-.558.8.8,0,0,0-.109-.679" transform="translate(-170.591 -325.49)" fill="#fff"/>
      <path id="Path_721" data-name="Path 721" d="M249.643,396.951l-2.483.091-.419,1.156-1.695.062,2.376-5.958,1.635-.06,2.817,5.768-1.728.064Zm-.532-1.205-.824-1.848-.686,1.9Z" transform="translate(-207.116 -331.611)" fill="#fff"/>
      <path id="Path_722" data-name="Path 722" d="M294.4,379.672l1.818,5.579-1.3.423-3.435-2.172.969,2.973-1.548.5-1.818-5.579,1.3-.423,3.435,2.172-.969-2.973Z" transform="translate(-244.335 -320.984)" fill="#fff"/>
      <path id="Path_723" data-name="Path 723" d="M328.058,363.078l-1.522.968-.708-1.11,4.439-2.823.708,1.11-1.515.963,2.448,3.839-1.4.892Z" transform="translate(-275.394 -304.448)" fill="#fff"/>
      <path id="Path_724" data-name="Path 724" d="M363.25,339.865l.917.9-3.3,3.362-4.193-4.11,3.228-3.284.916.9-2.075,2.111.707.693,1.828-1.86.887.869-1.828,1.86.767.752Z" transform="translate(-301.461 -284.681)" fill="#fff"/>
      <path id="Path_725" data-name="Path 725" d="M387.242,309.014l1.1.662-2.434,4.035-5.032-3.028,2.378-3.941,1.1.662-1.529,2.534.848.51,1.347-2.233,1.064.64-1.347,2.233.92.554Z" transform="translate(-321.92 -259.327)" fill="#fff"/>
      <path id="Path_726" data-name="Path 726" d="M94.824,179.445l-2.888-1.163,1.773,2.356-.28.683-2.837.46,2.8,1.147-.582,1.419-5.437-2.225.519-1.264,3.921-.624-2.374-3.145.519-1.264,5.443,2.209Z" transform="translate(-73.851 -148.646)" fill="#fff"/>
      <path id="Path_727" data-name="Path 727" d="M124.079,144.75a3,3,0,0,1-4-3.5,3.749,3.749,0,0,1,2.208-2.514,3,3,0,0,1,4,3.5,3.746,3.746,0,0,1-2.208,2.514m.74-2.647a1.5,1.5,0,0,0-.068-.818,1.938,1.938,0,0,0-1.319-1.155,1.515,1.515,0,0,0-.821.039,1.65,1.65,0,0,0-1.063,1.21,1.5,1.5,0,0,0,.069.818,1.937,1.937,0,0,0,1.318,1.155,1.512,1.512,0,0,0,.821-.039,1.65,1.65,0,0,0,1.063-1.21" transform="translate(-101.419 -117.116)" fill="#fff"/>
      <path id="Path_728" data-name="Path 728" d="M156.438,103.083l3.063,5.007-1.168.712-3.845-1.318,1.632,2.668-1.389.848-3.063-5.007,1.168-.712,3.845,1.318-1.632-2.668Z" transform="translate(-128.192 -87.149)" fill="#fff"/>
      <path id="Path_729" data-name="Path 729" d="M202.8,93.585l.348,1.234-4.54,1.277-1.593-5.647,4.435-1.248.348,1.234-2.852.8.269.952,2.512-.707.337,1.194-2.512.707.291,1.033Z" transform="translate(-166.517 -75.413)" fill="#fff"/>
      <path id="Path_730" data-name="Path 730" d="M238.287,90.183l.052,2.1-1.661.041-.052-2.128-2.333-3.682,1.754-.043,1.45,2.3,1.335-2.364,1.611-.04Z" transform="translate(-198.027 -73.016)" fill="#fff"/>
      <path id="Path_731" data-name="Path 731" d="M295.87,96.655a1.439,1.439,0,0,1-.044.944,1.354,1.354,0,0,1-.995.9A3.208,3.208,0,0,1,293,98.275l-2.978-1.094,2.029-5.506,2.82,1.036a2.952,2.952,0,0,1,1.463.98,1.3,1.3,0,0,1,.164,1.253,1.392,1.392,0,0,1-.452.633,1.439,1.439,0,0,1-.728.29,1.647,1.647,0,0,1,.55.787m-1.556.192q.206-.558-.613-.86l-1.307-.48-.411,1.117,1.307.481q.819.3,1.025-.257m-1.133-3.48-.391,1.062,1.071.394q.787.289.985-.245t-.594-.816Z" transform="translate(-245.131 -77.504)" fill="#fff"/>
      <path id="Path_732" data-name="Path 732" d="M327.36,123.329l-1.993-1.481-1.052.64-1.36-1.01,5.587-3.162,1.313.975-1.418,6.258-1.387-1.03Zm.34-1.272.516-1.957-1.728,1.056Z" transform="translate(-272.964 -100.026)" fill="#fff"/>
      <path id="Path_733" data-name="Path 733" d="M364.1,152a2.906,2.906,0,0,1,.157-1.575,3.177,3.177,0,0,1,2.5-1.924,2.922,2.922,0,0,1,1.565.251,3.474,3.474,0,0,1,1.321,1.074,3.549,3.549,0,0,1,.66,1.323,2.787,2.787,0,0,1,0,1.351l-1.4-.253a1.735,1.735,0,0,0-.3-1.515,1.711,1.711,0,0,0-.686-.546,1.458,1.458,0,0,0-.822-.1,1.974,1.974,0,0,0-1.39,1.069,1.449,1.449,0,0,0-.115.819,1.7,1.7,0,0,0,.354.8,1.739,1.739,0,0,0,1.39.676l-.113,1.42a2.8,2.8,0,0,1-1.307-.349,3.555,3.555,0,0,1-1.112-.975,3.471,3.471,0,0,1-.7-1.549" transform="translate(-307.707 -125.53)" fill="#fff"/>
      <path id="Path_734" data-name="Path 734" d="M383.217,185.39l-.847-.329-1.363.546-.613-1.524,5.452-2.186.613,1.525-2.267.909,3.114,1.2.682,1.7-3.309-1.257-2.1,3.559-.719-1.789Z" transform="translate(-321.514 -153.781)" fill="#fff"/>
    </g>
  </g>
  <g id="Group_85" data-name="Group 85" transform="translate(62.165 38.828)">
    <g id="Group_84" data-name="Group 84" clip-path="url(#clip-path-5)">
      <path id="Path_739" data-name="Path 739" d="M0,0,6.538,0l0,6.465L0,6.465Z" transform="translate(-2.092 1.352) rotate(-32.905)" fill="url(#linear-gradient-3)"/>
    </g>
  </g>
  <g id="Group_87" data-name="Group 87" transform="translate(13.012 38.828)">
    <g id="Group_86" data-name="Group 86" clip-path="url(#clip-path-6)">
      <path id="Path_740" data-name="Path 740" d="M0,0,6.538,0l0,6.465L0,6.465Z" transform="translate(-2.092 1.352) rotate(-32.905)" fill="url(#linear-gradient-4)"/>
    </g>
  </g>
</svg>
