<svg xmlns="http://www.w3.org/2000/svg" width="408" height="340" viewBox="0 0 408 340">
  <g id="Group_111" data-name="Group 111" transform="translate(0 0.002)">
    <g id="Group_112" data-name="Group 112" transform="translate(0 -0.002)">
      <path id="Path_880" data-name="Path 880" d="M683.559,913.225c-8.372-10.834-50.389-63.828-77.881-72.734C575.025,830.562,603.915,870,603.915,870s-54.377-59.5-74.332-54.132c-18.291,4.917,0,41.795,0,41.795S508.982,837.24,484,837.24c-23.823,0,15.344,69.525,19.034,75.985Z" transform="translate(-334.912 -573.225)" fill="#a2ce97"/>
      <path id="Path_881" data-name="Path 881" d="M19.686,957.131h177.84c-2.689-6.983-34.882-88.173-74.349-78.312-33.416,8.349-9.658,53.179-11.695,51.141s-19.96-32.467-48.959-32.467,8.9,41.067,8.9,41.067S9.639,919.254,4.8,939.527c-2.994,12.546,8.727,16.436,14.885,17.6" transform="translate(-3.038 -617.131)" fill="#d9efd3"/>
      <path id="Path_882" data-name="Path 882" d="M13.54,1043.629c14.782,4.524,27.577,13.863,39.878,22.936,5.3,3.907,6.925,5.791,7.864,6.906h1.585a15.94,15.94,0,0,0-2.852-2.977,51.528,51.528,0,0,0-4.228-3.466c-3.127-2.328-6.376-4.506-9.6-6.7a154.828,154.828,0,0,0-20.433-12.175,78.449,78.449,0,0,0-12.182-4.645.063.063,0,0,0-.033.12" transform="translate(-9.488 -733.471)" fill="#82b378"/>
      <path id="Path_883" data-name="Path 883" d="M140.178,894.184a158.292,158.292,0,0,1,30.743,55.009h1.25a157.649,157.649,0,0,0-17.407-37.062c-20.044-31.332-45.022-45.6-44.751-45.434a42.708,42.708,0,0,1,4.336,3.279c7.61,6.049,15.332,11.9,25.83,24.208" transform="translate(-77.344 -609.193)" fill="#82b378"/>
      <path id="Path_884" data-name="Path 884" d="M261.66,957.564h.926a209.591,209.591,0,0,0-6.46-29.569c-7.677-26.17-15.714-36.393-18.116-49.253-.045-.241-.4-.135-.363.1,1.677,11.054,7.442,20.993,11.415,31.309a234.157,234.157,0,0,1,12.6,47.413" transform="translate(-167.079 -617.564)" fill="#82b378"/>
      <path id="Path_885" data-name="Path 885" d="M485.763,1027.869c1.638,3.149,3.062,6.376,4.485,9.618h1.171l-.091-.253a.3.3,0,0,0-.109-.138,118.164,118.164,0,0,0-9.445-18.047c-11.665-18.678-23.744-27.828-22.543-26.634a144.145,144.145,0,0,1,26.532,35.454" transform="translate(-322.812 -697.487)" fill="#82b378"/>
      <path id="Path_886" data-name="Path 886" d="M141.856,858.272a9.957,9.957,0,0,0-1.63,3.981,7.682,7.682,0,0,0,.438,3.78,8.287,8.287,0,0,1-2.6-3.366c-.973-2.082-.9-5.162-.187-6.275,1.161-2.455,3.687-3.027,4.33-2,.673,1.018.2,2.587-.355,3.879" transform="translate(-96.56 -600.204)" fill="#82b378"/>
      <path id="Path_887" data-name="Path 887" d="M200.7,917.447a9.923,9.923,0,0,0-1.142,4.131,7.655,7.655,0,0,0,.88,3.687,8.262,8.262,0,0,1-2.966-3.022c-1.208-1.945-1.5-5-.926-6.185.858-2.565,3.289-3.43,4.047-2.489.786.926.506,2.535.107,3.878" transform="translate(-137.982 -641.88)" fill="#82b378"/>
      <path id="Path_888" data-name="Path 888" d="M274.77,948.765a7.327,7.327,0,0,0-2.91,1.25,5.657,5.657,0,0,0-1.72,2.212,6.1,6.1,0,0,1,.372-3.109,5.983,5.983,0,0,1,3.139-3.392c1.876-.69,3.5.314,3.306,1.186-.171.882-1.228,1.464-2.187,1.854" transform="translate(-189.885 -664.58)" fill="#82b378"/>
      <path id="Path_889" data-name="Path 889" d="M494.85,1003.946a7.332,7.332,0,0,0-1.9,2.534,5.657,5.657,0,0,0-.39,2.776,6.108,6.108,0,0,1-1.226-2.882,5.989,5.989,0,0,1,1.032-4.506c1.283-1.534,3.189-1.472,3.457-.619.291.849-.336,1.881-.973,2.7" transform="translate(-345.384 -703.349)" fill="#82b378"/>
      <path id="Path_890" data-name="Path 890" d="M470.81,978.216a7.334,7.334,0,0,0-1.9,2.534,5.659,5.659,0,0,0-.39,2.775,6.107,6.107,0,0,1-1.226-2.882,5.988,5.988,0,0,1,1.032-4.507c1.283-1.534,3.189-1.472,3.457-.619.291.849-.336,1.881-.973,2.7" transform="translate(-328.483 -685.263)" fill="#82b378"/>
      <path id="Path_891" data-name="Path 891" d="M445.647,1000.453a7.331,7.331,0,0,1,2.826-1.431,5.644,5.644,0,0,1,2.8.1,6.1,6.1,0,0,0-2.622-1.71,5.978,5.978,0,0,0-4.615.231c-1.733,1-2,2.886-1.212,3.3.786.434,1.91,0,2.824-.488" transform="translate(-311.036 -700.83)" fill="#82b378"/>
      <path id="Path_892" data-name="Path 892" d="M471.153,1028.374a7.319,7.319,0,0,1,2.825-1.431,5.635,5.635,0,0,1,2.8.1,6.1,6.1,0,0,0-2.622-1.711,5.979,5.979,0,0,0-4.615.232c-1.733,1-2,2.886-1.212,3.3.786.434,1.91,0,2.825-.489" transform="translate(-328.968 -720.456)" fill="#82b378"/>
      <path id="Path_893" data-name="Path 893" d="M489.809,1052.223a7.327,7.327,0,0,1,2.826-1.431,5.645,5.645,0,0,1,2.8.1,6.1,6.1,0,0,0-2.622-1.71,5.979,5.979,0,0,0-4.614.231c-1.733,1-2,2.886-1.212,3.3.786.434,1.91,0,2.825-.488" transform="translate(-342.084 -737.219)" fill="#82b378"/>
      <path id="Path_894" data-name="Path 894" d="M505.334,1076.073a7.328,7.328,0,0,1,2.826-1.431,5.641,5.641,0,0,1,2.8.1,6.1,6.1,0,0,0-2.622-1.71,5.981,5.981,0,0,0-4.615.231c-1.733,1-2,2.886-1.212,3.3.786.434,1.91,0,2.824-.488" transform="translate(-353 -753.983)" fill="#82b378"/>
      <path id="Path_895" data-name="Path 895" d="M514.756,1029.986a7.333,7.333,0,0,0-1.9,2.534,5.654,5.654,0,0,0-.39,2.775,6.107,6.107,0,0,1-1.226-2.881,5.988,5.988,0,0,1,1.032-4.506c1.283-1.534,3.189-1.472,3.457-.619.291.85-.336,1.881-.973,2.7" transform="translate(-359.379 -721.652)" fill="#82b378"/>
      <path id="Path_896" data-name="Path 896" d="M532.41,1056.188a7.331,7.331,0,0,0-1.9,2.534,5.653,5.653,0,0,0-.39,2.775,6.107,6.107,0,0,1-1.226-2.882,5.99,5.99,0,0,1,1.032-4.506c1.283-1.534,3.19-1.472,3.457-.619.291.849-.336,1.881-.973,2.7" transform="translate(-371.791 -740.069)" fill="#82b378"/>
      <path id="Path_897" data-name="Path 897" d="M282.188,966.917a7.327,7.327,0,0,0-2.91,1.25,5.658,5.658,0,0,0-1.72,2.212,6.1,6.1,0,0,1,.372-3.109,5.984,5.984,0,0,1,3.139-3.393c1.877-.691,3.5.314,3.306,1.186-.171.882-1.228,1.464-2.187,1.854" transform="translate(-195.101 -677.339)" fill="#82b378"/>
      <path id="Path_898" data-name="Path 898" d="M51.95,1026.811a9.914,9.914,0,0,0-1.142,4.13,7.653,7.653,0,0,0,.88,3.687,8.258,8.258,0,0,1-2.966-3.022c-1.208-1.945-1.5-5-.926-6.185.858-2.566,3.29-3.43,4.047-2.489.785.926.506,2.535.107,3.878" transform="translate(-33.404 -718.751)" fill="#82b378"/>
      <path id="Path_899" data-name="Path 899" d="M93.694,1051.351a9.919,9.919,0,0,0-1.142,4.131,7.651,7.651,0,0,0,.88,3.687,8.258,8.258,0,0,1-2.967-3.022c-1.208-1.945-1.5-5-.926-6.185.858-2.566,3.289-3.43,4.047-2.489.785.926.506,2.535.107,3.878" transform="translate(-62.753 -736)" fill="#82b378"/>
      <path id="Path_900" data-name="Path 900" d="M135.352,1080.278a9.923,9.923,0,0,0-1.142,4.13,7.647,7.647,0,0,0,.88,3.687,8.252,8.252,0,0,1-2.967-3.022c-1.208-1.945-1.5-5-.926-6.185.858-2.566,3.29-3.43,4.048-2.489.786.926.506,2.535.107,3.878" transform="translate(-92.041 -756.333)" fill="#82b378"/>
      <path id="Path_901" data-name="Path 901" d="M117.914,895.617a9.172,9.172,0,0,1,2.709-2.889,7.061,7.061,0,0,1,3.332-1.078,7.625,7.625,0,0,0-3.811-.889c-2.116-.019-4.666,1.22-5.324,2.244-1.611,1.912-1.124,4.249-.017,4.394,1.109.175,2.243-.819,3.111-1.781" transform="translate(-79.998 -626.098)" fill="#82b378"/>
      <path id="Path_902" data-name="Path 902" d="M153.817,928.765a9.16,9.16,0,0,1,2.71-2.889,7.059,7.059,0,0,1,3.332-1.079,7.631,7.631,0,0,0-3.812-.889c-2.115-.018-4.665,1.221-5.324,2.244-1.611,1.912-1.124,4.248-.017,4.394,1.109.175,2.243-.819,3.111-1.781" transform="translate(-105.24 -649.398)" fill="#82b378"/>
      <path id="Path_903" data-name="Path 903" d="M219.326,900.976a9.168,9.168,0,0,1,3.928.5,7.07,7.07,0,0,1,2.829,2.066,7.642,7.642,0,0,0-1.518-3.61c-1.227-1.724-3.726-3.063-4.941-3-2.492-.183-4.1,1.584-3.565,2.566.51,1,1.98,1.336,3.267,1.474" transform="translate(-151.832 -630.439)" fill="#82b378"/>
      <path id="Path_904" data-name="Path 904" d="M229.844,926.42a9.16,9.16,0,0,1,3.928.5,7.07,7.07,0,0,1,2.829,2.066,7.642,7.642,0,0,0-1.518-3.61c-1.227-1.724-3.726-3.063-4.941-3-2.493-.183-4.1,1.584-3.565,2.566.51,1,1.98,1.336,3.267,1.474" transform="translate(-159.227 -648.323)" fill="#82b378"/>
      <path id="Path_905" data-name="Path 905" d="M31.364,1064.648a9.168,9.168,0,0,1,2.71-2.889,7.059,7.059,0,0,1,3.332-1.079,7.627,7.627,0,0,0-3.811-.889c-2.116-.018-4.666,1.22-5.325,2.244-1.611,1.912-1.123,4.248-.017,4.394,1.109.175,2.244-.82,3.111-1.781" transform="translate(-19.148 -744.909)" fill="#82b378"/>
      <path id="Path_906" data-name="Path 906" d="M199.528,979.85a9.166,9.166,0,0,1,2.709-2.889,7.057,7.057,0,0,1,3.332-1.078,7.624,7.624,0,0,0-3.811-.889c-2.115-.018-4.666,1.22-5.325,2.244-1.611,1.912-1.124,4.249-.017,4.394,1.109.175,2.243-.819,3.111-1.781" transform="translate(-137.378 -685.305)" fill="#82b378"/>
      <path id="Path_907" data-name="Path 907" d="M74.821,1089.983a9.16,9.16,0,0,1,2.71-2.889,7.055,7.055,0,0,1,3.332-1.079,7.63,7.63,0,0,0-3.812-.889c-2.115-.018-4.666,1.221-5.325,2.244-1.611,1.912-1.123,4.248-.017,4.394,1.109.175,2.243-.819,3.112-1.781" transform="translate(-49.701 -762.717)" fill="#82b378"/>
      <path id="Path_908" data-name="Path 908" d="M100.3,872.871a5.88,5.88,0,0,1,2.083-1.456,4.537,4.537,0,0,1,2.235-.237,4.894,4.894,0,0,0-2.276-1.062,4.8,4.8,0,0,0-3.64.705c-1.264.988-1.266,2.519-.59,2.757.673.256,1.517-.218,2.189-.707" transform="translate(-68.663 -611.532)" fill="#82b378"/>
      <path id="Path_909" data-name="Path 909" d="M109.9,853.362a5.883,5.883,0,0,0,.089,2.541,4.538,4.538,0,0,0,1.154,1.929,4.9,4.9,0,0,1-2.216-1.181,4.8,4.8,0,0,1-1.625-3.334c.029-1.6,1.251-2.527,1.847-2.13s.737,1.344.751,2.175" transform="translate(-75.434 -598.227)" fill="#82b378"/>
      <path id="Path_910" data-name="Path 910" d="M1292.385,852.1a219.866,219.866,0,0,1,10.4,76.08h.99a221.256,221.256,0,0,0-10.443-75.466c-1.815-5.723-3.636-12.423-8.975-15.9-.1-.067-.192.093-.1.162,4.8,3.448,6.426,9.769,8.125,15.121" transform="translate(-902.892 -588.179)" fill="#82b378"/>
      <path id="Path_911" data-name="Path 911" d="M1238.49,979.27a274.606,274.606,0,0,0-39.775-69.706c-.173-.223-.568.077-.394.3a274.124,274.124,0,0,1,38.943,69.4Z" transform="translate(-842.469 -639.27)" fill="#82b378"/>
      <path id="Path_912" data-name="Path 912" d="M1307.1,832.687a9.918,9.918,0,0,0-3.025,3.035,7.655,7.655,0,0,0-1.046,3.643,8.262,8.262,0,0,1-1.1-4.092c-.1-2.288,1.152-5.091,2.234-5.841,2.009-1.811,4.55-1.368,4.747-.175.229,1.194-.8,2.456-1.813,3.43" transform="translate(-915.344 -582.146)" fill="#82b378"/>
      <path id="Path_913" data-name="Path 913" d="M1281.481,893.058a9.91,9.91,0,0,1,4.116-1.184,7.644,7.644,0,0,1,3.694.843,8.256,8.256,0,0,0-3.051-2.937c-1.956-1.189-5.011-1.451-6.189-.864-2.556.885-3.4,3.326-2.447,4.075.934.777,2.539.481,3.877.068" transform="translate(-897.975 -624.6)" fill="#82b378"/>
      <path id="Path_914" data-name="Path 914" d="M1290.426,925.155a9.906,9.906,0,0,1,4.116-1.184,7.646,7.646,0,0,1,3.694.843,8.266,8.266,0,0,0-3.051-2.938c-1.956-1.189-5.011-1.45-6.19-.864-2.555.884-3.395,3.326-2.446,4.075.933.777,2.538.481,3.876.068" transform="translate(-904.264 -647.16)" fill="#82b378"/>
      <path id="Path_915" data-name="Path 915" d="M1214.8,973.763a9.9,9.9,0,0,1,4.116-1.184,7.647,7.647,0,0,1,3.694.843,8.268,8.268,0,0,0-3.051-2.937c-1.956-1.189-5.011-1.451-6.19-.864-2.555.885-3.4,3.326-2.447,4.075.934.777,2.538.481,3.877.068" transform="translate(-851.094 -681.326)" fill="#82b378"/>
      <path id="Path_916" data-name="Path 916" d="M1192.013,939.481a9.906,9.906,0,0,1,4.117-1.184,7.637,7.637,0,0,1,3.693.843,8.258,8.258,0,0,0-3.051-2.938c-1.956-1.189-5.011-1.451-6.189-.864-2.555.884-3.395,3.326-2.447,4.075.933.777,2.538.481,3.877.068" transform="translate(-835.073 -657.23)" fill="#82b378"/>
      <path id="Path_917" data-name="Path 917" d="M1320.526,870.206a9.92,9.92,0,0,0-3.465,2.52,7.661,7.661,0,0,0-1.608,3.432,8.267,8.267,0,0,1-.438-4.213c.266-2.274,1.939-4.846,3.126-5.415,2.268-1.472,4.709-.633,4.716.576.038,1.214-1.182,2.3-2.331,3.1" transform="translate(-924.46 -608.526)" fill="#82b378"/>
      <path id="Path_918" data-name="Path 918" d="M1332.677,905.225c-.687.158-2.944.173-4.423,1.463a6.616,6.616,0,0,0-2.273,3.407,10.957,10.957,0,0,1-.117-5.277c.542-2.62,2.81-4.959,4.3-5.106,2.878-.744,5.738,1.375,5.627,2.835-.073,1.481-1.649,2.233-3.112,2.678" transform="translate(-931.964 -632.292)" fill="#82b378"/>
      <path id="Path_919" data-name="Path 919" d="M1344.418,959.117c-.7.04-2.931-.325-4.606.7a6.609,6.609,0,0,0-2.813,2.976,10.96,10.96,0,0,1,.771-5.221c.975-2.492,3.6-4.416,5.094-4.31,2.962-.249,5.424,2.321,5.071,3.742-.321,1.448-2,1.924-3.518,2.116" transform="translate(-939.97 -670.026)" fill="#82b378"/>
      <path id="Path_920" data-name="Path 920" d="M1264.728,975.31c-.55.167-2.385.308-3.515,1.442a5.386,5.386,0,0,0-1.655,2.9,8.93,8.93,0,0,1-.4-4.286c.292-2.162,2-4.194,3.2-4.4,2.3-.769,4.746.792,4.739,1.985.025,1.209-1.214,1.91-2.379,2.356" transform="translate(-885.182 -682.342)" fill="#82b378"/>
      <path id="Path_921" data-name="Path 921" d="M1268.607,836.946a5.889,5.889,0,0,1,2.383-.881,4.544,4.544,0,0,1,2.223.337,4.9,4.9,0,0,0-1.933-1.6,4.8,4.8,0,0,0-3.7-.24c-1.473.635-1.862,2.116-1.269,2.518a2.6,2.6,0,0,0,2.3-.13" transform="translate(-890.115 -586.415)" fill="#82b378"/>
      <path id="Path_922" data-name="Path 922" d="M1282.968,819.553a5.888,5.888,0,0,0-.557,2.481,4.535,4.535,0,0,0,.628,2.159,4.893,4.893,0,0,1-1.845-1.7,4.805,4.805,0,0,1-.728-3.637c.434-1.545,1.85-2.128,2.326-1.592a2.609,2.609,0,0,1,.176,2.295" transform="translate(-900.166 -574.307)" fill="#82b378"/>
      <path id="Path_923" data-name="Path 923" d="M1181.713,911.179a5.884,5.884,0,0,1,2.383-.881,4.54,4.54,0,0,1,2.222.337,4.892,4.892,0,0,0-1.933-1.6,4.8,4.8,0,0,0-3.7-.24c-1.473.635-1.863,2.116-1.269,2.518a2.6,2.6,0,0,0,2.3-.129" transform="translate(-829.022 -638.593)" fill="#82b378"/>
      <path id="Path_924" data-name="Path 924" d="M1197.967,894a5.889,5.889,0,0,0-.758,2.426,4.541,4.541,0,0,0,.45,2.2,4.9,4.9,0,0,1-1.7-1.85,4.8,4.8,0,0,1-.427-3.685c.559-1.5,2.017-1.969,2.448-1.4a2.61,2.61,0,0,1-.013,2.3" transform="translate(-840.396 -626.6)" fill="#82b378"/>
      <path id="Path_925" data-name="Path 925" d="M479.138,1109a21.979,21.979,0,0,1,5.162,8.753h.459l-.022-.073a20.675,20.675,0,0,0-3.093-6.163,14.64,14.64,0,0,0-5.432-5.01c-.013-.008-.025.012-.012.021a23.7,23.7,0,0,1,2.938,2.472" transform="translate(-334.797 -777.752)" fill="#82b378"/>
      <path id="Path_926" data-name="Path 926" d="M462.929,1107.65a5.88,5.88,0,0,1,2.383-.881,4.528,4.528,0,0,1,2.222.337,4.893,4.893,0,0,0-1.933-1.6,4.8,4.8,0,0,0-3.7-.24c-1.473.635-1.863,2.116-1.269,2.518a2.6,2.6,0,0,0,2.3-.13" transform="translate(-323.668 -776.691)" fill="#82b378"/>
      <path id="Path_927" data-name="Path 927" d="M477.29,1090.257a5.89,5.89,0,0,0-.557,2.481,4.531,4.531,0,0,0,.628,2.159,4.894,4.894,0,0,1-1.845-1.7,4.809,4.809,0,0,1-.728-3.637c.434-1.545,1.85-2.128,2.326-1.592a2.612,2.612,0,0,1,.176,2.295" transform="translate(-333.72 -764.583)" fill="#82b378"/>
      <path id="Path_928" data-name="Path 928" d="M2.638,1045.721a5.877,5.877,0,0,1,2.083-1.456,4.521,4.521,0,0,1,2.234-.237,4.883,4.883,0,0,0-2.276-1.062,4.794,4.794,0,0,0-3.64.705c-1.264.988-1.266,2.519-.591,2.757.673.256,1.517-.218,2.189-.707" transform="translate(0.001 -733.027)" fill="#82b378"/>
      <path id="Path_929" data-name="Path 929" d="M12.241,1026.211a5.88,5.88,0,0,0,.089,2.541,4.532,4.532,0,0,0,1.154,1.929,4.89,4.89,0,0,1-2.217-1.182,4.8,4.8,0,0,1-1.625-3.334c.029-1.6,1.251-2.527,1.847-2.13s.737,1.344.751,2.175" transform="translate(-6.771 -719.722)" fill="#82b378"/>
      <path id="Path_930" data-name="Path 930" d="M598.5,1071.227s.909,9.935.311,13.175a12.485,12.485,0,0,1-.461,1.588c-.616,1.817,1.111,6.592,1.111,6.592l22.663.132c1.232,0,.332-.055-.671-.772-1.642-1.174-2.963-1.947-8.189-4.392-.341-.159-1.584-.927-2.033-1.193a15.662,15.662,0,0,1-3.271-2.815c-1.647-1.786-1.9-10.541-1.9-10.541Z" transform="translate(-420.583 -752.956)" fill="#f7a491"/>
      <path id="Path_931" data-name="Path 931" d="M621.6,1127.928a1.457,1.457,0,0,0-.233-.634c-1.048-1.219-12.447-5.7-12.9-5.967a20.505,20.505,0,0,1-12.885-.346,35.328,35.328,0,0,0-1.292,6.947Z" transform="translate(-417.83 -787.928)" fill="#0f1216"/>
      <path id="Path_932" data-name="Path 932" d="M503.6,629.119s.322,14.182,4.384,23.263c3.956,8.846,22.89,30.661,27.923,43.394-1.556,7.182-5.832,17.276-5.523,25.236.351,9.021-.174,32.89-.174,32.89l10.161.323,13.33-61.6L533.617,626.17,524.5,610.032Z" transform="translate(-354.067 -428.786)" fill="#39b54a"/>
      <path id="Path_933" data-name="Path 933" d="M322.145,1023.683s-6.243,8.573-8.993,10.74c-1.473,1.161-5.473,2.719-5.894,4.638s18.112,18.9,18.112,18.9c.981.869.871-.334.574-1.611-.487-2.09-1-3.636-3.459-9.259-.161-.366-.615-1.853-.786-2.38a16.68,16.68,0,0,1-.638-4.545c-.062-2.582,5.88-9.751,5.88-9.751Z" transform="translate(-216.018 -719.538)" fill="#f7a491"/>
      <path id="Path_934" data-name="Path 934" d="M319.578,1087.206h3.649a2.458,2.458,0,0,0,.519-1.013c.018-1.711-5.942-13.293-6.114-13.822a21.823,21.823,0,0,1-10.048-9.325c-1.763,1.016-6.508,3.182-6.091,3.787,3.127,4.539,6.372,10.137,18.084,20.372" transform="translate(-211.952 -747.206)" fill="#0f1216"/>
      <path id="Path_935" data-name="Path 935" d="M441.853,295.33c-1.753-11.435-12.093-19.657-22.906-14.109a25.665,25.665,0,0,0-7.4,5.937c-4.619,5.932-5.739,13.284-10.635,18.989-4.221,4.918-15.49,3.99-20.753,7.773S371.2,324.486,371.2,332.6c0,9.073,2.048,18.7,9.073,24.44s17.011,7.165,25.747,4.735,16.232-8.387,21.627-15.68a79.135,79.135,0,0,0,11.9-23.952,61.946,61.946,0,0,0,2.3-26.811" transform="translate(-260.981 -196.421)" fill="#0f1216"/>
      <path id="Path_936" data-name="Path 936" d="M371.077,210.841s-13.275-23.707-16.5-28.747-11.643-25.065-11.944-25.854,5.794-10.266,4.434-10.591-2.865,5-4.317,4.361-5.691-13.445-6.518-12.81c-1.548,1.189,2.285,7.946,1.461,8.372s-3.324-7.434-4.945-7.2,3.081,7.2,2.628,7.82-5.334-5.954-6.217-4.553c-.48.761,4.488,5.735,3.534,6.2s-5.372-2.745-5.84-1.819,4.086,2.194,5.448,4.69,3.681,3.576,4.644,8.2,2.4,21.351,7.336,29.7S360.06,215.42,360.06,215.42Z" transform="translate(-229.772 -96.421)" fill="#f79c8d"/>
      <path id="Path_937" data-name="Path 937" d="M611.275,558.81c-1.462-1.264-4.59-4.029-4.305-4.315.369-.373,1.734-.107,2.167.058s.954.316,1.386.481a.9.9,0,0,0,1.155-.544c.243-.523-1.338-1.555-1.955-1.8a73.08,73.08,0,0,0-8.067-1.932c-.691-.159-8.608-9.81-11.583-12.9h0c-4.72-5.205-9.31-10.791-9.808-11.345l-12.927-27.176-11.8.866s13.923,30.361,14.793,31.8c.414.685,12.287,11.9,12.292,11.9,6.193,5.154,11.665,9.679,12.69,10.578,0,0,2.347,3.515,3.709,5.842a15.784,15.784,0,0,0,2.968,3.5c2.45-2.213,5.561-2.885,8.45-4.441.29-.174.564-.363.832-.56" transform="translate(-390.582 -350.976)" fill="#f48c7f"/>
      <path id="Path_938" data-name="Path 938" d="M556.615,428.544s9.121,4.359,13.618,31.5l-15.461,4.314-6.434-17.493Z" transform="translate(-385.517 -301.22)" fill="#d3671e"/>
      <path id="Path_939" data-name="Path 939" d="M388.493,643.707s-7.856,11.808-9.727,21.58c-1.822,9.518,1.206,38.252-1.959,51.573-5.387,4.995-14.672,10.817-18.976,17.519-4.877,7.595-18.973,26.857-18.973,26.857L347,767.325l46.192-42.844,18.7-57.159,6.416-16.715Z" transform="translate(-238.24 -452.456)" fill="#39b54a"/>
      <path id="Path_940" data-name="Path 940" d="M491.189,417.5s-10.4-.662-14.517,3.817,9.129,39.91,9.877,45.61-6.139,17.067-6.139,17.067,28.627,13.394,35.611,8.779c0,0-1.12-45.685-1.868-49.757s-6.984-20.631-8.48-22.26-14.484-3.257-14.484-3.257" transform="translate(-334.576 -293.433)" fill="#f7931e"/>
      <path id="Path_941" data-name="Path 941" d="M530.063,370.319s-.054.306-.151.826c-.463,2.5-2.25,10.781-3.456,13.059-1.459,2.752,4.991,11.53,11.2,10.459,1.848-.319-1.562-8.065-1.4-8.886.314-1.571.739-3.714,1.174-5.91.246-1.24.494-2.5.728-3.677.664-3.357,1.206-6.1,1.206-6.1Z" transform="translate(-369.988 -260.131)" fill="#f7a491"/>
      <path id="Path_942" data-name="Path 942" d="M537.922,371.144c.1-.521.151-.826.151-.826l9.3-.232s-.542,2.746-1.206,6.1c-.232,1.174-.479,2.424-.724,3.656A8.715,8.715,0,0,1,541,377.621a11.714,11.714,0,0,1-3.365-5c.115-.587.211-1.093.282-1.48" transform="translate(-377.997 -260.13)" fill="#f15a24"/>
      <path id="Path_943" data-name="Path 943" d="M536.036,299.744a8.391,8.391,0,0,0-7.133,3.044c-2.748,3.549-5.71,14.526,1.117,20.494s13.573-.788,14.573-7.95,1.389-15.846-8.557-15.588" transform="translate(-369.7 -210.67)" fill="#f7a491"/>
      <path id="Path_944" data-name="Path 944" d="M586.942,342.653c-.815,1.582-2.183,2.458-3.055,1.957s-.919-2.19-.1-3.772,2.183-2.458,3.055-1.956.919,2.19.1,3.772" transform="translate(-410.029 -238.097)" fill="#f7a491"/>
      <path id="Path_945" data-name="Path 945" d="M526.818,295.59s-5.858,10.438-10.048,10.921-4.741,6.029-4.741,6.029,1.5-12.781,5.647-15.246a15.429,15.429,0,0,1,9.142-1.7" transform="translate(-359.991 -207.69)" fill="#0f1216"/>
      <path id="Path_946" data-name="Path 946" d="M521.317,334.47c.34,1.853-.345,3.553-1.531,3.8s-2.424-1.062-2.765-2.916.344-3.554,1.531-3.8,2.424,1.062,2.765,2.916" transform="translate(-363.439 -233.026)" fill="#f7a491"/>
      <path id="Path_947" data-name="Path 947" d="M438.84,359.252s14.684,15.767,16.867,22.122-2.128,15.445-8.082,15.842-19.2-27.986-19.2-27.986Z" transform="translate(-301.209 -252.515)" fill="#f7931e"/>
      <path id="Path_948" data-name="Path 948" d="M437.9.747c14.854,2.768,25.519,12.413,23.82,21.544-.85,4.565-4.629,8.137-10.054,10.222L455.19,47.1,444.45,34.269a41.636,41.636,0,0,1-12.7-.458c-14.855-2.768-25.519-12.413-23.82-21.544S423.045-2.021,437.9.747" transform="translate(-286.674 0.001)" fill="#fae0b2"/>
      <path id="Path_949" data-name="Path 949" d="M489.271,37.694A9.535,9.535,0,1,1,484.8,24.962a9.531,9.531,0,0,1,4.466,12.732" transform="translate(-331.244 -16.883)" fill="#f7cc7f"/>
      <path id="Path_950" data-name="Path 950" d="M484.387,53.293a5.1,5.1,0,1,0,9.19,4.417Z" transform="translate(-340.203 -37.459)" fill="#efefef"/>
      <path id="Path_951" data-name="Path 951" d="M1010.643,810.666l-1.041,3.794,6.36,2.009.212-1.581Zm.3,3.5.595-1.711,3.731,2.753Z" transform="translate(-709.818 -569.81)" fill="#355389"/>
      <path id="Path_952" data-name="Path 952" d="M1050.652,744.76l-2.064-9.305-12.38,7.689,7.083,5.708s2.231-5.8,7.362-4.092" transform="translate(-728.524 -516.945)" fill="#f15a24"/>
      <path id="Path_953" data-name="Path 953" d="M678.88,883.334s-14.294,6.391-30.109,14.3-19.617,7.151-21.9,4.869-2.433-7.38-2.433-7.38a15.817,15.817,0,0,0-1.825,12.325c1.9,6.923,7.375,7,7.375,7l3.954-2.358-2.585,4.641s5.588,2.929,10.8-2.282,6.311-8.521,6.311-8.521-2.053,8.064-4.106,10.118c0,0,5.779,2.587,9.2-2.054a35.018,35.018,0,0,0,4.943-10.575L657.21,914.3s5.322-2.054,8.212-10.5l-1.521,7.988a54.894,54.894,0,0,0,7.549-15.743c2.183-8.3,6.745-9.211,6.745-9.211Z" transform="translate(-437.36 -620.888)" fill="#c64922"/>
      <path id="Path_954" data-name="Path 954" d="M837.768,1026.86a.4.4,0,0,0,.068-.489,8.907,8.907,0,0,0-7.1-5.859s-7.037-6.1-7.9-9.068c-.909-3.128,3.7-8.8,6.563-10.362,11.766-6.406,11.245-23.89,11.245-23.89l-6.15.371-13.382,2.13-7,17.752-.73,11.4,10.644,18.013Z" transform="translate(-571.863 -686.86)" fill="#c64922"/>
      <path id="Path_955" data-name="Path 955" d="M1078.4,940.236s15.976,24.021,19.465,29.234a16.571,16.571,0,0,1,2.433,8.2s-.681,7.307-2.126,8.753a2.3,2.3,0,0,1-1.061.506,4.94,4.94,0,0,1-5.888-6.176,20.8,20.8,0,0,0,.862-3.843c0-1.674-.76-1.826-.76-1.826L1073.69,964.9,1067.911,948Z" transform="translate(-750.813 -660.884)" fill="#c64922"/>
      <path id="Path_956" data-name="Path 956" d="M1010.008,998.9h13.609a17.422,17.422,0,0,0-1.13-2.236c-1.672-2.891-7.3-4.261-7.3-4.261l-1.369-25.99,2.889-22.853s-5.475-6.847-11.862-6.086-8.211,10.311-8.211,12.441,2.889,18.257,2.889,21.148c0,2.532,8.4,22.833,10.484,27.836" transform="translate(-700.701 -658.904)" fill="#f15a24"/>
      <path id="Path_957" data-name="Path 957" d="M745.815,856.757h13.77c-.381-2.373-1.772-7.633-6.7-9.265-6.438-2.13-5.525-15.875-5.525-15.875s18.4,2.536,27.525-9.434c7.026-9.218,6.357-11.7,5.678-12.351,3.368,1.871,26.884,14.608,38.726,12.351,12.773-2.435,16.829-10.144,16.829-10.144l-.862,5.579s8.592-3.119,7.756-10.119a3.6,3.6,0,0,1,1.292,2.891s3.726-4.793,3.726-20.008c0-8.489-.3-30-.3-30s15.274-2.8,17.26-4.789c1.348-1.349,3.113-11.2,3.113-11.2l-17.179-3.484-3.447-4.666s-11.354-3.246-16.221,1.623a14.319,14.319,0,0,0-3.992,6.793,41.206,41.206,0,0,0-.4,7.528,17.567,17.567,0,0,1-1.865,8.087c-2.241,3.417-11.5,10.58-15.188,11.479l2.6-.338a37.277,37.277,0,0,1-9.1,3.348c-15.989,2.512-40.092,2.973-45.456,4.506-6.387,1.826-10.265,20.693-8.516,30.2s-11.258,5.7-14.4,11.843c-2.962,5.8,8.432,32.494,8.432,32.494s1.4,1.707,2.446,2.943" transform="translate(-516.364 -516.758)" fill="#f15a24"/>
      <path id="Path_958" data-name="Path 958" d="M1036.209,742.231s3.084,6.686,6.277,7.7,6.1-15.39,6.1-15.39a8.084,8.084,0,0,0-8.309,2.109,45.734,45.734,0,0,0-4.071,5.58" transform="translate(-728.524 -516.032)" fill="#c64922"/>
      <path id="Path_959" data-name="Path 959" d="M1042.355,889.086c-3.814,4.424-.316.366-2.93,3.408-.541-5.368,1.151-12.065,2.547-17.375-2.376,2.551-5.543,7.629-7.038,9.793,2.694-4.649,2.015-13.627,1.483-18.9-.015.018-3.11,3.68-4.379,5.2-.249-2.392-.659-7.68.156-10,.835-2.377,3.266-5.163,5.078-6.9-2.032,1.687-4.551,4.3-5.534,6.728-1.353,3.341-.378,11.641-.35,12.237,4.523-5.128,1.437-1.636,4.271-4.868.3,4.449.734,13.691-1.33,17.376,2.433-1.54,4.732-4.871,6.131-7.413-3.651,9.437-1.286,14.968-1.28,15.115l3.086-4.006a16.03,16.03,0,0,1,.52,2.417c0-.222-.29-2.121-.431-2.811" transform="translate(-724.877 -600.488)" fill="#c64922"/>
      <path id="Path_960" data-name="Path 960" d="M1030.748,816.677l-2.069,4.343s1.973,14.7,26.112,13.067l.792-6.229s-22.01-.766-24.835-11.182" transform="translate(-723.23 -574.035)" fill="#184655"/>
      <rect id="Rectangle_68" data-name="Rectangle 68" width="1.767" height="78.763" transform="matrix(0.432, -0.902, 0.902, 0.432, 229.933, 210.486)" fill="#184655"/>
      <path id="Path_961" data-name="Path 961" d="M717.831,692.237l-1.936-1.992-11.062-4.035-12.507,6.027,14.561,14.742,1.054-3.582-9.146-9.077,7.264-4.762,1.081.63,3.775,2.2Z" transform="translate(-486.751 -482.331)" fill="#fae0b2"/>
      <path id="Path_962" data-name="Path 962" d="M754.014,709.865A10.261,10.261,0,1,1,743.753,699.6a10.264,10.264,0,0,1,10.261,10.267" transform="translate(-515.694 -491.741)" fill="#f7cc7f"/>
      <path id="Path_963" data-name="Path 963" d="M758.8,720.317a5.662,5.662,0,1,1-5.662-5.666,5.664,5.664,0,0,1,5.662,5.666" transform="translate(-525.526 -502.322)" fill="#fae0b2"/>
      <path id="Path_964" data-name="Path 964" d="M718.329,674.573s3.172,5.913,2.844,7.027c-.178.6-5.183,4.133-8.1,4.133s.549-6.277,1.172-5.654.223,2.027.223,2.027.53-4.324,1.227-5.022.963.781.963.781-1.045-3.683,0-4.018a1.516,1.516,0,0,1,1.668.725" transform="translate(-500.531 -473.596)" fill="#f79c8d"/>
    </g>
  </g>
</svg>
