<svg xmlns="http://www.w3.org/2000/svg" xmlns:xlink="http://www.w3.org/1999/xlink" width="480" height="323" viewBox="0 0 480 323">
  <defs>
    <clipPath id="clip-path">
      <rect id="Rectangle_66" data-name="Rectangle 66" width="480" height="323" fill="none"/>
    </clipPath>
    <clipPath id="clip-path-2">
      <rect id="Rectangle_61" data-name="Rectangle 61" width="9.07" height="38.057" fill="none"/>
    </clipPath>
    <clipPath id="clip-path-3">
      <rect id="Rectangle_62" data-name="Rectangle 62" width="40.603" height="92.866" fill="none"/>
    </clipPath>
    <clipPath id="clip-path-4">
      <rect id="Rectangle_65" data-name="Rectangle 65" width="58.683" height="58.151" fill="none"/>
    </clipPath>
  </defs>
  <g id="Group_109" data-name="Group 109" transform="translate(0 0)">
    <g id="Group_113" data-name="Group 113" transform="translate(0 0)">
      <g id="Group_107" data-name="Group 107">
        <g id="Group_106" data-name="Group 106" clip-path="url(#clip-path)">
          <path id="Path_816" data-name="Path 816" d="M331.675,1477.505c-1.273-2-5.1-7.191-10.2-6.5-5.557.748,6.138,4.415,9.718,6.519a5.925,5.925,0,0,1-1.981-.232c-2.394-.854-6.493.784-7.8,1.358h22.788a3.615,3.615,0,0,0-1.63-2.085,4.067,4.067,0,0,0-2.1-.187c1.355-1.6,2.3-6.7-1.476-5.39-2.755.96-2.748,4.079-2.477,5.925-.586.092-1.181.185-1.768.269-1.135-5.786-5.148-22.742-13.281-23.194-8.245-.458,6.992,17.586,12.066,23.356-.65.078-1.276.137-1.855.164" transform="translate(-253.734 -1156.087)" fill="#82b378"/>
          <path id="Path_817" data-name="Path 817" d="M678.259,265.547c-.116-.639-1.618-7.49-12.208-6.321,0,0,5.272-.134,6.5,2.015,0,0-3.937-2.3-6.68-.981s-3.7,6.606-3.476,8.265,2.595,6.769,4.484,6.958a5.616,5.616,0,0,0,2.209-.318,25.021,25.021,0,0,0-1.049,2.734c-2.952,9.248,2.609,17.059,6.033,15.609,2.2-.93,3.408,2.875,3.408,2.875l19.576-21.19s-10.594-15.686-18.8-9.647" transform="translate(-526.74 -206.01)" fill="#0f1216"/>
          <path id="Path_818" data-name="Path 818" d="M712.513,961.783l-4.761,1.774s-20.679-28.7-23.225-53.948a38.372,38.372,0,0,1,.68-12.908s-.2-1.155-.556-3.2c-.163-.953-.365-2.1-.6-3.415-.672-3.854-1.6-9.128-2.654-15.133-2.433-13.818-5.586-31.484-8.034-44.47l1.283-.412,13.88-4.481,2.869-9.117,10.335-2.722s2.309,4.519,4.373,25.868c.381,2.8.727,5.889.987,9.237a182.914,182.914,0,0,1-.983,37.4q-.711,5.565-1.815,11.477a51.229,51.229,0,0,0-.4,11.334c1.042,20.641,8.613,52.718,8.613,52.718" transform="translate(-535.492 -647.032)" fill="#0f1216"/>
          <path id="Path_819" data-name="Path 819" d="M707.094,848.858,684.651,893.5c-.163-.953-.366-2.1-.6-3.415-.672-3.854-1.6-9.128-2.654-15.133-2.433-13.818-5.586-31.484-8.034-44.47l1.283-.412,13.88-4.481,2.869-9.117,10.335-2.722s2.309,4.519,4.373,25.868c.381,2.8.727,5.889.987,9.237" transform="translate(-535.492 -647.032)" fill="#0f1216"/>
          <path id="Path_820" data-name="Path 820" d="M616.656,799.331s-.008.037-.024.106c-.072.294-.29,1.2-.6,2.49-1.492,6.144-5.137,21.059-5.358,21.047-2,13.987-5.01,32.11-8.748,46.039-1.978,7.367-4.156,13.562-6.5,17.353a32.389,32.389,0,0,0-2.6,6.25c-5.4,16.336-12.045,53.314-12.045,53.314l-3.03,1.223s-11.677-33.228-1.559-60.208a51.315,51.315,0,0,1,3.807-8.008,1.56,1.56,0,0,0,.251-.965.034.034,0,0,0,0-.012c-.133-1.122-.46-3.938-.832-7.892-1.032-10.912-2.019-47.785-2.558-56.463a46.337,46.337,0,0,1,.251-8.81,33.026,33.026,0,0,1,3.531-11.507,18.68,18.68,0,0,1,3.543-4.878s23.257,8.778,31.962,6.463Z" transform="translate(-454.926 -626.881)" fill="#0f1216"/>
          <path id="Path_821" data-name="Path 821" d="M636.215,820.468q-.279.2-.6.393c-8.02,4.69-36.157,3.042-38.926,2.866a33.03,33.03,0,0,1,3.531-11.507c12.035,1.069,31.982,3.237,36,6.15.913.662,1.005,1.364,0,2.1" transform="translate(-474.512 -645.813)" fill="#0f1216"/>
          <path id="Path_822" data-name="Path 822" d="M836.577,585.583l-1.412,4.178s-.284-.051-.774-.177c-1.541-.388-5.3-1.285-9.5-2.52-6.339-1.8-13.793-4.319-16.5-6.749-4.134-3.676-10.192-13.743-13.59-23.332a5.762,5.762,0,0,1-.24-.7c-1.758-5.08-2.742-9.983-2.225-13.662a18.643,18.643,0,0,1,1.651-5.71,15.083,15.083,0,0,1,3.57-4.778,2.683,2.683,0,0,1,.605-.514c2.066-1.715,3.659-2.819,3.659-2.819.915-.2,1.987.943,2.759,2.144a31.341,31.341,0,0,1,1.789,4.1c.029.042.058.084.052.119.12.351.233.737.376,1.166a.9.9,0,0,1,.1.274q.365,1.329.71,2.766c2.649,10.295,4.7,25.538,7.791,30.528,1.334,2.146,8.306,7.139,13.883,10.929,4.017,2.7,7.307,4.761,7.307,4.761" transform="translate(-629.987 -420.441)" fill="#ed985f"/>
          <path id="Path_823" data-name="Path 823" d="M704.883,460.8a27.093,27.093,0,0,1-9.583,3.766c-14.692,2.963-19.938-9.539-21.8-18.072a12.539,12.539,0,0,1,4.988-1.381c1.058-.095,2.17-.146,3.091-.166,1.674-1.21,4.261-6.282,5.026-14.249l.681.2,11.415,3.475s-.63,3.644-.986,7.1c-.276,2.7-.38,5.286.115,5.934.892.22,1.427.363,1.427.363a.033.033,0,0,0,.006.011,74.191,74.191,0,0,1,5.62,13.021" transform="translate(-535.597 -342.457)" fill="#ffb27d"/>
          <path id="Path_824" data-name="Path 824" d="M650.635,525.929c-.069.313-.15.619-.242.935-2.578,8.627-4.664,43.118-4.664,43.118,1.862,5.876-45.385,5.385-46.3-.079-2.47-5.576,3.576-15.988,7.071-21.278a13.456,13.456,0,0,0,1.127-2.089,13.293,13.293,0,0,0,1.091-5.8c-.308-7.889-1.676-15.125-2.249-19.563h0c.728-.723,1.436-1.4,2.093-2.033a21.113,21.113,0,0,0,2.5-2.777,4.356,4.356,0,0,0,.975-2.889,14.5,14.5,0,0,0-.385-2.247c-.087-.353-.185-.7-.29-1.054a30.924,30.924,0,0,0-3.187-6.859c3.74-2.186,10.946-2.254,10.946-2.254s.049.394.138,1.037c.352,2.586,1.337,9.215,2.346,10.349,1.261,1.412,21.184,5.51,21.877,3.245.682-2.229-3.432-11.61-3.586-11.965a.032.032,0,0,1-.005-.011c6.7,1.57,9.269,3.331,9.269,3.331-3.46,3.033,3.288,10.617,1.471,18.886" transform="translate(-476.234 -398.401)" fill="#39b54a"/>
          <path id="Path_825" data-name="Path 825" d="M752.246,435.178s-.632,3.641-.985,7.1c-6.5-.837-9.349-7.131-10.431-10.57Z" transform="translate(-589.141 -343.256)" fill="#ed985f"/>
          <path id="Path_826" data-name="Path 826" d="M749.157,361.856s-15.446-1.29-14.495-10.9-.4-16.252,9.5-15.835,11.452,4.275,11.914,7.561-2.878,19.265-6.92,19.177" transform="translate(-584.203 -266.445)" fill="#ffb27d"/>
          <path id="Path_827" data-name="Path 827" d="M737.935,329.7c-2.094-3.13-3.959-2.676-5.055-1.908a10.828,10.828,0,0,0-14.082.83,18.45,18.45,0,0,1-7.087,10.246s2.637,2.019,9.283,1a11.066,11.066,0,0,0,5.611-3.1,36.157,36.157,0,0,1-6.949,6.947c8.1-2.8,12.284-13.264,12.707-14.372a12.15,12.15,0,0,1,2.914,4.821c.524,2.525.366,7.6,1.85,7.573,0,0,3.948-7.346.807-12.039" transform="translate(-565.984 -258.852)" fill="#0f1216"/>
          <path id="Path_828" data-name="Path 828" d="M661.238,619.927c-9.127,1.227-18.217-7.121-24.03-14a13.294,13.294,0,0,0,1.091-5.8c-.308-7.889-1.676-15.125-2.249-19.563h0c.728-.723,1.436-1.4,2.093-2.033a21.1,21.1,0,0,0,2.5-2.777c9.293,11.537,32.965,42.515,20.591,44.178" transform="translate(-505.815 -457.79)" fill="#39b54a"/>
          <path id="Path_829" data-name="Path 829" d="M683.347,599.429l1.615,5.483s-4.075-.928-6.629-1.177c-.766-.078-1.206-.147-1.206-.147-2.045-.221-4.5-.55-7.166-.9l-.037,0c-4.581-.687-9.718-1.544-14.078-2.613a37.786,37.786,0,0,1-7.605-2.631,4.185,4.185,0,0,1-.533-.317c-4.465-2.687-10.233-11.233-14.945-20.521-.654-1.282-1.273-2.568-1.886-3.817A98.491,98.491,0,0,1,625.6,559.5a38.6,38.6,0,0,1-1.535-6.416,16.084,16.084,0,0,1-.194-1.83c-.027-.331-.047-.656-.062-.971a16.6,16.6,0,0,1,11.643-4.226c.119.2.235.407.353.615,2.448,4.455,5.121,10.266,7.648,16.054,1.4,3.171,2.756,6.346,4.095,9.27.771,1.779,1.53,3.449,2.242,4.98a49.675,49.675,0,0,0,3.623,6.741,17.433,17.433,0,0,0,4.761,3.6,161.189,161.189,0,0,0,14.98,7.6c2.111.975,4.1,1.852,5.758,2.576,2.671,1.18,4.434,1.932,4.434,1.932" transform="translate(-496.082 -434.163)" fill="#ed985f"/>
          <path id="Path_830" data-name="Path 830" d="M635.849,518.573c-7.076-1.306-12.155,4.509-12.155,4.509-.815-10.406,4.234-12.279,4.234-12.279,2.006-1.043,4.948,2.4,7.92,7.77" transform="translate(-495.919 -406.002)" fill="#39b54a"/>
          <path id="Path_831" data-name="Path 831" d="M592.22,1522.825H568.241a13.182,13.182,0,0,1,.678-6.431c1.2-2.662,3.08-3.872,2.63-7.093a8.634,8.634,0,0,0,7.474,2.861c.424.689,2.742,4.377,4.161,5.4,1.567,1.126,8.555.725,9.037,5.266" transform="translate(-451.786 -1200.077)" fill="#f7931e"/>
          <path id="Path_832" data-name="Path 832" d="M843.2,1527H819.219s-.9-3.827.678-6.431c1.393-2.3.859-3.617-.173-5.523a9.313,9.313,0,0,0,4.039.761,8.442,8.442,0,0,0,3.566-1.255c1.032,1.177,5.451,6.189,6.832,7.182,1.567,1.126,8.555.725,9.037,5.266" transform="translate(-651.277 -1204.253)" fill="#f7931e"/>
          <path id="Path_833" data-name="Path 833" d="M787.626,436.3s.216,1.272,3.346,1.275c0,0,2.627,0,2.634-1.38a8.433,8.433,0,0,0-5.98.105" transform="translate(-626.355 -346.452)" fill="#fff"/>
          <path id="Path_834" data-name="Path 834" d="M808.292,664.024s-11.336-14.687-16.853-19.245c0,0-7.546-18.618-8.159-19.845a.584.584,0,0,0-.11-.149,9.836,9.836,0,0,1-.056-3.42c.331-1.681-.735-5.712-1.468-5.347s-.132,1.775-1.026,1.752-3.1-4.539-4.151-3.911-1.588,2.37-.642,5.769a24.781,24.781,0,0,0,2.969,6.3l-.048.027s2.772,18.1,5.694,23.463,11.987,23.371,18.384,24.039,5.464-9.435,5.464-9.435" transform="translate(-616.583 -488.045)" fill="#ffb27d"/>
          <path id="Path_835" data-name="Path 835" d="M1074.844,634.587c-1.014-.39-2.262,3.9-3.041,4.057s-.468-1.17-1.165-1.378-1.019,3.485-.473,4.907a8.877,8.877,0,0,1,.469,3.112s-4.64,17.93-5.638,19.936-17.351,16.6-17.351,16.6l3.6,11.625s19.262-17.809,20.9-22,2.385-25.689,2.385-25.689a22.352,22.352,0,0,0,1.752-6.22c.312-3.121-.426-4.565-1.439-4.955" transform="translate(-833.134 -504.554)" fill="#ffb27d"/>
          <path id="Path_836" data-name="Path 836" d="M986.217,783.949l-7.739,10.131-7.12-12.008a26.156,26.156,0,0,0,2.272-7.784,32.488,32.488,0,0,0,.255-7.019l10.008,5.127a19,19,0,0,0-.4,2.293,16.678,16.678,0,0,0,.173,5.358,6.712,6.712,0,0,0,2.55,3.9" transform="translate(-772.467 -610.072)" fill="#ffb27d"/>
          <path id="Path_837" data-name="Path 837" d="M1066.87,1529.9a6.527,6.527,0,0,0,4.118,3.119,7.1,7.1,0,0,1,4.27,2.625,1.666,1.666,0,0,1-1.339,2.654h-14.4a2.071,2.071,0,0,1-2.061-2.28c.107-1.068.219-2.31.268-3.264.106-2.081,2.189-3.757,2.189-3.757Z" transform="translate(-840.929 -1215.739)" fill="#d3671e"/>
          <path id="Path_838" data-name="Path 838" d="M997.506,1200.213s-3.455,2.043-9.3.81c0,0-9.939-25.43-10.527-37.4q-.04-.721-.027-1.374c.2-11.255-10.186-40.564-7.384-46.569s25.437,2.7,25.437,2.7l.45,20.423Z" transform="translate(-771.218 -885.422)" fill="#0f1216"/>
          <path id="Path_839" data-name="Path 839" d="M996.154,1138.805l-18.476,24.821q-.04-.721-.027-1.374c.2-11.255-10.186-40.564-7.385-46.569s25.437,2.7,25.437,2.7Z" transform="translate(-771.218 -885.423)" fill="#0f1216"/>
          <path id="Path_840" data-name="Path 840" d="M885.275,1529.9a6.528,6.528,0,0,0,4.118,3.119,7.1,7.1,0,0,1,4.27,2.625,1.666,1.666,0,0,1-1.338,2.654h-14.4a2.071,2.071,0,0,1-2.061-2.28c.107-1.068.22-2.31.268-3.264.106-2.081,2.19-3.757,2.19-3.757Z" transform="translate(-696.516 -1215.739)" fill="#d3671e"/>
          <path id="Path_841" data-name="Path 841" d="M905.519,1112.022s-20,74.7-20.618,82.01c0,0-3.9,2-10.237-1.535,0,0-3.678-33.481,0-42.63s-.73-36.805,8.625-43.043,22.229,5.2,22.229,5.2" transform="translate(-694.272 -878.579)" fill="#0f1216"/>
          <path id="Path_842" data-name="Path 842" d="M913,826.179a17.336,17.336,0,0,0-3.648-13.365l-7.407,5.272a3.63,3.63,0,0,0-2.043.606,21.014,21.014,0,0,0-4.648,0c.054,1.767-.649,3.379-3.748,3.785-4.123.537-7.809-2.277-9.675-4.191a15.639,15.639,0,0,0-5.63.8,8.4,8.4,0,0,0-3.133-.824l-6.063-5.453s-7.1,2.052-8.223,12.763c0,0,7.974,6.072,8.55,10.869l.218,1.818.773,6.442,1.36,11.3-4.049,22.5a3.371,3.371,0,0,0-.054.588,3.317,3.317,0,0,0,2.539,3.221s.348.058.989.147c4.293.6,21.72,2.683,35.383-1.028a6.638,6.638,0,0,0,4.841-6.948l-2.891-36.3s.274-5.8.342-6.827S913,826.179,913,826.179" transform="translate(-682.944 -646.286)" fill="#f7931e"/>
          <g id="Group_99" data-name="Group 99" transform="translate(182.639 198.118)" opacity="0.4">
            <g id="Group_98" data-name="Group 98">
              <g id="Group_97" data-name="Group 97" clip-path="url(#clip-path-2)">
                <path id="Path_843" data-name="Path 843" d="M901.042,988.07c-.271,7.849-1.039,14.5-5.53,16.989-.641-.089-.989-.147-.989-.147a3.316,3.316,0,0,1-2.539-3.221,3.388,3.388,0,0,1,.054-.588l4.049-22.5-1.36-11.3.1-.3s6.557,11.015,6.213,21.067" transform="translate(-891.985 -967.003)" fill="#d86713"/>
              </g>
            </g>
          </g>
          <path id="Path_844" data-name="Path 844" d="M992.493,807.285c-5.691-.152-10.037-5.759-10.037-5.759l9.863.4a16.677,16.677,0,0,0,.173,5.358" transform="translate(-781.293 -637.31)" fill="#ea9c68"/>
          <path id="Path_845" data-name="Path 845" d="M979.145,722.778s-11.351,3-15.267-6.033c-4.226-9.747.41-16.849,4.265-17.328,7.687-.955,12.152,1.978,13.5,5.078s3.763,16.685-2.5,18.283" transform="translate(-765.185 -555.975)" fill="#ffb27d"/>
          <path id="Path_846" data-name="Path 846" d="M1022.978,783.745s.475,1.172,3.469.514c0,0,2.514-.552,2.229-1.876a8.261,8.261,0,0,0-5.7,1.362" transform="translate(-813.518 -622.027)" fill="#fff"/>
          <path id="Path_847" data-name="Path 847" d="M935.432,660.823a14.293,14.293,0,0,0-6.691,4.147,7.464,7.464,0,0,1-.158-1.288,3.636,3.636,0,0,0-.3,1.858l-.049.069a2.517,2.517,0,0,0-1.949,1.126,2.383,2.383,0,0,1,1.423-.34c-4,6.611.063,16.481,9.548,22.171,0,0-1.332-3.909-1.172-6,0,0-2.962-3.78-1.236-4.715s2.657,1.3,3.053.862,1.013-7.866,3.109-7.631,9.851,2.639,13.25-.294-4.848-14.395-18.825-9.968" transform="translate(-736.534 -524.636)" fill="#0f1216"/>
          <path id="Path_848" data-name="Path 848" d="M2037.541,1452.693s4.9,4.548,3.947,7.779-5.382,5.386-5.98,9.335-2.99,6.1-5.143,6.1H2020.1s-1.584-2.779,2.243-3.617,5.271-5.479,5.032-9.787a77.115,77.115,0,0,1,.359-10.053l8.133-1.915Z" transform="translate(-1606.216 -1153.354)" fill="#0f1216"/>
          <path id="Path_849" data-name="Path 849" d="M1700.1,1516.68a2.38,2.38,0,0,1-.578.168H1672.31c.219-.955,1.069-2.866,4.348-3.4,4.287-.695,11.718-3.187,13.375-8.677q.08-.264.141-.54c1.316-5.864,10.883,1.8,10.883,1.8s.028.233.069.63c.223,2.149.793,9.111-1.026,10.02" transform="translate(-1329.896 -1194.29)" fill="#0f1216"/>
          <path id="Path_850" data-name="Path 850" d="M1699.106,798.217s1.453,18.142,3.161,39.951c2.321,29.625,5.113,66.014,5.39,72.907.477,11.97,2.393,31.118,2.393,31.118s4.543,4.549,13.635,2.632c0,0,8.1-27.334,10.416-56.255.036-.474.072-.952.108-1.429,2.153-29.442,5.5-91.437,5.5-91.437Z" transform="translate(-1351.205 -632.681)" fill="#f15a24"/>
          <g id="Group_102" data-name="Group 102" transform="translate(347.902 163.023)" opacity="0.4">
            <g id="Group_101" data-name="Group 101">
              <g id="Group_100" data-name="Group 100" clip-path="url(#clip-path-3)">
                <path id="Path_851" data-name="Path 851" d="M1699.106,798.217s1.453,18.142,3.161,39.951l31.835,50.4c.036-.474.072-.952.108-1.429,2.153-29.442,5.5-91.437,5.5-91.437Z" transform="translate(-1699.107 -795.704)" fill="#d86713"/>
              </g>
            </g>
          </g>
          <path id="Path_852" data-name="Path 852" d="M1731.517,772.5s26.194,65.7,43.418,96.582,22.606,39.495,22.606,39.495,9.868-3.949,10.765-6.642c0,0-6.586-59.611-18.121-74.142-6.517-8.211-14.173-32.852-14.532-41.469s-2.333-25.672-2.333-25.672Z" transform="translate(-1376.98 -604.814)" fill="#f15a24"/>
          <path id="Path_853" data-name="Path 853" d="M1288.428,697.561l-4.644.886a10.162,10.162,0,0,0-11.9,7.121s-1.037,3.89,1.865,3.684,1.758-.546,5.855-.747,7.736-2.271,8.7-5.118l2.27-2.518Z" transform="translate(-1011.319 -554.645)" fill="#ffb27d"/>
          <path id="Path_854" data-name="Path 854" d="M1333.844,475.923c-1.429-3.089-1.259-3.632-1.259-3.632s26.55-19.172,28.961-21.079,27.837-37.18,27.837-37.18l31.314,4.389s-42.144,41.752-48.349,46.464c-10.254,7.788-35.444,14.721-35.444,14.721a9.481,9.481,0,0,1-3.06-3.683" transform="translate(-1059.726 -329.206)" fill="#0f1216"/>
          <path id="Path_855" data-name="Path 855" d="M1578.9,258.562s-10.687,18.816-21.134,21.272c0,0,.435-6.32,2.979-10.644-1.042-1.229-1.956-2.359-2.749-3.369a63.165,63.165,0,0,1-3.88-5.436l3.546-9.537,2.406-6.471a31.16,31.16,0,0,0,3.759,5.42,25.567,25.567,0,0,0,15.074,8.765" transform="translate(-1235.905 -194.31)" fill="#ffb27d"/>
          <path id="Path_856" data-name="Path 856" d="M1563.829,270.819s1.276,9.429-5.83,16.024a63.2,63.2,0,0,1-3.88-5.436l3.546-9.537a20.256,20.256,0,0,1,6.164-1.051" transform="translate(-1235.905 -215.332)" fill="#ed975d"/>
          <path id="Path_857" data-name="Path 857" d="M1487.88,209.692s15.968-6.229,11.939-16.12-4.683-17.356-15.049-13.8-10.8,8.136-10.255,11.765,9.107,19.517,13.365,18.152" transform="translate(-1172.482 -142.226)" fill="#ffb27d"/>
          <path id="Path_858" data-name="Path 858" d="M1643.857,399.976c-6.443,9.267-54.605,21.649-54.034,15.234a69.739,69.739,0,0,0-.006-12.652q-.181-2.062-.512-4.371a100.826,100.826,0,0,0-10.612-31.811q-.729-1.411-1.517-2.847a98.132,98.132,0,0,1-6.678-15.012c-3.337-9.65-4.681-18.881-3-24.917a.847.847,0,0,1,.026-.085c10.068-4.658,13.969-22.723,13.969-22.723s34.349,6.17,53.587,51.981c0,0,14.38,39.136,8.776,47.2" transform="translate(-1245.968 -239.167)" fill="#0f1216"/>
          <path id="Path_859" data-name="Path 859" d="M1636.109,553.187q-.181-2.061-.513-4.371a100.829,100.829,0,0,0-10.612-31.811c1.112-6.751,2.649-12.365,4.336-14.892,6.851-10.273,10.84-11.879,10.84-11.879s10.273,43.35-4.052,62.952" transform="translate(-1292.26 -389.796)" fill="#0f1216"/>
          <path id="Path_860" data-name="Path 860" d="M1478.994,146.452c.112-.221.437-.457,1.23-.7a3.322,3.322,0,0,0-1.608-.06c-.448-1.095-1.537-2.959-3.582-2.973a2.518,2.518,0,0,1,1.6,1.48c-2.8-1.777-7.993-2.292-20.954,2.027-17.082,5.693-8.547,15.615-5.958,16.411s7.355-4.31,11.642-5.007,6.606,5.278,8.24,5.773.705-.864,2.416-2.226,2.694,1.842,2.657,4.091,3.3,4.382,3.3,4.382l1.957-3.592c1.957-3.592,1.425-16.632-.445-18.979-.165-.207-.33-.418-.5-.629" transform="translate(-1149.366 -113.479)" fill="#0f1216"/>
          <path id="Path_861" data-name="Path 861" d="M1402.725,476.141s0-6.053-3.68-9.135a32.181,32.181,0,0,0-4.545-3.071c-1.651-.946-1.927-.346-1.692,1.548.184,1.473-.175,3.4.093,4.38.829,3.049,1.108,5.262,4.349,6.6a5.762,5.762,0,0,0,5.475-.32" transform="translate(-1107.566 -368.534)" fill="#f15a24"/>
          <path id="Path_862" data-name="Path 862" d="M1334.337,534.661s-3.151.34-3.059,1.169,8.636-.645,8.543-1.173-4.364-.123-5.484,0" transform="translate(-1058.691 -424.907)" fill="#e57970"/>
          <path id="Path_863" data-name="Path 863" d="M1322.213,502.206s-.587-6.559-8.543-9.751c-4.138-1.66-18.4-6.759-13.457-12.3a9.5,9.5,0,0,0,2.46-7.984c-.047-.309-.1-.605-.17-.884l0,0a10.052,10.052,0,0,0-1.036-2.7,2.07,2.07,0,0,0-.156-.28,6.151,6.151,0,0,0-.051-3.505c-.483-1.69-2.151-3.021-3.341-4.352-1.267-1.42-1.719-.939-2.094.933-.278,1.384-1.147,3-1.281,4.028a21.721,21.721,0,0,0-3.294.109.031.031,0,0,0-.012,0c-.4.039-.813.092-1.244.155-4.229.628-4.589,2.619-6.516,2.646-1.759.023-4-.018-4.381-.027h-.053s-2.554-.55-2.295,1.72c.029.243.055.474.082.693.19,1.587.376,2.527,1.024,3.109a8.673,8.673,0,0,0,3.685.974c1.048.074,3.509.119,3.644.154.37.1-1.363,1.056-6.587,1.137-.094,0-.189.006-.284.008a.486.486,0,0,0-.475.453,1.967,1.967,0,0,0,.831,1.759c1.218.93,5.877.759,5.243,2.069a2.348,2.348,0,0,1-.732.789h0c-1.249.943-3.521,1.85-4.14,3.717a6.686,6.686,0,0,1,2.875-.591s-3.909,1.4-3.976,3.4a2.188,2.188,0,0,1,1.43-.434,10.549,10.549,0,0,0-2.719,7.729v0c-1.907,2.62-4.815,6.159-6.992,6.768a8.276,8.276,0,0,0-2.746-1.076,2.888,2.888,0,0,0-2.164,2.4c0,1.031,5.016,1.305,5.626,1.107s13.586-.2,15.009-1.11h0Z" transform="translate(-1005.781 -365.452)" fill="#f7931e"/>
          <rect id="Rectangle_63" data-name="Rectangle 63" width="56.812" height="50.415" transform="matrix(0.989, -0.145, 0.145, 0.989, 258.93, 137.752)" fill="#d3671e"/>
          <rect id="Rectangle_64" data-name="Rectangle 64" width="56.812" height="50.415" transform="translate(287.038 133.631) rotate(-8.337)" fill="#cc7c40"/>
          <g id="Group_105" data-name="Group 105" transform="translate(287.038 125.367)" opacity="0.4">
            <g id="Group_104" data-name="Group 104">
              <g id="Group_103" data-name="Group 103" clip-path="url(#clip-path-4)">
                <path id="Path_864" data-name="Path 864" d="M1401.858,620.172l56.36-8.264,2.323,15.861-51.377,42.29Z" transform="translate(-1401.859 -611.907)" fill="#d86713"/>
              </g>
            </g>
          </g>
          <path id="Path_865" data-name="Path 865" d="M1288.745,831.062l8.908-1.306-1.18-2.583.5-2.043-8.908,1.306Z" transform="translate(-1024.33 -656.079)" fill="#f7931e"/>
          <path id="Path_866" data-name="Path 866" d="M1293.644,657.884l-9.982,14.49-16.225,2.379-2.694-18.393,28.075-4.117Z" transform="translate(-1005.781 -518.613)" fill="#c95c12"/>
          <path id="Path_867" data-name="Path 867" d="M1222.961,656.365l-10.716,14.979,28.125-4.124,10.7-14.977Z" transform="translate(-964.032 -518.613)" fill="#cc7c40"/>
          <path id="Path_868" data-name="Path 868" d="M1401.858,620.254l13.046,11.495,55.472-8.134-12.3-11.6Z" transform="translate(-1114.82 -486.623)" fill="#cc7c40"/>
          <path id="Path_869" data-name="Path 869" d="M1325.642,501.705c-.266.789-.932,2.241-2.266,2.412-.027-.219-.053-.45-.082-.693-.26-2.27,2.295-1.72,2.295-1.72Z" transform="translate(-1052.328 -398.87)" fill="#1d3972"/>
          <path id="Path_870" data-name="Path 870" d="M1318.632,643.734a27.745,27.745,0,0,1,11.563-5.043c6.493-1.016,16.4.943,16.4.943Z" transform="translate(-1048.635 -507.604)" fill="#f15a24"/>
          <path id="Path_871" data-name="Path 871" d="M1414.016,537.725c-14.864-.043-28.319-11.556-21.065-11.965s9.9-9.209,9.9-9.209l0,0c.065.278.123.575.17.884a9.5,9.5,0,0,1-2.46,7.984c-4.939,5.545,9.32,10.644,13.458,12.3" transform="translate(-1106.127 -410.722)" fill="#f15a24"/>
          <path id="Path_872" data-name="Path 872" d="M1519.818,590.461s1.969-7.162-5.737-5.985c0,0,1.124-2.862,5.108-2.862a2.909,2.909,0,0,0-1.022-1.227s4.853-.92,6.845,2.658c0,0,.562-2.294,0-3.32,0,0,5.21,1.382,4.5,6.593a3.32,3.32,0,0,0,1.28-2.1,4.426,4.426,0,0,1-.22,4.668Z" transform="translate(-1204.065 -460.952)" fill="#f7931e"/>
          <path id="Path_873" data-name="Path 873" d="M1413.788,472.395a5.5,5.5,0,0,1,.545-1.738c.511-1.125.443-3,.681-2.965s2.486,4.565,1.056,5.928c0,0-1.26.444-2.282-1.226" transform="translate(-1124.307 -371.872)" fill="#f15a24"/>
          <path id="Path_874" data-name="Path 874" d="M1322.723,577.561a10.548,10.548,0,0,1,2.72-7.729,2.187,2.187,0,0,0-1.43.434c.068-2,3.976-3.4,3.976-3.4a6.69,6.69,0,0,0-2.875.591c.619-1.867,2.891-2.774,4.14-3.717h0c.078-.029,2.186-.793,2.89.462.715,1.278-9.547,8.377-9.422,13.363" transform="translate(-1051.859 -448.035)" fill="#f7931e"/>
          <path id="Path_875" data-name="Path 875" d="M1343.784,749.161s-5.994-.312-7.32,0-5.693,3.043-5.693,3.433.273.663,1.092.585,3.43-.858,3.314-.507-7.549,3.121-7.381,4.682,4.847,3.745,8.434,3.355,9.988-5.477,10.492-5.82-2.937-5.727-2.937-5.727" transform="translate(-1055.921 -595.563)" fill="#ffb27d"/>
          <path id="Path_876" data-name="Path 876" d="M1402.213,430.8c-1.9-3.077-.531-4.48-.531-4.48s29.352-23,31.653-25.319,12.958-39.314,12.958-39.314,3.668-14.971,12.257-16.621c7.465-1.435,12.624,2.261,16,6.593a15.935,15.935,0,0,1,1.079,17.912c-7.495,12.636-22.612,37.718-27.027,42-9.826,9.537-42.7,22.866-42.7,22.866a11.391,11.391,0,0,1-3.688-3.638" transform="translate(-1114.3 -274.122)" fill="#0f1216"/>
          <path id="Path_877" data-name="Path 877" d="M1516.6,297.438s.8,1.453,3.63.363c0,0,2.372-.914,1.716-2.578a6.287,6.287,0,0,0-5.346,2.215" transform="translate(-1206.066 -234.709)" fill="#fff"/>
          <path id="Path_878" data-name="Path 878" d="M1345.546,1448.289h-29.257c-1.568-1.331,1.085-4.353,3.857-4.556a17.073,17.073,0,0,1,4.466.528c.4-5.35,2.7-29.4,11.367-28.438,9.743,1.082,0,10.593-2.754,16.224a133.9,133.9,0,0,0-5.176,12.974c.791.171,1.61.34,2.446.494,1.291-3.968,6.1-17.312,12.207-16.535,7.174.911,4.291,6.261-.794,9.437-3.731,2.336-8.312,5.656-10.489,7.259a31.059,31.059,0,0,0,5.722.459c5.011-.119,7.458,1.359,8.406,2.154" transform="translate(-1046.4 -1125.729)" fill="#82b378"/>
          <path id="Path_879" data-name="Path 879" d="M911.174,806.652s7.813,1.518,8.515,2.376,3.1,5.54,3.11,6.632-4.095,1.354-5.888-.858-3.764-1.229-5.737-4.009,0-4.142,0-4.142" transform="translate(-723.909 -641.386)" fill="#ed985f"/>
        </g>
      </g>
    </g>
  </g>
</svg>
