<svg xmlns="http://www.w3.org/2000/svg" xmlns:xlink="http://www.w3.org/1999/xlink" width="200" height="200" viewBox="0 0 200 200">
  <defs>
    <clipPath id="clip-path">
      <rect id="Rectangle_34" data-name="Rectangle 34" width="178.165" height="161.686" fill="none"/>
    </clipPath>
    <clipPath id="clip-path-3">
      <rect id="Rectangle_31" data-name="Rectangle 31" width="10.199" height="13.524" transform="translate(67.732 50.034)" fill="none"/>
    </clipPath>
    <clipPath id="clip-path-4">
      <rect id="Rectangle_32" data-name="Rectangle 32" width="14.211" height="45.752" transform="translate(151.439 91.875)" fill="none"/>
    </clipPath>
  </defs>
  <g id="Group_233" data-name="Group 233" transform="translate(-1300 -1177)">
    <circle id="Ellipse_7" data-name="Ellipse 7" cx="100" cy="100" r="100" transform="translate(1300 1177)" fill="#fff1dc"/>
    <g id="Group_59" data-name="Group 59" transform="translate(1311 1215)">
      <g id="Group_58" data-name="Group 58" clip-path="url(#clip-path)">
        <g id="Group_57" data-name="Group 57">
          <g id="Group_56" data-name="Group 56" clip-path="url(#clip-path)">
            <path id="Path_508" data-name="Path 508" d="M178.165,158.174c0-1.94-39.884-3.512-89.083-3.512S0,156.234,0,158.174s39.884,3.512,89.083,3.512,89.083-1.573,89.083-3.512" fill="#f15a24"/>
            <rect id="Rectangle_29" data-name="Rectangle 29" width="4.053" height="38.755" transform="translate(55.961 115.925)" fill="#aac6ce"/>
            <rect id="Rectangle_30" data-name="Rectangle 30" width="4.053" height="5.448" transform="translate(55.961 115.924)" fill="#85b0ba"/>
            <path id="Path_509" data-name="Path 509" d="M75.614,154.693H41.637a2.348,2.348,0,0,0-2.348,2.348v1.209H77.962v-1.209a2.348,2.348,0,0,0-2.348-2.348" fill="#aac6ce"/>
            <path id="Path_510" data-name="Path 510" d="M48.38,115.963H76.464c-10.218-3.67-6.265-38.242-4.376-51.348a4.381,4.381,0,0,0-4.339-5H49.043a7.663,7.663,0,0,0-7.6,6.614c-1.641,11.907-4.228,36.6.9,46.157a6.838,6.838,0,0,0,6.038,3.579" fill="#aac6ce"/>
            <path id="Path_511" data-name="Path 511" d="M52.517,19.686A19.686,19.686,0,1,0,32.831,39.372,19.686,19.686,0,0,0,52.517,19.686" fill="#3e8ccc"/>
            <path id="Path_512" data-name="Path 512" d="M48.9,19.686A16.073,16.073,0,1,0,32.831,35.759,16.074,16.074,0,0,0,48.9,19.686" fill="#cee5ed"/>
            <path id="Path_513" data-name="Path 513" d="M28.265,25.169a1,1,0,0,1-.707-1.707l4.19-4.191V8.257a1,1,0,0,1,2,0V19.685a1,1,0,0,1-.293.707l-4.483,4.484a1,1,0,0,1-.707.293" fill="#3e8ccc"/>
            <path id="Path_514" data-name="Path 514" d="M34.925,19.394a2.3,2.3,0,1,0-2.3,2.3,2.3,2.3,0,0,0,2.3-2.3" fill="#1f2528"/>
            <path id="Path_515" data-name="Path 515" d="M144.922,38.007h-33.6a3.119,3.119,0,0,0-3.119,3.119V56.262a3.12,3.12,0,0,0,3.119,3.12h2.346v3.66a.587.587,0,0,0,.98.435l4.542-4.1h25.728a3.119,3.119,0,0,0,3.119-3.12V41.126a3.118,3.118,0,0,0-3.119-3.119" fill="#f15a24"/>
            <path id="Path_516" data-name="Path 516" d="M121.33,48.924a1.374,1.374,0,1,1-1.374-1.374,1.374,1.374,0,0,1,1.374,1.374" fill="#fff"/>
            <path id="Path_517" data-name="Path 517" d="M129.78,48.924a1.374,1.374,0,1,1-1.374-1.374,1.374,1.374,0,0,1,1.374,1.374" fill="#fff"/>
            <path id="Path_518" data-name="Path 518" d="M137.666,48.924a1.373,1.373,0,1,1-1.374-1.374,1.374,1.374,0,0,1,1.374,1.374" fill="#fff"/>
            <path id="Path_519" data-name="Path 519" d="M34.916,78.675c0-3.705-2.616-7.417-5.844-7.417s-5.844,3.712-5.844,7.417,2.617,6.708,5.844,6.708,5.844-3,5.844-6.708" fill="#39b54a"/>
            <path id="Path_520" data-name="Path 520" d="M29.072,71.257a4.312,4.312,0,0,0-1.5.282c2.5.922,4.344,4.027,4.344,7.135a6.612,6.612,0,0,1-4.344,6.477,5.128,5.128,0,0,0,1.5.231c3.228,0,5.844-3,5.844-6.708s-2.616-7.417-5.844-7.417" fill="#208476"/>
            <path id="Path_521" data-name="Path 521" d="M22.412,83.058l1.047,9.482a2.339,2.339,0,0,0,2.325,2.082h6.045a2.339,2.339,0,0,0,2.325-2.082L35.2,83.058a.871.871,0,0,0-.866-.967H23.278a.871.871,0,0,0-.866.967" fill="#cee5ed"/>
            <path id="Path_522" data-name="Path 522" d="M23.278,83.507H34.335a.858.858,0,0,1,.763.486l.1-.936a.872.872,0,0,0-.866-.967H23.278a.872.872,0,0,0-.866.967l.1.936a.856.856,0,0,1,.762-.486" fill="#aac6ce"/>
            <path id="Path_523" data-name="Path 523" d="M34.335,82.091H30.5a.871.871,0,0,1,.865.967L30.32,92.54A2.339,2.339,0,0,1,28,94.622h3.834a2.339,2.339,0,0,0,2.325-2.082L35.2,83.058a.871.871,0,0,0-.866-.967" fill="#aac6ce"/>
            <path id="Path_524" data-name="Path 524" d="M82.76,148.959l-.4,2.74,2.084,2.669,5.289-2.589.573-2.507-6.583-1Z" fill="#f2bf75"/>
            <path id="Path_525" data-name="Path 525" d="M87.029,157.778l.546-.676a.254.254,0,0,1,.391-.005l.549.643a1.143,1.143,0,0,0,.889.4l12.288-.209a.661.661,0,0,0,.021-.929c-1.8-1.817-11.494-4.959-11.976-5.224s-3.446,2.038-7.373-.08a41.583,41.583,0,0,0-.729,5.069,1.4,1.4,0,0,0,1.419,1.481l3.119-.053a1.122,1.122,0,0,0,.856-.418" fill="#1f2528"/>
            <path id="Path_526" data-name="Path 526" d="M60.211,102.651s-5.1,5.64,4.241,11.769c6.554,4.3,11.719,2.986,15.832,5.592a3.463,3.463,0,0,1,1.766,2.661l.209,26.366.5.247a9.059,9.059,0,0,0,7.879.086l3.721-30.083c.133-2.074-.988-3.822-2.272-5.455-7.143-9.088-19.792-12.167-22.994-12.692-4.162-.682-8.879,1.509-8.879,1.509" fill="#1f2528"/>
            <path id="Path_527" data-name="Path 527" d="M62.443,148.956l-.434,2.735,2.049,2.7,5.323-2.516.607-2.5-6.568-1.085Z" fill="#f2bf75"/>
            <path id="Path_528" data-name="Path 528" d="M66.59,157.833l.555-.668a.254.254,0,0,1,.392,0l.539.65a1.147,1.147,0,0,0,.885.414l12.289-.042a.66.66,0,0,0,.033-.928c-1.776-1.842-11.424-5.116-11.9-5.387s-3.475,1.99-7.373-.181a41.63,41.63,0,0,0-.8,5.059,1.4,1.4,0,0,0,1.4,1.5l3.118-.011a1.125,1.125,0,0,0,.862-.406" fill="#1f2528"/>
            <path id="Path_529" data-name="Path 529" d="M44.7,97.734s-6.182,6.89,2.757,14.672c6.271,5.459,11.9,3.125,15.847,6.454a3.676,3.676,0,0,1,1.474,3.05l-2.823,26.82.213.138a8.5,8.5,0,0,0,8.242.562L77.4,121.169c.438-2.161-.489-4.159-1.6-6.06-6.2-10.575-15.942-16.878-19.231-17.89C52.29,95.9,44.7,97.734,44.7,97.734" fill="#1f2528"/>
            <path id="Path_530" data-name="Path 530" d="M78.806,119.257a12.258,12.258,0,0,0-1.44-.5,12.3,12.3,0,0,0-1.57-3.65,48.4,48.4,0,0,0-10.62-12.45c2.24-.38,3.38-.86,4-1.49a42.106,42.106,0,0,1,6.71,1.82c3.04,5.08,3.03,13.33,2.92,16.27" fill="#1f2528"/>
            <path id="Path_531" data-name="Path 531" d="M61.346,61.272S52.43,60.083,48.725,67.03s-9.238,34.181-4.4,35.009c2.142.367,7.854,1.8,14.184,1.341,8.7-.637,10.595-1.438,11.222-3.092l5.544-25.38a10.733,10.733,0,0,0-4.209-8.96,30.216,30.216,0,0,0-9.72-4.676" fill="#cee5ed"/>
            <path id="Path_532" data-name="Path 532" d="M75.241,72.677s.115,15.284,4.92,16.21,17.6.638,17.6.638v4.862H70.319Z" fill="#aac6ce"/>
            <path id="Path_533" data-name="Path 533" d="M68.6,65.744l1.081-5.406L62.666,55,61.323,61.37s2.211,9.73,7.273,4.374" fill="#ea9249"/>
            <path id="Path_534" data-name="Path 534" d="M77.54,50.036s-3.668,1.785-9.042-1.49a12.731,12.731,0,0,1-4.848,4.242S61.778,49.651,60.7,52a4.972,4.972,0,0,0-.495,1.918c-3.374-4.356-1-10.1,2.15-13.19,2.98-2.937,9.432-1.769,13.462-.15,4.278,1.723,5.064-1.273,5.064-1.273,5.406,7.615-3.342,10.729-3.342,10.729" fill="#1f2528"/>
            <path id="Path_535" data-name="Path 535" d="M63.649,52.786S61.777,49.649,60.7,52c-1.306,2.851.168,4.64,1.938,4.64,0,0,1.4,7.417,8.219,6.892s7.8-11.467,6.684-13.5c0,0-3.67,1.786-9.043-1.491a12.678,12.678,0,0,1-4.849,4.243" fill="#f2bf75"/>
            <path id="Path_536" data-name="Path 536" d="M122.715,70.134H94.27a2.949,2.949,0,0,0-2.89,2.36L87.592,91.055h34.467l3.547-17.381a2.951,2.951,0,0,0-2.891-3.54" fill="#cee5ed"/>
            <path id="Path_537" data-name="Path 537" d="M121.95,91.057H74.94a1.4,1.4,0,0,0-1.4,1.4v.454a1.4,1.4,0,0,0,1.4,1.4h47.01a1.405,1.405,0,0,0,1.4-1.4v-.454a1.4,1.4,0,0,0-1.4-1.4" fill="#80a9b2"/>
            <path id="Path_538" data-name="Path 538" d="M121.95,91.057H87.215a1.4,1.4,0,0,1,1.4,1.4v.454a1.4,1.4,0,0,1-1.4,1.4H121.95a1.405,1.405,0,0,0,1.4-1.4v-.454a1.4,1.4,0,0,0-1.4-1.4" fill="#aac6ce"/>
            <path id="Path_539" data-name="Path 539" d="M76.456,90.062c-5.538-.645-21.074-2.23-23.737-2.5-3.358-.348,3.937-13.895,4.748-18.526s-2.721-4.805-2.721-4.805a5.656,5.656,0,0,0-6.021,2.805c-3.792,5.742-8.016,22.53-5.79,26.674a1.5,1.5,0,0,0,1.325.785h32.2Z" fill="#cee5ed"/>
            <path id="Path_540" data-name="Path 540" d="M76.456,90.062s-20-1.377-24.315-1.956c-3.346-.449,3.628-14.329,4.438-18.96S53.8,64.708,53.8,64.708A8.572,8.572,0,0,0,50.677,65a5.789,5.789,0,0,1,4.071-.778s3.529.175,2.719,4.807S50.4,86.919,52.517,87.44c2.6.642,18.4,1.978,23.939,2.622" fill="#aac6ce"/>
            <path id="Path_541" data-name="Path 541" d="M76.456,94.562h7.461a.7.7,0,0,0,.592-1.089c-.7-1.074-1.8-2.591-2.611-2.848a35.5,35.5,0,0,0-5.442.123Z" fill="#f2bf75"/>
            <g id="Group_52" data-name="Group 52" opacity="0.67">
              <g id="Group_51" data-name="Group 51">
                <g id="Group_50" data-name="Group 50" clip-path="url(#clip-path-3)">
                  <path id="Path_542" data-name="Path 542" d="M77.54,50.034a5.941,5.941,0,0,1-1.69.421c-.09.5-.253,1.476-.341,2.4-.125,1.312.531,5.375.125,5.406a11.953,11.953,0,0,1-1.25-.031s-.625,5.875-6.5,4.937l-.152-.023a7.413,7.413,0,0,0,3.124.392c6.815-.524,7.8-11.467,6.684-13.5" fill="#ea9249"/>
                </g>
              </g>
            </g>
            <path id="Path_543" data-name="Path 543" d="M163.068,135.4s9.371-4.648,6.822-11.695-4.123-7.347.75-11.321,11.92-13.944,3-14.694-8.472,11.1-15.894,12.745-11.47,32.687,5.323,24.965" fill="#39b54a"/>
            <path id="Path_544" data-name="Path 544" d="M155.693,136.1c1.8.834,4.219.753,7.375-.7,0,0,9.372-4.648,6.823-11.7s-4.124-7.347.75-11.32,11.92-13.945,3-14.694a8.191,8.191,0,0,0-2.378.127c2.511,1.043,5.008,3.112,1.78,6.941-5.375,6.375-8.25,8.625-7.625,12.75.61,4.023.263,13.154-9.723,18.59" fill="#208476"/>
            <path id="Path_545" data-name="Path 545" d="M147.175,135.175s-8.247-.3-7.8-6.223.679-6.154-4.5-8.022c-9.146-3.3-1.906-20.865,5.547-9.82,5.174,7.665,7.423,5.94,10.8,6.541s10.721,20.148-4.048,17.524" fill="#39b54a"/>
            <path id="Path_546" data-name="Path 546" d="M151.223,117.65c-3.374-.6-5.623,1.125-10.8-6.542-3.9-5.781-7.739-3.719-9.2.028,2.194-.672,5.528-1.075,5.943,2.5.539,4.634,11.38,12.243,11.158,21.7.144.015.283.025.422.036,1.578-4.159,3.66-9.555,5.442-14.152-.954-1.982-2.091-3.412-2.965-3.567" fill="#208476"/>
            <path id="Path_547" data-name="Path 547" d="M149.086,134.912s-10.233-10.008-6.747-11.695,10.346,3.823,6.522-2.137-8.275-15.244-2.99-13.782,5.668,3.068,5.014-3.873c-.846-8.979,4.161-13.607,8.884-10.683s-4.048,22.715-.787,20.579,5.96-3.936,6.635-1.35-9.337,12.742-5.623,11.021c4.611-2.137,5.285,1.687,3.823,4.048s-7.534,16.419-14.731,7.872" fill="#208476"/>
            <g id="Group_55" data-name="Group 55" opacity="0.48">
              <g id="Group_54" data-name="Group 54">
                <g id="Group_53" data-name="Group 53" clip-path="url(#clip-path-4)">
                  <path id="Path_548" data-name="Path 548" d="M163.818,127.04c1.462-2.361.788-6.185-3.823-4.048-3.714,1.721,6.3-8.434,5.622-11.021s-3.373-.787-6.634,1.35,5.51-17.656.787-20.579a4.82,4.82,0,0,0-6.149.516c2.445.6,4.4,2.564,3.045,7.874-2.875,11.25-4.625,20.625.625,17.875,4.945-2.59-5.743,9.347-5.852,17.951,6.137,3.506,11.08-7.819,12.379-9.918" fill="#1f2528"/>
                </g>
              </g>
            </g>
            <path id="Path_549" data-name="Path 549" d="M142,136.086l1.98,17.931a4.425,4.425,0,0,0,4.4,3.939h11.431a4.424,4.424,0,0,0,4.4-3.939l1.981-17.931a1.649,1.649,0,0,0-1.638-1.829h-20.91A1.648,1.648,0,0,0,142,136.086" fill="#cee5ed"/>
            <path id="Path_550" data-name="Path 550" d="M164.548,134.257H157.3a1.648,1.648,0,0,1,1.638,1.829l-1.981,17.931a4.423,4.423,0,0,1-4.4,3.938h7.25a4.423,4.423,0,0,0,4.4-3.938l1.981-17.931a1.648,1.648,0,0,0-1.638-1.829" fill="#aac6ce"/>
            <path id="Path_551" data-name="Path 551" d="M142.319,94.5H19.759a2.491,2.491,0,0,0-2.491,2.491V97.8a2.492,2.492,0,0,0,2.491,2.492h122.56A2.492,2.492,0,0,0,144.81,97.8v-.807a2.491,2.491,0,0,0-2.491-2.491" fill="#3e8ccc"/>
            <path id="Path_552" data-name="Path 552" d="M142.319,94.5H19.759a2.491,2.491,0,0,0-2.491,2.491V97.8a2.456,2.456,0,0,0,.129.755,2.482,2.482,0,0,1,2.362-1.737h122.56a2.482,2.482,0,0,1,2.362,1.737,2.456,2.456,0,0,0,.129-.755v-.807a2.491,2.491,0,0,0-2.491-2.491" fill="#2173aa"/>
            <path id="Path_553" data-name="Path 553" d="M58.5,158.042H54.4L25.9,100.321H30Z" fill="#208476"/>
            <path id="Path_554" data-name="Path 554" d="M13.4,158.042h4.1l28.5-57.721H41.9Z" fill="#208476"/>
            <path id="Path_555" data-name="Path 555" d="M146.727,158.042h-4.1l-28.5-57.721h4.1Z" fill="#208476"/>
            <path id="Path_556" data-name="Path 556" d="M101.628,158.042h4.1l28.5-57.721h-4.1Z" fill="#208476"/>
            <path id="Path_557" data-name="Path 557" d="M31.128,102.609,30,100.322H25.9l1.13,2.287Z" fill="#1a3651"/>
            <path id="Path_558" data-name="Path 558" d="M44.862,102.609l1.129-2.287H41.9l-1.129,2.287Z" fill="#1a3651"/>
            <path id="Path_559" data-name="Path 559" d="M119.358,102.609l-1.129-2.287h-4.1l1.129,2.287Z" fill="#1a3651"/>
            <path id="Path_560" data-name="Path 560" d="M133.093,102.609l1.129-2.287h-4.1L129,102.609Z" fill="#1a3651"/>
          </g>
        </g>
      </g>
    </g>
  </g>
</svg>
