<svg xmlns="http://www.w3.org/2000/svg" xmlns:xlink="http://www.w3.org/1999/xlink" width="190" height="200" viewBox="0 0 190 200">
  <defs>
    <clipPath id="clip-path">
      <rect id="Rectangle_38" data-name="Rectangle 38" width="168.381" height="200" fill="none"/>
    </clipPath>
    <clipPath id="clip-path-3">
      <rect id="Rectangle_35" data-name="Rectangle 35" width="37.774" height="12.416" fill="none"/>
    </clipPath>
    <clipPath id="clip-path-4">
      <rect id="Rectangle_36" data-name="Rectangle 36" width="26.585" height="8.935" fill="none"/>
    </clipPath>
  </defs>
  <g id="Group_70" data-name="Group 70" transform="translate(-227 -1746)">
    <circle id="Ellipse_9" data-name="Ellipse 9" cx="95" cy="95" r="95" transform="translate(227 1746)" fill="#ff6e3a"/>
    <g id="Group_69" data-name="Group 69" transform="translate(236.184 1746)">
      <g id="Group_68" data-name="Group 68" clip-path="url(#clip-path)">
        <g id="Group_67" data-name="Group 67">
          <g id="Group_66" data-name="Group 66" clip-path="url(#clip-path)">
            <path id="Path_561" data-name="Path 561" d="M414.168,332.217a15.238,15.238,0,0,1-2.529-.831c-.491-.227-.981-.453-1.472-.718a.132.132,0,0,1-.075-.038,4.286,4.286,0,0,1-1.812-1.662c.491.076,9.134,1.4,12.418-2.267h.227c.038.113.075.189.113.3a5.333,5.333,0,0,1,.189,2.871,3.9,3.9,0,0,1-2.718,2.531,7.663,7.663,0,0,1-3.812,0c-.151-.076-.34-.113-.528-.189" transform="translate(-254.179 -203.273)" fill="#666"/>
            <path id="Path_562" data-name="Path 562" d="M420.851,318.239h-.226c-3.321,3.665-11.965,2.342-12.418,2.267,0-.038-.038-.076-.038-.113-.34-.831.679-3.4,1.548-3.7l-.038-.113a44.949,44.949,0,0,0,8.643-3.476l.076.189a26.278,26.278,0,0,1,2.453,4.949" transform="translate(-254.069 -194.811)" fill="#fff"/>
            <path id="Path_563" data-name="Path 563" d="M417.885,307.739a1.1,1.1,0,0,1-.038.6.756.756,0,0,1-.453.378c-.642.378-1.283.718-1.925,1.058a47.5,47.5,0,0,1-8.644,3.476c-.868.227-1.7.453-2.567.68a5.109,5.109,0,0,0-.037-.756c-.114-1.058-.491-2.116-.642-3.174.944.227,6.944,1.511,14.229-2.3h.075Z" transform="translate(-251.253 -191.451)" fill="#666"/>
            <path id="Path_564" data-name="Path 564" d="M351.566,272.668a1.672,1.672,0,0,0,1.1-.529A21.937,21.937,0,0,1,357.945,269a1.735,1.735,0,0,1,2.038.227,12.257,12.257,0,0,1,5.133,8.387h-.076c-7.284,3.816-13.286,2.531-14.229,2.3.114,1.058.491,2.116.642,3.174l-1.056.113a17.36,17.36,0,0,0-3.019,4.043l-.151-.076-.679-.567-.151.189c-2.453,4.987-7.36,8.992-14.154,13.9s-12.456,5.667-12.456,5.667h-.377a27.376,27.376,0,0,0,.755-8.047,18.931,18.931,0,0,0-1.283-6.649l.151-.076c6.19-2.833,14.381-3.589,19.74-7.783l-.114-.151c1.925-2.607,3.7-5.856,3.511-9.105l-.114-.038c.264-.831.416-2.154-.415-2.191l-.037-.113a11.109,11.109,0,0,0-1.246-11.447l.114-.076c.717-1.247,2.491-1.36,3.925-1.247a10.3,10.3,0,0,1,4.529,1.133,7.541,7.541,0,0,1,3.246,5.932,18.811,18.811,0,0,1-.6,6.158m-18.154,20.59a2.113,2.113,0,0,0,.189-2.531c-.529-.756-.981-1.36-2.114-.982v.076A2.654,2.654,0,0,0,329,291.143a2.2,2.2,0,0,0,.755,2.8,2.3,2.3,0,0,0,1.208.3,2.922,2.922,0,0,0,2.453-.982m-7.4,6.5a2.345,2.345,0,0,0,1.812-2.985,1.926,1.926,0,0,0-3.1-.567l-.038-.038a2.091,2.091,0,0,0-.944,2.607,2.136,2.136,0,0,0,2.265.982" transform="translate(-198.522 -161.405)" fill="#fff"/>
            <path id="Path_565" data-name="Path 565" d="M405.577,338.726a2.693,2.693,0,0,1-.189,1.965,2.579,2.579,0,0,1-.755.68,7.912,7.912,0,0,1-3.774,1.776c-1.7.151-3.321-.756-4.793-1.662a9.959,9.959,0,0,1-1.585-1.133s5.813-.378,7.058-3.249a.132.132,0,0,1,.075.038c.491.264.944.491,1.472.718a13.881,13.881,0,0,0,2.491.869h0" transform="translate(-245.588 -209.743)" fill="#666"/>
            <path id="Path_566" data-name="Path 566" d="M398.13,326.106a4.078,4.078,0,0,0,1.812,1.662c-1.283,2.871-7.058,3.249-7.058,3.249a2.871,2.871,0,0,1-.944-1.625,4.1,4.1,0,0,1,.528-2.267c.151-.3.3-.567.453-.869a18.511,18.511,0,0,1,3.02-4.042L397,322.1a4.82,4.82,0,0,1,.038.756c.868-.189,1.736-.416,2.567-.68l.038.113c-.868.3-1.887,2.871-1.548,3.7a.139.139,0,0,0,.038.113" transform="translate(-243.992 -200.41)" fill="#fff"/>
            <path id="Path_567" data-name="Path 567" d="M337.071,337.975l-.038.038c-5.473,3.136-9.738,8.047-13.663,13-1.057,1.322-2.076,2.682-3.246,3.891-4.416,4.5-14.3,7.178-20.344,6.838a10.405,10.405,0,0,0,3.623-2.267,10.058,10.058,0,0,0,2.982-4.231,21.02,21.02,0,0,0,1.17-4.08h.377s5.662-.756,12.455-5.667,11.7-8.878,14.154-13.9l.151-.189.679.567.151.076c-.151.3-.3.567-.453.869a4.026,4.026,0,0,0-.528,2.267,2.871,2.871,0,0,0,.944,1.625,8.2,8.2,0,0,0,1.585,1.171" transform="translate(-186.631 -206.197)" fill="#666"/>
            <path id="Path_568" data-name="Path 568" d="M331.95,110.5a19.1,19.1,0,0,1,0,6.045,19.237,19.237,0,0,1-3.284,6.725,158.143,158.143,0,0,1-29.214,32.642,10.673,10.673,0,0,1-1.66,1.133c-4.341,1.473-2.793-5.516-1.812-6.158,1.132-.756,31.818-24.179,31.327-35.891-1.095-26.371-8.3-38.083-8.908-39.065a2.124,2.124,0,0,0-2.831-1.813,2.483,2.483,0,0,0-1.132,2.153h-.113A109.578,109.578,0,0,0,304.1,63.839l.038-.038c4.227.416,11.4,1.4,15.324,2.947a7.071,7.071,0,0,1,2.982,1.889A7.319,7.319,0,0,1,323.5,70.9,204.9,204.9,0,0,1,331.95,110.5" transform="translate(-183.587 -39.697)" fill="gray"/>
            <path id="Path_569" data-name="Path 569" d="M313.04,92.539c.642.982,7.851,12.694,8.908,39.065.49,11.712-30.2,35.136-31.327,35.891-.982.642-2.529,7.632,1.811,6.158-1.963,1.1-4.265,1.549-5.322-.227a4.735,4.735,0,0,1-.491-2.267c-.151-3.627-.226-8.8-.339-12.43a110.322,110.322,0,0,0,15.814-10.805,36.784,36.784,0,0,0,8.643-9.294c.34-.6.679-1.209.981-1.851a15.278,15.278,0,0,0,1.17-10.39c-.529-1.965-.717-4.383-1.057-6.385a11.016,11.016,0,0,1-.151-1.1c-.189-1.511-.076-2.8,1.321-3.514a16.883,16.883,0,0,0,1.547-2.229,9.771,9.771,0,0,0,1.132-7.14,11.316,11.316,0,0,0-1.4-2.985c-.189-.3-.377-.68-.6-1.1-1.132-2.191-2.6-5.478-3.623-7.178a1.928,1.928,0,0,1-1.019-1.889,2.483,2.483,0,0,1,1.132-2.153,2.156,2.156,0,0,1,2.869,1.813" transform="translate(-178.227 -56.345)"/>
            <path id="Path_570" data-name="Path 570" d="M327.414,116.571l.151-.076c.226.416.415.793.6,1.1a12.652,12.652,0,0,1,1.4,2.985,9.621,9.621,0,0,1-1.132,7.14s-2.378-6.5-6.907-9.143S308.58,116.8,308.58,116.8a32.653,32.653,0,0,1,5.963-2.04c1.095-.264,2.189-.491,3.284-.642,3.057-.529,8.077-.34,9.587,2.456" transform="translate(-192.11 -70.856)"/>
            <path id="Path_571" data-name="Path 571" d="M310.445,67.316l-.151.076c-1.51-2.8-6.492-2.985-9.662-2.531-1.095.151-2.189.378-3.284.642-.226-1.965-.906-4.458-3.548-9.747-2.491-4.949-11.55-14.848-12.72-16.094a6.456,6.456,0,0,0,1.246-4.76c.906.6,1.774,1.247,2.642,1.889A95.579,95.579,0,0,1,295.5,45.782a121.657,121.657,0,0,1,10.229,12.43h.113a1.87,1.87,0,0,0,1.019,1.889c.944,1.738,2.416,5.025,3.586,7.216" transform="translate(-174.989 -21.715)" fill="gray"/>
            <path id="Path_572" data-name="Path 572" d="M347.8,339.586v-.076c1.132-.378,1.585.227,2.114.982a2.163,2.163,0,0,1-.189,2.531,3.014,3.014,0,0,1-2.453.982,2.723,2.723,0,0,1-1.208-.3,2.193,2.193,0,0,1-.755-2.8,2.654,2.654,0,0,1,2.491-1.322" transform="translate(-214.836 -211.17)" fill="#333"/>
            <path id="Path_573" data-name="Path 573" d="M319.991,132.194a13.93,13.93,0,0,1-1.548,2.229c-1.4.718-1.51,2-1.321,3.514l-.151.038a14.85,14.85,0,0,0-6.832-10.465,22.288,22.288,0,0,0-8.568-3.249,36.873,36.873,0,0,0-4.529-.491,4.208,4.208,0,0,0-1.963.227,32.242,32.242,0,0,1,5.02-2.72s8.417-.869,12.946,1.776,6.945,9.143,6.945,9.143" transform="translate(-183.705 -75.373)"/>
            <path id="Path_574" data-name="Path 574" d="M319.662,166.457c0-.227-.038-.491-.038-.718l.151-.038c.037.34.113.718.151,1.1.34,2,.529,4.458,1.057,6.385a15.278,15.278,0,0,1-1.17,10.39l-.151-.076a17.883,17.883,0,0,1-16.91,3.249h-.037a8.765,8.765,0,0,0-1.887-6.271,6.55,6.55,0,0,0-1.547-1.133l.038-.076c2-.264,3.85-.529,5.624-.945a27.147,27.147,0,0,0,6.19-2.229c3.85-2.04,7.473-5.44,8.53-9.634" transform="translate(-186.32 -103.099)"/>
            <path id="Path_575" data-name="Path 575" d="M285.6,218.9a1.466,1.466,0,0,0-.755,1.4c.114,1.1,1.472,1.549,2.567,1.625a2.714,2.714,0,0,0,2.453-.68c.755-.907.038-2.418-1.057-2.871-.944-.416-2.113.227-3.208.529m-11.4,15.792c-2.378,1.36-4.832,2.607-7.322,3.778,7.473-3.816,14.569-12.921,15.551-21.233.037-.416.075-.869.113-1.285h.037a17.883,17.883,0,0,0,16.91-3.249l.151.076a17.279,17.279,0,0,1-.981,1.851c-2.189,3.665-5.36,6.574-8.644,9.294A110.051,110.051,0,0,1,274.2,234.689" transform="translate(-166.149 -132.342)" fill="gray"/>
            <path id="Path_576" data-name="Path 576" d="M316.13,153.732a13.5,13.5,0,0,0,5.133-11.221,16.371,16.371,0,0,0-1.925-6.952,12.664,12.664,0,0,0-7.058-6.045l.037-.113a22.293,22.293,0,0,1,8.568,3.249,15,15,0,0,1,6.831,10.465,4.575,4.575,0,0,1,.038.718c-1.057,4.194-4.68,7.594-8.53,9.6a26.521,26.521,0,0,1-6.19,2.229l-.038-.151a10.214,10.214,0,0,0,3.133-1.776" transform="translate(-194.413 -80.513)" fill="#fff"/>
            <path id="Path_577" data-name="Path 577" d="M332.522,355.857a1.907,1.907,0,0,1,3.1.567,2.37,2.37,0,0,1-1.812,2.985,1.916,1.916,0,0,1-1.321-3.589Z" transform="translate(-206.314 -221.057)" fill="#333"/>
            <path id="Path_578" data-name="Path 578" d="M322.384,152.653a13.494,13.494,0,0,1-5.134,11.221l-3.02-3.022-.151-.189c3.812-3.06,4.19-9.067,1.736-12.845l4.416-2,.226-.113a16.366,16.366,0,0,1,1.925,6.952" transform="translate(-195.534 -90.655)" fill="#f7931e"/>
            <path id="Path_579" data-name="Path 579" d="M291.349,134.494l-.038.038a12.221,12.221,0,0,0-8.19-.189,8.189,8.189,0,0,0-2.567,1.285l-.264-.34-1.51-1.965a35.768,35.768,0,0,1,6.152-5.025,4.329,4.329,0,0,1,1.963-.227,36.869,36.869,0,0,1,4.529.491l-.038.113a12.663,12.663,0,0,1,7.058,6.045l-.226.113-4.416,2a6.957,6.957,0,0,0-2.453-2.342" transform="translate(-173.558 -79.675)" fill="#f15a24"/>
            <path id="Path_580" data-name="Path 580" d="M318.526,227.477c1.094.491,1.812,1.965,1.057,2.871a2.789,2.789,0,0,1-2.453.68c-1.1-.076-2.453-.529-2.567-1.625a1.465,1.465,0,0,1,.755-1.4c1.057-.3,2.227-.945,3.208-.529" transform="translate(-195.828 -141.451)" fill="#333"/>
            <path id="Path_581" data-name="Path 581" d="M284.223,180.45l3.02,3.022a13.447,13.447,0,0,1-3.095,1.851l.037.151a51.313,51.313,0,0,1-5.624.945l-.038.076c-2.076-1.247-5.624-2.871-8.718-4.571l-.038.038a8.9,8.9,0,0,1-3.888-3.476l3.586-1.285a8.864,8.864,0,0,0,2.076,2.531,10.376,10.376,0,0,0,9.813,1.965,8.462,8.462,0,0,0,2.718-1.436Z" transform="translate(-165.526 -110.254)" fill="#f15a24"/>
            <path id="Path_582" data-name="Path 582" d="M71.665,334.727a10.773,10.773,0,0,1-1.4-5.478,31.8,31.8,0,0,0,9.927-7.216c1.623-1.738,3.02-3.665,4.68-5.365,0,0-.075,8.16,8.983,15.339,4.642,3.665,17.362,16.019,42.651,9.067,19.249-5.289,1.887-24.935,1.887-24.935V316.1c1.132.189,2.3.378,3.434.567l.113-.113a13.184,13.184,0,0,0,4.529,3.891,20.515,20.515,0,0,0,3.322,1.209c1.661.491,3.284.982,4.945,1.473a14.626,14.626,0,0,0,7.209.416h.038a13.05,13.05,0,0,1,2.076,3.476,18.106,18.106,0,0,1,1.283,6.649,27.607,27.607,0,0,1-.755,8.047,21.052,21.052,0,0,1-1.17,4.08s-4.832-8.047-13.06-9.181a69.033,69.033,0,0,1-.679,11.787c-1.585,12.656-5.246,25.5-3.246,37.478-1.019,1.4-2.982,1.662-4.718,1.776a66.353,66.353,0,0,1-15.249-.3c1.472-7.48-.415-11.259-1.887-18.437l-5.435-8.2-7.926,1.133-.793-.076a81.937,81.937,0,0,1-4.491-9.747,8.267,8.267,0,0,1,1.283-8.047c-1.812-1.058-3.812-2.153-5.926-1.889-.944.113-2.227-.113-3.095.34-.642.3-1.246.567-1.812.869a5.011,5.011,0,0,0-2.642,3.1H93.67a10.777,10.777,0,0,1-1.887.529,14.277,14.277,0,0,1-8.644-1.209,25.786,25.786,0,0,1-8.416-6.687,24.711,24.711,0,0,1-3.058-4.307" transform="translate(-43.743 -196.677)" fill="#f7931e"/>
            <path id="Path_583" data-name="Path 583" d="M177.4,88.1v.076c-.528.038-.641.34-1.245.34a6.367,6.367,0,0,0,.566,1.4c1.095,2.078,2.189,4.194,3.284,6.272a2.483,2.483,0,0,0,.453.642c.642.491,1.548-.038,2.189-.567,1.434-1.209,2.868-2.418,4.265-3.627.34-.3.717-.642.717-1.1,0-.491-.416-.831-.83-1.1a13.772,13.772,0,0,0-9.4-2.342m1.321-33.624a.607.607,0,0,0-.264.151,6.462,6.462,0,0,0-2.982,4.345,1.861,1.861,0,0,0,.075,1.02c.3.6,1.132.718,1.849.642a5.651,5.651,0,0,0,3.662-1.625,3.15,3.15,0,0,0,.415-3.778,2.311,2.311,0,0,0-2.756-.756m-2.491,23.5a9.112,9.112,0,0,0,3.888,3.476l.038-.038c3.095,1.7,6.643,3.325,8.719,4.571a6.529,6.529,0,0,1,1.547,1.133,8.71,8.71,0,0,1,1.887,6.272,7.385,7.385,0,0,1-.113,1.285c-1.019,8.312-8.078,17.417-15.551,21.233a112.029,112.029,0,0,1-23.741,8.047,98.762,98.762,0,0,1-10.455,1.7c.189-.945.415-2.153.6-3.249.076-.453.151-.869.189-1.247a2.373,2.373,0,0,0-.037-1.36,2.5,2.5,0,0,0-1.623-1.171,75.317,75.317,0,0,1-19.7-11.221,28.8,28.8,0,0,1,10.946-18.361,35.974,35.974,0,0,1,20.382-7.216c3.623-.151,7.4.151,10.719-1.285,3.322-1.4,4.643-6.574,4.982-9.634,1.434-11.372-1.208-20.326-9.285-28.449-4.567-4.571-10.568-7.4-15.966-10.994-5.36-3.627-10.455-8.614-11.436-15.037v-.189c4.718-.34,9.7-.567,14.682-.642v.113A28.468,28.468,0,0,0,170.645,31.7c4.152.227,8.568-.189,11.059-3.514a3.953,3.953,0,0,1,.3-.416c1.17,1.247,10.229,11.145,12.72,16.094,2.642,5.289,3.321,7.821,3.548,9.747a37.035,37.035,0,0,0-5.964,2.04,40.135,40.135,0,0,0-5.02,2.72,35.736,35.736,0,0,0-6.152,5.025q-.736.737-1.359,1.473a16.077,16.077,0,0,0-4.3,8.727,6.7,6.7,0,0,0,.755,4.383M151.509,91.237h0a12.623,12.623,0,0,0-3.737,4.609,10.007,10.007,0,0,0-.641,1.776,8.808,8.808,0,0,0,1.207,7.329l.114.113c2.076,2.72,5.775,3.7,9.172,3.627a17.334,17.334,0,0,0,9.587-3.1,13.476,13.476,0,0,0,3.058-2.985,4.822,4.822,0,0,0-2.3-.945c-5.208-1.247-10-2.909-13.852-6.649a12.218,12.218,0,0,1-1.472-1.776,17.16,17.16,0,0,1-1.132-2m-14.645,7.707c.339-1.4-1.434-3.362-2.6-2.607l-.038-.038c-1.887-.113-3.208,1.738-4.114,3.362a2.8,2.8,0,0,0-.491,1.927,1.873,1.873,0,0,0,1.925,1.171,5.479,5.479,0,0,0,2.265-.831c1.321-.718,2.68-1.587,3.058-2.985" transform="translate(-75.878 -9.707)" fill="#fff"/>
            <path id="Path_584" data-name="Path 584" d="M290.448,146.135c2.491,3.74,2.076,9.785-1.736,12.845a7.781,7.781,0,0,1-2.718,1.436,10.376,10.376,0,0,1-9.813-1.965,7.771,7.771,0,0,1-2.076-2.531,4.407,4.407,0,0,1-.377-.982,9.229,9.229,0,0,1,.377-6.423,14.006,14.006,0,0,1,3.095-3.627,7.142,7.142,0,0,1,2.567-1.285,12.223,12.223,0,0,1,8.19.189l.038-.038a8.189,8.189,0,0,1,2.453,2.38" transform="translate(-170.166 -88.973)"/>
            <path id="Path_585" data-name="Path 585" d="M287.975,385.818a13.719,13.719,0,0,1-1.66.378v-.038a11.007,11.007,0,0,0-5.284-4.269h-.151a77.742,77.742,0,0,0,.679-11.787c8.228,1.133,13.06,9.181,13.06,9.181a10.767,10.767,0,0,1-2.982,4.231,10.558,10.558,0,0,1-3.661,2.3" transform="translate(-174.864 -230.276)" fill="#f15a24"/>
            <path id="Path_586" data-name="Path 586" d="M267.049,207.434v-.076a14.289,14.289,0,0,1,9.474,2.342,1.622,1.622,0,0,1,.83,1.1,1.546,1.546,0,0,1-.717,1.1c-1.434,1.209-2.868,2.418-4.265,3.627-.6.529-1.548,1.058-2.189.567a1.638,1.638,0,0,1-.453-.642c-1.095-2.078-2.189-4.194-3.284-6.272a4.968,4.968,0,0,1-.566-1.4c.529,0,.642-.264,1.17-.34" transform="translate(-165.526 -128.964)"/>
            <path id="Path_587" data-name="Path 587" d="M223.182,27.53a3.953,3.953,0,0,1-.3.416c-2.491,3.325-6.908,3.74-11.059,3.514a28.468,28.468,0,0,1-23.74-15.981v-.113c5.36-.076,10.719.038,15.664.453a46.97,46.97,0,0,1,10.266,1.662,38.38,38.38,0,0,1,10.455,5.289,6.662,6.662,0,0,1-1.283,4.76" transform="translate(-117.091 -9.547)"/>
            <path id="Path_588" data-name="Path 588" d="M267.954,147.995a9.425,9.425,0,0,0-.377,6.423,7.568,7.568,0,0,0,.377.982l-3.586,1.285a6.958,6.958,0,0,1-.793-4.382,16.616,16.616,0,0,1,4.3-8.727l1.358-1.473,1.51,1.965.265.34a15.168,15.168,0,0,0-3.057,3.589" transform="translate(-164.052 -88.415)" fill="#f7931e"/>
            <path id="Path_589" data-name="Path 589" d="M266.806,118.347c.075-.038.189-.113.264-.151a2.348,2.348,0,0,1,2.756.718,3.149,3.149,0,0,1-.416,3.778,5.649,5.649,0,0,1-3.661,1.625,1.764,1.764,0,0,1-1.849-.642,1.858,1.858,0,0,1-.076-1.02,6.388,6.388,0,0,1,2.982-4.307" transform="translate(-164.226 -73.426)" fill="#333"/>
            <path id="Path_590" data-name="Path 590" d="M120.669,307.416a97.235,97.235,0,0,1,13.1,4.987l-.113.227a16.36,16.36,0,0,1-3.963,8.047l.038.038a8.142,8.142,0,0,1,4.907-2.191,17.266,17.266,0,0,1,5.888.567,16.055,16.055,0,0,1,3.51,1.209c3.624,1.851,5.737,5.667,7.587,9.332.038-1.511-.075-3.174-.075-4.8a24.571,24.571,0,0,1,.189-3.4c.415-2.72,2.378-5.554,5.133-5.554l.076-.113a31.725,31.725,0,0,0-7.889-5.289,1.066,1.066,0,0,0-.679-.151,8.572,8.572,0,0,0-.981.076c-.151-.378-.3-.718-.453-1.1-.226-.529-.491-1.1-.718-1.625V307.6l15.966,2.607h.114v.038s17.362,19.646-1.887,24.935c-25.288,6.952-38.008-5.4-42.651-9.067-9.059-7.178-8.983-15.339-8.983-15.339a20.255,20.255,0,0,1,1.623-1.511c2.34-1.927,5.548-3.136,8.417-2.3h.3c.566.151,1.057.3,1.548.453" transform="translate(-67.722 -190.825)" fill="#f15a24"/>
            <path id="Path_591" data-name="Path 591" d="M198.792,228.519c-1.283.642-2.529,1.247-3.813,1.889a19.926,19.926,0,0,1,.982-4.194l-.113-.038q-.34-.17-.793-.453l.226-1.247L198.15,221a10.473,10.473,0,0,0,1.472,1.776c3.812,3.778,8.606,5.44,13.852,6.649a4.982,4.982,0,0,1,2.3.945,13.476,13.476,0,0,1-3.058,2.985l-.075-.113a37.712,37.712,0,0,1-13.852-4.723" transform="translate(-121.386 -137.506)" fill="#fff"/>
            <path id="Path_592" data-name="Path 592" d="M91.083,58.848a30.98,30.98,0,0,0,16.381,20.024,27.8,27.8,0,0,0,5.473,1.965,30.666,30.666,0,0,0,20.419-1.889l-.038-.076a20.322,20.322,0,0,0-2.151-20.855,23.234,23.234,0,0,0-7.134-6.423,23.34,23.34,0,0,0-16-2.947,26.415,26.415,0,0,0-7.624,2.607,29.563,29.563,0,0,0-9.323,7.594m46.16-15.565c8.078,8.123,10.682,17.077,9.285,28.449-.34,3.06-1.623,8.236-4.982,9.634-3.321,1.4-7.1,1.133-10.72,1.285a36.075,36.075,0,0,0-20.382,7.216A28.835,28.835,0,0,0,99.5,108.227a74.733,74.733,0,0,1-8.417-7.783l-.491-.076a78.713,78.713,0,0,0-.075-19.759c-1.7-12.77-6.53-25.691-3.473-38.2,1.925-7.9,6.907-14.772,13.022-20.137a3.317,3.317,0,0,1,2.227-1.1c.868.038,1.623,1.02,1.132,1.738l2.567-3.854a3.156,3.156,0,0,0,.566-1.7c1.095-.076,2.189-.151,3.321-.264v.189c.982,6.423,6.039,11.41,11.436,15.037,5.36,3.589,11.361,6.385,15.928,10.956m-24.118,1.436c21.137,0,23.816,17.757,23.779,17-.755-14.357-12.682-27.353-28.685-24.557C90.856,40.185,90.1,52.274,90.1,52.274a38.505,38.505,0,0,1,23.024-7.556" transform="translate(-53.573 -10.64)"/>
            <path id="Path_593" data-name="Path 593" d="M210.776,241.057l.075.113a17.334,17.334,0,0,1-9.587,3.1c-3.4.076-7.1-.907-9.172-3.627l-.114-.113,1.208-7.027q.453.283.793.453l.113.038a17.853,17.853,0,0,0-.982,4.194c1.284-.642,2.529-1.247,3.813-1.889a38.48,38.48,0,0,0,13.852,4.76" transform="translate(-119.519 -145.284)" fill="#fff"/>
            <path id="Path_594" data-name="Path 594" d="M220.953,321.7l-.075.113c-2.755,0-4.718,2.834-5.133,5.554a24.979,24.979,0,0,0-.189,3.4h-1.095c-.038-.038-.038-.076-.076-.113l.076-.038a42.169,42.169,0,0,0-2.982-14.281,7.968,7.968,0,0,1,.982-.076.908.908,0,0,1,.679.151,34.723,34.723,0,0,1,7.813,5.289" transform="translate(-131.659 -196.761)" fill="#f7931e"/>
            <path id="Path_595" data-name="Path 595" d="M186.133,334.231c0,1.625.076,3.287.076,4.8-1.849-3.665-3.963-7.48-7.586-9.332a14.308,14.308,0,0,0-3.511-1.209,16.374,16.374,0,0,0-5.888-.567,8.146,8.146,0,0,0-4.907,2.191l-.037-.038a16.691,16.691,0,0,0,3.963-8.047l.113-.227c6.416,3.022,12.607,7.065,16.645,12.316.038.038.038.076.076.113Z" transform="translate(-102.274 -200.224)" fill="#f7931e"/>
            <path id="Path_596" data-name="Path 596" d="M143.582,94.129c.038.756-2.642-17-23.779-17A38.506,38.506,0,0,0,96.78,84.684s.755-12.09,18.117-15.112c16-2.8,27.93,10.2,28.685,24.557" transform="translate(-60.251 -43.05)" fill="#666"/>
            <path id="Path_597" data-name="Path 597" d="M165.872,428.824v.038a24.058,24.058,0,0,0-11.7.3c-1.321-2.116-2.642-4.269-3.963-6.423-.189-.3-.377-.567-.528-.869.226-.227.642-.68.528-.793-.151-.113-.075-.3,0-.453.6-1.1,1.208-2.229,1.812-3.325.377.529.717,1.058,1.057,1.511,0,0,.377,3.325,2.265,4.836a6.552,6.552,0,0,0,4.529,1.133.117.117,0,0,0-.038-.076l.793.076,7.926-1.133,5.473,8.123c1.51,7.141,3.4,10.918,1.887,18.437a28.072,28.072,0,0,1-8.87-2.871l-.113-.038a4.472,4.472,0,0,0,.189-1.4,7.048,7.048,0,0,0-.529-2.3,19.71,19.71,0,0,0,5.888,2.833c-.189-3.287-.377-7.632-1.623-10.654a27.7,27.7,0,0,0-2.982-5.1,3.468,3.468,0,0,0-2-1.851" transform="translate(-93.185 -259.644)" fill="#f15a24"/>
            <path id="Path_598" data-name="Path 598" d="M167.015,295.471A41.972,41.972,0,0,1,170,309.752l-.076.038c-4-5.251-10.228-9.256-16.645-12.316a92.423,92.423,0,0,0-13.1-4.987,32.947,32.947,0,0,0,.755-9.785,24.546,24.546,0,0,0,6.983,4.345,33.556,33.556,0,0,0,4.228,1.1c-.189.793-1.4,4.382-1.4,4.382s1.208,3.249,13.815.113h.038a3.158,3.158,0,0,0,1.963,1.776,6.4,6.4,0,0,1,.453,1.058" transform="translate(-87.27 -175.896)" fill="#fff"/>
            <path id="Path_599" data-name="Path 599" d="M172.981,115.364a12.9,12.9,0,0,0-4.6-6.763,22.769,22.769,0,0,1,7.134,6.423,20.146,20.146,0,0,1,2.151,20.855l.038.076a30.9,30.9,0,0,1-20.419,1.889v-.038a18.531,18.531,0,0,0,8.3-1.4,11.52,11.52,0,0,0,3.133-1.889,16.257,16.257,0,0,0,4.869-9.029,21.324,21.324,0,0,0,.377-4.08,17.79,17.79,0,0,0-.981-6.045" transform="translate(-97.916 -67.571)" fill="#fff"/>
            <path id="Path_600" data-name="Path 600" d="M89.058,408.232h-.151c-7.7-3.438-16.419-7.934-21.137-14.923-.944-1.36-1.7-2.833-2.642-4.194a24.773,24.773,0,0,0-5.548-5.856l.113-.113A74.481,74.481,0,0,1,64.185,370.3h.037c1.887,5.667,13.21,18.134,23.779,13.979l.076-.038c2,2.682,3.812,5.667,5.548,8.463.189.3.377.6.528.869,1.321,2.116,2.642,4.269,3.963,6.423a24.524,24.524,0,0,1,11.7-.3v-.038a3.952,3.952,0,0,1,2.076,1.814,29.99,29.99,0,0,1,2.982,5.1c1.245,3.022,1.4,7.367,1.623,10.654a18.83,18.83,0,0,1-5.888-2.833,8.173,8.173,0,0,1,.528,2.3,5.676,5.676,0,0,1-.189,1.4,10.433,10.433,0,0,1-.3,1.02,56.449,56.449,0,0,1-4.642,10.2,24.319,24.319,0,0,1-4.567-7.1l-.114-.038a15.867,15.867,0,0,1-4.378,7.065l-.151-.189c-3.057-1.285-4.718-4.5-6.114-7.48a8.3,8.3,0,0,1-.755-2.116,5.458,5.458,0,0,1,1.623-4.156l-.038-.038a8.774,8.774,0,0,1-2.453-7.027m.718-14.205a2.118,2.118,0,0,0-.491-2.3c-.6-.6-1.132-1.625-2.265-.869l-.189.113a2.625,2.625,0,0,0-.114,3.325,1.932,1.932,0,0,0,3.058-.264m-6.455-3.249a1.948,1.948,0,0,0,.189-2.078c-.641-1.625-1.774-5.025-4.416-3.136a4.558,4.558,0,0,0,1.962,5.289,2.05,2.05,0,0,0,2.265-.076" transform="translate(-37.092 -230.4)" fill="#fff"/>
            <path id="Path_601" data-name="Path 601" d="M182.132,301.6h0c-12.644,3.173-13.852-.113-13.852-.113s1.207-3.589,1.4-4.383c1.359.265,2.227.378,2.227.378-.189,1.1-.377,2.342-.6,3.249,3.51-.378,7.02-.982,10.455-1.7v.076a4.707,4.707,0,0,0,.377,2.494" transform="translate(-104.765 -184.855)" fill="gray"/>
            <path id="Path_602" data-name="Path 602" d="M195.287,217.828l-2.869,3.476-.226,1.247a5.921,5.921,0,0,1-1.812-2.078,12.5,12.5,0,0,1,3.737-4.571c.377.68.755,1.322,1.17,1.927" transform="translate(-118.523 -134.333)" fill="#666"/>
            <path id="Path_603" data-name="Path 603" d="M181.036,132.408a21.048,21.048,0,0,1-.377,4.08,16.133,16.133,0,0,1-4.869,9.029,11.525,11.525,0,0,1-3.133,1.889L168.58,140.8a10.549,10.549,0,0,0,4.869-5.931,12.829,12.829,0,0,0-.037-7.4c.528,0,5.7-.907,6.643-1.058a20.172,20.172,0,0,1,.982,6.007" transform="translate(-104.951 -78.646)" fill="#f7931e"/>
            <path id="Path_604" data-name="Path 604" d="M148.578,103.175a12.9,12.9,0,0,1,4.6,6.763c-.944.151-6.115,1.02-6.643,1.058-.189-.6-.416-1.171-.642-1.738a8.492,8.492,0,0,0-3.7-4.042c-3.208-1.587-6.228-1.587-10-.453a11.6,11.6,0,0,0-4.152,2.493l-2.567-3.665a32.07,32.07,0,0,1,7.1-3.362,23.34,23.34,0,0,1,16,2.947" transform="translate(-78.118 -62.146)" fill="#f15a24"/>
            <path id="Path_605" data-name="Path 605" d="M190.659,230.079l-1.208,7.027a8.673,8.673,0,0,1-1.207-7.329,9.981,9.981,0,0,1,.641-1.776,5.831,5.831,0,0,0,1.774,2.078" transform="translate(-116.99 -141.862)" fill="#666"/>
            <path id="Path_606" data-name="Path 606" d="M145.687,117.554a12.829,12.829,0,0,1,.038,7.4,10.55,10.55,0,0,1-4.869,5.931,13.444,13.444,0,0,1-4.6,1.738c-5.134.831-10.38-2.985-11.776-7.972a8.737,8.737,0,0,1-.264-1.436c-.453-3.891.6-7.178,2.982-9.445a11.6,11.6,0,0,1,4.152-2.494c3.774-1.133,6.794-1.133,10,.453a8.5,8.5,0,0,1,3.7,4.042c.226.6.453,1.171.642,1.776" transform="translate(-77.265 -68.742)"/>
            <path id="Path_607" data-name="Path 607" d="M132.806,154.3l4.077,6.612a18.533,18.533,0,0,1-8.3,1.4v.038a29.54,29.54,0,0,1-16.23-10.654,9.258,9.258,0,0,1-1.17-2.72l4.756-.831.491-.038c1.358,4.987,6.643,8.8,11.776,7.972a12.8,12.8,0,0,0,4.6-1.776" transform="translate(-69.216 -92.148)" fill="#f15a24"/>
            <path id="Path_608" data-name="Path 608" d="M152.244,281.111a35.25,35.25,0,0,1-4.227-1.1,24.545,24.545,0,0,1-6.983-4.345,19.409,19.409,0,0,0-.755-4.156l.075-.113A74.37,74.37,0,0,0,153,277.673c.642.264,1.359.529,1.623,1.171a2.373,2.373,0,0,1,.037,1.36c-.037.378-.113.793-.189,1.247a13.6,13.6,0,0,1-2.227-.34" transform="translate(-87.333 -168.865)" fill="#666"/>
            <path id="Path_609" data-name="Path 609" d="M145.707,397.029a73.992,73.992,0,0,1-6.228-11.07c.566-.34,1.208-.567,1.812-.869.868-.416,2.151-.227,3.095-.34,2.076-.227,4.077.831,5.926,1.889a8.266,8.266,0,0,0-1.283,8.047,81.934,81.934,0,0,0,4.491,9.747.117.117,0,0,1,.038.076,6.552,6.552,0,0,1-4.529-1.133c-1.887-1.511-2.265-4.836-2.265-4.836a17.367,17.367,0,0,1-1.057-1.511" transform="translate(-86.834 -239.371)" fill="#f15a24"/>
            <path id="Path_610" data-name="Path 610" d="M146.9,229.025c1.208-.756,2.981,1.209,2.6,2.607s-1.736,2.267-3.02,2.985a5.162,5.162,0,0,1-2.265.831,1.843,1.843,0,0,1-1.925-1.171,2.622,2.622,0,0,1,.491-1.927c.906-1.662,2.227-3.476,4.114-3.362Z" transform="translate(-88.551 -142.395)" fill="#333"/>
            <path id="Path_611" data-name="Path 611" d="M98.361,9.115a3.156,3.156,0,0,1-.566,1.7l-2.567,3.854c.491-.68-.3-1.7-1.132-1.738a3.578,3.578,0,0,0-2.227,1.1c-6.115,5.365-11.1,12.241-13.022,20.137-3.057,12.505,1.774,25.426,3.472,38.2A78.669,78.669,0,0,1,82.4,92.118a77.822,77.822,0,0,1-2.3,11.447,7.894,7.894,0,0,1-.793,2.04c-1.472,1.511-3.435-1.133-2.3-5.289s2.265-22.29-1.887-38.158-2.265-32.491,3.774-43.447A37.286,37.286,0,0,1,93.757,3.9l.566.113a5.6,5.6,0,0,1,4.039,5.1" transform="translate(-45.376 -2.427)" fill="gray"/>
            <path id="Path_612" data-name="Path 612" d="M133.154,425.154a2.052,2.052,0,0,1,.491,2.3,1.937,1.937,0,0,1-3.058.3,2.625,2.625,0,0,1,.114-3.325l.189-.113c1.132-.793,1.66.227,2.265.831" transform="translate(-80.962 -263.832)" fill="#333"/>
            <path id="Path_613" data-name="Path 613" d="M95.571,381.155l-.075.038c-10.568,4.156-21.891-8.312-23.779-13.979h-.038c.3-.642.566-1.247.868-1.813a23.069,23.069,0,0,0,3.1,4.307,25.8,25.8,0,0,0,8.417,6.687A14.277,14.277,0,0,0,92.7,377.6v.038a33.945,33.945,0,0,1,2.869,3.514" transform="translate(-44.625 -227.352)" fill="#666"/>
            <path id="Path_614" data-name="Path 614" d="M115.884,109.6l2.567,3.665c-2.416,2.3-3.435,5.591-2.982,9.445a9.583,9.583,0,0,0,.265,1.436l-.491.038-4.756.831a18.525,18.525,0,0,1,.416-9.332,11.242,11.242,0,0,1,4.982-6.083" transform="translate(-68.524 -68.193)" fill="#f7931e"/>
            <path id="Path_615" data-name="Path 615" d="M131.641,100.7a32.079,32.079,0,0,0-7.1,3.362l-.528-.718-.038-.038a27.047,27.047,0,0,1,7.662-2.607" transform="translate(-77.184 -62.656)" fill="#fff"/>
            <path id="Path_616" data-name="Path 616" d="M108.7,107.639l.528.718a11.591,11.591,0,0,0-4.982,6.083,17.712,17.712,0,0,0-.415,9.332,9.266,9.266,0,0,0,1.17,2.72,30.72,30.72,0,0,1-5.624-11.334A28.95,28.95,0,0,1,108.7,107.6Z" transform="translate(-61.87 -66.949)" fill="#fff"/>
            <path id="Path_617" data-name="Path 617" d="M42.332,5.422C44.9,4.364,47.692,3.306,50.372,3.8A37.286,37.286,0,0,0,35.5,18.607c-6.039,10.956-7.926,27.58-3.774,43.447s3.02,34,1.887,38.158.83,6.8,2.3,5.289a3.167,3.167,0,0,1-.981,1.02c-1.472.869-3.472-.038-4.454-1.436a17.254,17.254,0,0,1-1.812-4.76c-2.6-8.085-10.531-13.034-15.852-19.608-5.926-7.329-8.681-16.774-9.4-26.144S3.871,35.835,5.079,26.5c.226-1.813.528-3.74,1.774-5.025a7.767,7.767,0,0,1,2.6-1.625Q25.706,12.2,42.332,5.422" transform="translate(-1.992 -2.285)"/>
            <path id="Path_618" data-name="Path 618" d="M115.358,412.921a1.956,1.956,0,0,1-.189,2.078,2.05,2.05,0,0,1-2.265.076,4.521,4.521,0,0,1-1.962-5.289c2.642-1.889,3.774,1.511,4.416,3.136" transform="translate(-68.941 -254.622)" fill="#333"/>
            <path id="Path_619" data-name="Path 619" d="M132.28,396.452c0-.038.038-.113.038-.151" transform="translate(-82.352 -246.577)" fill="none" stroke="#000" stroke-linecap="round" stroke-linejoin="round" stroke-width="0.5"/>
            <path id="Path_620" data-name="Path 620" d="M53.438,8.954c1.66-2.645.415-5.932-2-7.632-3.4-2.418-7.7-1.058-11.172.416C31.32,5.554,22.337,9.445,13.467,13.45c-2.114.945-4.228,1.927-6.341,2.871-1.774.831-3.4,1.7-4.3,3.551a17.2,17.2,0,0,0-1.207,5.478c-.3,2.3-.491,4.647-.717,6.989-.981,9.218-1.51,18.588.3,27.769A43.254,43.254,0,0,0,11.92,81.719c2.68,2.834,5.662,5.4,8.341,8.274A24.256,24.256,0,0,1,26,100.194c.868,2.947,3.208,6.687,6.907,5.478,3.548-1.171,3.737-6.838,4.3-9.861a81.555,81.555,0,0,0,.868-28.071c-1.623-10.5-5.133-21.119-4-31.811a32.24,32.24,0,0,1,4.869-13.639,43.044,43.044,0,0,1,4.227-5.554c.83-.907,1.661-1.776,2.567-2.645.3-.264.6-.567.906-.831.3-.3,1.887-1.209,1.963-1.473-.566,1.436,1.925,2.418,2.491.982,1.17-2.947-2.114-4.571-4.454-3.06-2.982,1.927-5.586,5.214-7.7,8.047a37.957,37.957,0,0,0-7.737,21.5c-.34,8.727,2.038,17.266,3.586,25.8a83.4,83.4,0,0,1,.679,27.391,45.857,45.857,0,0,1-1.358,6.309c-.491,1.776-1.4,5.856-3.963,3.74-1.51-1.247-1.774-3.7-2.416-5.478a23.349,23.349,0,0,0-2.377-4.76c-3.963-6.007-10-10.2-14.267-15.943C.295,61.809,2.031,42.768,4.22,25.955c.264-2.078.226-4.76,1.963-6.234,1.774-1.549,4.492-2.38,6.605-3.362,4.793-2.229,9.587-4.42,14.418-6.5C32,7.783,36.793,5.743,41.7,3.929,43.927,3.1,46.871,2.04,49.211,3.1c1.7.756,3.208,2.871,2.227,4.685a1.159,1.159,0,1,0,2,1.171" transform="translate(0 0)"/>
            <path id="Path_621" data-name="Path 621" d="M214.919,36.281a96.316,96.316,0,0,0-14.3-13.979c-4.832-3.816-10-7.329-16-8.954-6.492-1.738-13.625-1.813-20.344-2-7.171-.189-14.343-.113-21.514.416-1.849.151-1.774,3.022.075,2.871a200.231,200.231,0,0,1,20.759-.68c6.492.151,13.361.227,19.665,1.927,5.925,1.587,11.134,5.251,15.965,8.878a145.6,145.6,0,0,1,14.607,12.656c.755.756,1.736-.378,1.095-1.133" transform="translate(-88.032 -7.001)"/>
            <path id="Path_622" data-name="Path 622" d="M298.947,62.745c1.812.907,3.7,1.02,5.623,1.473a34.938,34.938,0,0,1,6.983,2.229c2.378,1.1,2.755,2.947,3.473,5.251.679,2.191,1.321,4.383,1.925,6.612a187.472,187.472,0,0,1,5.36,26.6c.529,4.345,1.359,8.727-.679,12.808a73.183,73.183,0,0,1-7.134,10.578A154.44,154.44,0,0,1,298,146.58c-1.585,1.549-3.246,3.022-4.907,4.5-1.585,1.4-3.283,3.211-5.4,3.7-2.755.642-2.151-3.022-2.227-4.874-.114-2.682-.227-5.365-.34-8.009a1.379,1.379,0,0,0-2.755.076c.076,2.682.189,5.365.3,8.009.076,2-.226,4.571,1.057,6.272,2.189,2.947,6.416.982,8.644-.793a136.23,136.23,0,0,0,20.306-20.628c3.02-3.7,5.85-7.518,8.606-11.447s4.756-7.594,4.416-12.543c-.717-10.352-2.982-20.817-5.548-30.829-.792-3.022-1.623-6.083-2.567-9.067-.679-2.191-1.208-4.534-3.208-5.932-2.038-1.436-4.794-2.116-7.134-2.758-2.6-.718-5.511-1.549-8.19-.869a.739.739,0,0,0-.113,1.36" transform="translate(-175.796 -38.037)"/>
            <path id="Path_623" data-name="Path 623" d="M346.558,91.507c-.038-.038-.076-.076-.113-.076L346.9,92c.114.264-.151-.491-.151-.491a2.776,2.776,0,0,0-.3-.34,1.421,1.421,0,0,1-.189-.529.926.926,0,0,1,.189-.756.622.622,0,0,1,.641.113,1.8,1.8,0,0,1,.718,1.322.912.912,0,0,0,1.51.378,2.642,2.642,0,0,0-.453-3.551,3.193,3.193,0,0,0-3.85-.416,3.386,3.386,0,0,0-1.358,3.136,3.025,3.025,0,0,0,.755,1.776,1.949,1.949,0,0,0,.679.567,1.194,1.194,0,0,0,.6.151,1,1,0,0,0,.453-.113c.3-.113.189-.113-.339.038a.98.98,0,0,0,.755-1.776" transform="translate(-213.934 -54.293)"/>
            <path id="Path_624" data-name="Path 624" d="M349.08,106.314c0,1.587,1.057,2.947,1.812,4.307.906,1.625,2.151,3.325,2.6,5.176a8.014,8.014,0,0,1-.68,5.289c-.679,1.4-1.887,2.456-2.265,3.929a1.141,1.141,0,0,0,1.435,1.36c3.208-1.436,4.68-6.536,4.341-9.785a13.832,13.832,0,0,0-2.19-5.478c-1.019-1.738-2.038-4.458-3.887-5.478a.783.783,0,0,0-1.17.68" transform="translate(-217.324 -65.662)"/>
            <path id="Path_625" data-name="Path 625" d="M174.794,211.72c12.946-.982,26.043-5.289,37.668-10.994a104.17,104.17,0,0,0,17.1-10.465c5.1-3.854,10.38-8.123,13.361-13.941a16.686,16.686,0,0,0,1.737-10.352c-.34-1.889-.793-3.778-1.057-5.7-.226-1.511-1.246-4.043.189-5.176.944-.756.377-2.72-.981-2.153-2.416,1.02-2.679,3.174-2.34,5.554.227,1.587.416,3.211.679,4.8a44.506,44.506,0,0,1,.868,4.987c.189,7.254-5.02,12.77-10.229,17.077a109.77,109.77,0,0,1-34.913,19.57,134.7,134.7,0,0,1-22.118,4.987c-1.056.264-1.095,1.889.038,1.813" transform="translate(-108.297 -95.092)"/>
            <path id="Path_626" data-name="Path 626" d="M266.66,188.563c2.038.982,3.963,2.078,6,3.06,1.774.831,3.85,1.549,5.209,3.022,2.567,2.758,1.661,7.4.6,10.654-2.3,7.027-7.662,12.883-13.89,16.737-.755.491-.226,1.851.679,1.473,7.624-3.136,13.814-10.805,16.23-18.626,1.132-3.7,1.472-8.425-1.132-11.6a11.457,11.457,0,0,0-4.869-3.1c-2.718-1.058-5.511-1.927-8.266-2.947-.793-.264-1.283.982-.566,1.322" transform="translate(-164.495 -116.478)"/>
            <path id="Path_627" data-name="Path 627" d="M267.009,139.935c-4.3-2.342-4.756-7.292-2.6-11.372s5.925-7.443,9.738-9.974a35.753,35.753,0,0,1,12.456-5.176c3.661-.756,7.625-.907,10.455,1.851a.993.993,0,0,0,1.623-.982c-1.208-4.08-7.7-3.891-10.946-3.4a37.286,37.286,0,0,0-16.041,6.612c-4.341,3.136-8.908,7.48-10.455,12.808-1.208,4.156.34,10.163,5.247,10.956.755.113,1.283-.907.528-1.322" transform="translate(-162.391 -68.832)"/>
            <path id="Path_628" data-name="Path 628" d="M266.259,205.462a17.166,17.166,0,0,0-1.963-.151.829.829,0,0,0-.755,1.058,12.3,12.3,0,0,0,1.51,3.287c.528,1.058,1.094,2.116,1.623,3.174.264.529.566,1.02.792,1.587a1.9,1.9,0,0,0,1.321,1.247,3.59,3.59,0,0,0,3.019-1.209c.944-.793,1.85-1.587,2.793-2.38.792-.68,1.925-1.36,2.227-2.456.339-1.247-.755-2.078-1.661-2.682a14.974,14.974,0,0,0-2.944-1.4,16.375,16.375,0,0,0-3.321-.793,6.857,6.857,0,0,0-3.812.227.924.924,0,0,0,.265,1.662,12.3,12.3,0,0,0,2.642.076,11.356,11.356,0,0,1,2.491.378,10.515,10.515,0,0,1,2.3.831c.377.189.755.378,1.132.6.151.076.3.189.491.3a2.7,2.7,0,0,1,.528.378c.038.076,0,.038-.151.189a13.7,13.7,0,0,1-1.132.945c-.755.642-1.51,1.285-2.3,1.927-.377.3-.755.68-1.132.982-.151.113-.6.529-.83.453a1.154,1.154,0,0,1-.377-.453c-.264-.453-.491-.944-.755-1.4-.529-.982-1.057-1.965-1.585-2.985a14.874,14.874,0,0,1-1.434-2.909c-.264.34-.529.718-.755,1.058a20.315,20.315,0,0,0,2.113-.3c.3-.038.453-.416.416-.68a.884.884,0,0,0-.755-.567" transform="translate(-164.056 -127.294)"/>
            <path id="Path_629" data-name="Path 629" d="M198.167,216.686c-.038,0-.377-.491-.113-.038a.455.455,0,0,0,.189.189,3.544,3.544,0,0,0,.453.34,6.673,6.673,0,0,1,.83.6c.566.491,1.057,1.02,1.585,1.549a30.119,30.119,0,0,0,3.586,2.909,31,31,0,0,0,8.153,4.042c.793.264,1.548.529,2.34.718a4.736,4.736,0,0,1,1.887.831.963.963,0,0,0,1.472-1.209c-.83-1.4-2.6-1.587-4.039-1.927a24.767,24.767,0,0,1-4.265-1.473,31.231,31.231,0,0,1-7.662-5.025c-.642-.567-1.246-1.209-1.887-1.776-.34-.264-.679-.529-1.019-.756a2.337,2.337,0,0,0-.717-.264h-.226a.888.888,0,0,0-.3.076c-.151.076-.113.038.038-.038a.644.644,0,0,0-.3,1.247" transform="translate(-123.102 -134.022)"/>
            <path id="Path_630" data-name="Path 630" d="M190.766,213.764a12.7,12.7,0,0,0-4.831,7.14,9.567,9.567,0,0,0,1.85,8.312,11.031,11.031,0,0,0,7.1,3.514,19.133,19.133,0,0,0,8.38-.869,14.642,14.642,0,0,0,7.586-5.591c.566-.869-.792-1.889-1.472-1.1a15.918,15.918,0,0,1-5.662,4.345,17.733,17.733,0,0,1-7.246,1.436,10.738,10.738,0,0,1-6.492-2.078,7.475,7.475,0,0,1-2.491-6.574,11.244,11.244,0,0,1,4.341-7.216c.68-.642-.34-1.889-1.057-1.322" transform="translate(-115.589 -132.914)"/>
            <path id="Path_631" data-name="Path 631" d="M194.874,229.142a3.492,3.492,0,0,0-.868,1.36,10.832,10.832,0,0,0-.566,1.549,21.578,21.578,0,0,0-.679,3.1.881.881,0,0,0,1.321.945c.642-.34,1.321-.642,1.963-.982s1.359-.6,1.963-.982a.906.906,0,0,0,.34-1.133.857.857,0,0,0-1.057-.491,22.059,22.059,0,0,0-2.114,1.058l-2.038,1.02c.453.3.868.642,1.321.945a17.55,17.55,0,0,1,.6-3.06c.113-.491.264-.944.415-1.436a5.673,5.673,0,0,0,.34-1.587.555.555,0,0,0-.944-.3" transform="translate(-119.998 -142.474)"/>
            <path id="Path_632" data-name="Path 632" d="M203.628,240.312a11.435,11.435,0,0,0,3.171,1.965c1.17.529,2.378,1.02,3.586,1.473a37.733,37.733,0,0,0,7.322,1.813.937.937,0,0,0,1.095-.642.905.905,0,0,0-.642-1.1,39.141,39.141,0,0,1-7.209-1.662c-1.132-.378-2.265-.831-3.359-1.322a34.788,34.788,0,0,0-3.435-1.473.569.569,0,0,0-.528.945" transform="translate(-126.676 -148.921)"/>
            <path id="Path_633" data-name="Path 633" d="M193.23,227.431c-.038-.076-.113-.189-.151-.264.037.076.037.113.075.189a.76.76,0,0,0-.151-.3l-.113-.113c-.113-.113-.189-.264-.3-.378l-.453-.453a6.246,6.246,0,0,0-1.17-.869.954.954,0,0,0-.641-.076.894.894,0,0,0-.491.416.857.857,0,0,0,.34,1.133,3.421,3.421,0,0,1,.6.416c-.075-.038-.113-.076-.189-.113l.68.567.3.3a2.359,2.359,0,0,0,.453.416c-.038-.038-.114-.076-.151-.113a1.606,1.606,0,0,1,.226.264.707.707,0,0,0,.528.189.785.785,0,0,0,.453-.189.874.874,0,0,0,.151-1.02" transform="translate(-118.128 -140.082)"/>
            <path id="Path_634" data-name="Path 634" d="M145.481,226.874c-1.849-.113-3.17,1.02-4.152,2.456a6.882,6.882,0,0,0-1.246,2.456,2.338,2.338,0,0,0,1.132,2.569c1.774,1.1,3.888-.151,5.436-1.133,1.434-.907,2.793-2.418,2.378-4.231-.377-1.587-2.3-3.287-3.963-2.229a.908.908,0,0,0,.944,1.549l.076-.038c-.113.038.037,0,.075,0,.151,0-.227.038,0,0,.037,0,.151.038-.038,0,.038,0,.3.076.151,0,.076.038.113.038.189.076.037,0,.226.151.151.076l.075.076c.038.038.114.076.151.151.037.038.226.264.151.151l.226.34c.037.076.075.113.113.189-.037-.113,0,0,0,.076,0,.038.076.378.076.189v.34c-.038.076-.038.151-.076.227,0-.038.076-.113-.037.076a.949.949,0,0,1-.151.264,4.313,4.313,0,0,1-1.17,1.171c-.566.378-1.17.718-1.774,1.058a2.559,2.559,0,0,1-1.774.34.972.972,0,0,1-.49-.3l-.038-.038c-.114-.189,0,.038-.038-.113a.785.785,0,0,1,0-.416,6.02,6.02,0,0,1,.906-1.851c.6-.982,1.585-2.3,2.868-2.267.642-.038.6-1.171-.151-1.209" transform="translate(-87.175 -140.885)"/>
            <path id="Path_635" data-name="Path 635" d="M98.118,237.048a66.864,66.864,0,0,0,5.548,5.78,71.653,71.653,0,0,0,20.268,12.845c.717.3,1.434.6,2.151.869.377.151,1.095.34,1.246.718a1.708,1.708,0,0,1-.038.756c-.075.416-.113.831-.189,1.247-.151.869-.3,1.738-.491,2.569a1.03,1.03,0,0,0,2,.491,32.4,32.4,0,0,0,.83-4.647,2.811,2.811,0,0,0-.717-2.078,5.021,5.021,0,0,0-1.7-.944,76,76,0,0,1-7.4-3.287,77.985,77.985,0,0,1-13.739-8.954,83.962,83.962,0,0,1-6.983-6.234c-.528-.453-1.283.34-.793.869" transform="translate(-60.986 -146.866)"/>
            <path id="Path_636" data-name="Path 636" d="M121.075,197.944a2.977,2.977,0,0,0,.415-.756c.075-.264.113-.529.189-.793.113-.529.226-1.058.377-1.587a26.338,26.338,0,0,1,.981-2.909,28.7,28.7,0,0,1,3.057-5.591,29.4,29.4,0,0,1,9.549-8.614A34.791,34.791,0,0,1,148.4,173.5c2.378-.3,4.718-.3,7.1-.378a20.743,20.743,0,0,0,7.285-1.171,7.958,7.958,0,0,0,4.265-4.383,13.907,13.907,0,0,0,1.246-5.894.9.9,0,0,0-1.774-.189c-.226.793-.377,1.587-.6,2.38-.113.378-.189.793-.34,1.171-.151.453-.264.831-.415,1.171-.189.378-.377.793-.566,1.133-.113.189-.189.34-.3.529a1.587,1.587,0,0,0-.151.264h0c-.038.076-.113.113-.151.189a5.736,5.736,0,0,1-.83.831c.151-.151-.114.076-.114.113a.783.783,0,0,1-.226.151c-.151.113-.491.264-.529.3-2.038.945-4.643,1.058-6.945,1.133a63.894,63.894,0,0,0-7.1.453c-9.021,1.322-17.551,5.78-23.062,13.185a30.05,30.05,0,0,0-3.586,6.234c-.453,1.133-.868,2.267-1.208,3.438-.151.6-.3,1.209-.415,1.813a7.063,7.063,0,0,0-.113.945,3.185,3.185,0,0,0,.151,1.02c.076.416.83.453,1.057,0" transform="translate(-74.62 -100.055)"/>
            <path id="Path_637" data-name="Path 637" d="M184.348,74.039a14.273,14.273,0,0,0,.6-3.589c.113-1.171.113-2.342.113-3.514a43.867,43.867,0,0,0-.528-7.065,35.648,35.648,0,0,0-4.6-13.223,29.124,29.124,0,0,0-4.341-5.516,39.338,39.338,0,0,0-6.115-4.8c-4.152-2.758-8.681-5.025-12.607-8.2a28.046,28.046,0,0,1-5.4-5.591,18.515,18.515,0,0,1-1.849-3.211c-.491-1.209-.83-2.456-1.208-3.7a1.048,1.048,0,0,0-2.038.34,14.033,14.033,0,0,0,2.378,6.725,24.62,24.62,0,0,0,4.642,5.44c3.737,3.362,8.19,5.78,12.455,8.425,4.152,2.569,8.077,5.516,10.946,9.521a34.889,34.889,0,0,1,5.36,12.316,43.948,43.948,0,0,1,1.019,7.707,34.592,34.592,0,0,1,0,3.967A27.321,27.321,0,0,0,183.1,74a.639.639,0,0,0,1.246.038" transform="translate(-91.129 -9.283)"/>
            <path id="Path_638" data-name="Path 638" d="M186.637,15.5c-.226-.113-.113-.076-.151-.34,0-.076.075-.189-.076.038.076-.076.076-.076.038,0,.227-.151.264-.189.151-.113-.453-.113-.868-.227-1.321-.3A28.723,28.723,0,0,0,198.79,28.342,30.31,30.31,0,0,0,208,31.176a17.942,17.942,0,0,0,9.662-.982A10.2,10.2,0,0,0,222,26.755c1.208-1.7,1.963-4.269.906-6.2a1,1,0,0,0-1.85.567,9.055,9.055,0,0,1-.113,2.267,6.04,6.04,0,0,1-.981,2.116,7.676,7.676,0,0,1-3.095,2.456,16.716,16.716,0,0,1-8.342,1.133,26.7,26.7,0,0,1-15.7-7.254,27.29,27.29,0,0,1-5.926-8.085.972.972,0,0,0-1.321-.3,1.476,1.476,0,0,0-.642.982,2.645,2.645,0,0,0,.038.945,1.785,1.785,0,0,0,1.208,1.171c.641.151,1.019-.793.453-1.058" transform="translate(-115.12 -8.28)"/>
            <path id="Path_639" data-name="Path 639" d="M265.457,116.154a6.31,6.31,0,0,0-3.548,3.551,3.81,3.81,0,0,0-.3,2.8,2.332,2.332,0,0,0,2.34,1.285,6.217,6.217,0,0,0,4.793-2.153,4.067,4.067,0,0,0,.906-2.531,3.566,3.566,0,0,0-.906-2.418,3.36,3.36,0,0,0-2.3-.982,2.776,2.776,0,0,0-2.3,1.209.866.866,0,0,0,.339,1.171.9.9,0,0,0,1.17-.34c-.113.151.113-.113.151-.151-.151.151,0,0,.038-.038a.287.287,0,0,1,.151-.076c.114-.076-.189.038.038,0,.038,0,.113-.038.151-.038.076,0,.114-.038.189-.038-.189.038.038,0,.076,0h.3c-.113,0,.114.038.114.038.075,0,.151.038.227.038.037,0,.075.038.151.038-.151-.076.038.038.075.038.038.038.076.038.114.076h0c.038.038.075.038.075.076a.529.529,0,0,0,.151.113c.151.151-.075-.113.037.076.038.038.076.113.114.151,0,0,.113.227.075.113a1.49,1.49,0,0,1,.151.793,3.48,3.48,0,0,1-.151.718,2.807,2.807,0,0,1-.377.756c.076-.113,0,.038-.037.038-.076.076-.113.151-.189.189l-.151.151s-.226.189-.113.113a4.555,4.555,0,0,1-.906.567c.113-.038-.076.038-.114.038a.533.533,0,0,1-.226.076c-.151.038-.3.113-.453.151-.34.076-.679.151-.906.189-.151,0-.264.038-.415.038h-.265c-.037,0-.189-.038,0,0a1.446,1.446,0,0,1-.377-.113c.189.076-.037-.038-.075-.038.038,0,.038.038.075.038h0c-.037,0-.037-.076-.075-.113v-.076a1.286,1.286,0,0,1,.038-.378,9.476,9.476,0,0,1,.264-.982c.075-.264-.076.151.038-.113a1.808,1.808,0,0,0,.113-.264,3.161,3.161,0,0,1,.265-.491,7.97,7.97,0,0,1,.528-.831,6.255,6.255,0,0,1,1.548-1.436.608.608,0,0,0,.226-.793c-.189-.151-.528-.378-.83-.227" transform="translate(-162.763 -71.989)"/>
            <path id="Path_640" data-name="Path 640" d="M306.762,215.594a17.1,17.1,0,0,0,9.247.6,20.678,20.678,0,0,0,4.416-1.4,8.252,8.252,0,0,0,3.774-2.909.82.82,0,0,0-.944-1.171c-1.359.529-2.529,1.511-3.85,2.153a17.688,17.688,0,0,1-3.888,1.4,15.746,15.746,0,0,1-8.266-.491.95.95,0,0,0-1.132.68.928.928,0,0,0,.642,1.133" transform="translate(-190.556 -131.079)"/>
            <path id="Path_641" data-name="Path 641" d="M317.209,226.743c-1.057.076-2.416.34-3.019,1.285a1.54,1.54,0,0,0-.076,1.511,2.161,2.161,0,0,0,1.283,1.02,4.936,4.936,0,0,0,1.812.3,2.854,2.854,0,0,0,1.849-.491c1.019-.793.642-2.267-.189-3.06a2.278,2.278,0,0,0-2-.567c-.83.151-1.585.529-2.378.718a.193.193,0,0,0,.076.378,10.537,10.537,0,0,0,1.774-.529,2.4,2.4,0,0,1,1.774-.076c.831.378,1.586,1.587.982,2.456a1.825,1.825,0,0,1-1.472.68,5.257,5.257,0,0,1-1.547-.113c-.83-.189-2.038-.793-1.623-1.889a1.882,1.882,0,0,1,1.132-.945,6.309,6.309,0,0,1,1.661-.416c.189.076.189-.264-.038-.264" transform="translate(-195.455 -141.057)"/>
            <path id="Path_642" data-name="Path 642" d="M98.685,107.78c-.038-.076-.113-.113-.151-.189.113.34.189.642.3.982.226-.982,1.925-2.116,2.642-2.834a25.867,25.867,0,0,1,3.4-2.682,26.563,26.563,0,0,1,7.662-3.476,22.778,22.778,0,0,1,15.7,1.473,20.641,20.641,0,0,1,12,19.8,19.479,19.479,0,0,1-.68,4.194,24.95,24.95,0,0,0-1.057,3.74c-.113,1.209,1.623,1.7,2.34.907,1.7-1.813,2.151-4.949,2.416-7.329a24.173,24.173,0,0,0-.453-7.9,23.343,23.343,0,0,0-8.115-13.072,26.838,26.838,0,0,0-36.612,3.514c-.679.831-1.585,1.776-1.51,2.909a1.417,1.417,0,0,0,1.51,1.473.884.884,0,0,0,.6-1.511" transform="translate(-60.119 -59.534)"/>
            <path id="Path_643" data-name="Path 643" d="M96.5,125.561c-.3,2.04.868,4.345,1.7,6.158a31.967,31.967,0,0,0,3.435,5.78,32.769,32.769,0,0,0,10.078,8.841,32.169,32.169,0,0,0,28.95,1.02c1.887-.869.189-3.589-1.7-2.72a28.49,28.49,0,0,1-35.177-8.765,30.305,30.305,0,0,1-2.982-4.836c-.868-1.776-1.207-4.194-2.377-5.7-.491-.718-1.774-.756-1.925.227" transform="translate(-60.047 -77.655)"/>
            <path id="Path_644" data-name="Path 644" d="M297.862,179.291a44.975,44.975,0,0,0,7.4-.907,24.888,24.888,0,0,0,6.68-2.834c3.284-2.078,7.209-5.894,7.4-10.05.076-1.436-2-1.813-2.642-.642-.944,1.738-1.472,3.476-2.755,5.025a16.125,16.125,0,0,1-4.3,3.514,36.443,36.443,0,0,1-12.04,3.967c-1.132.189-.83,2.04.264,1.927" transform="translate(-184.827 -102.143)"/>
            <path id="Path_645" data-name="Path 645" d="M292.479,127.477c1.019-.567,2.529-.227,3.623-.113,1.208.151,2.378.34,3.548.6a20.889,20.889,0,0,1,6.605,2.645,14.687,14.687,0,0,1,4.718,4.8c1.17,1.927,1.472,3.929,2.038,6.045.34,1.247,2.453,1.322,2.68-.076.868-5.4-3.737-10.692-8.077-13.261a23.9,23.9,0,0,0-8.568-2.985c-2.378-.378-5.737-1.133-7.813.378a1.164,1.164,0,0,0,1.246,1.965" transform="translate(-180.991 -77.531)"/>
            <path id="Path_646" data-name="Path 646" d="M309.1,129.594a16.032,16.032,0,0,0,2.793,1.662,11.575,11.575,0,0,1,2.34,1.927,13.045,13.045,0,0,1,1.283,17.152,19.372,19.372,0,0,1-5.322,4.609.713.713,0,0,0,.566,1.285,11.188,11.188,0,0,0,5.775-4.043,15.789,15.789,0,0,0,3.17-6.423,15.026,15.026,0,0,0-3.623-13.223,14.5,14.5,0,0,0-2.944-2.531c-1.019-.68-2.416-1.587-3.7-1.436a.613.613,0,0,0-.34,1.02" transform="translate(-192.324 -79.988)"/>
            <path id="Path_647" data-name="Path 647" d="M117.26,104.559a12.665,12.665,0,0,0-7.134,5.969,14.645,14.645,0,0,0-1.585,4.458,18.176,18.176,0,0,0-.415,4.949,9.027,9.027,0,0,0,1.849,5.214.69.69,0,0,0,.906.038.737.737,0,0,0,.151-.907,13.322,13.322,0,0,1-.944-8.463,16.161,16.161,0,0,1,1.321-4.156,13.164,13.164,0,0,1,2.416-3.325,14.555,14.555,0,0,1,3.925-2.8c.566-.264.113-1.171-.491-.982" transform="translate(-67.294 -65.04)"/>
            <path id="Path_648" data-name="Path 648" d="M166.734,110.224c4.077,2.72,5.548,8.085,5.284,12.694a18.311,18.311,0,0,1-2.227,7.82,12.2,12.2,0,0,1-5.209,4.949,15.837,15.837,0,0,1-8,1.662c-1.057-.038-1.284,1.738-.189,1.851a15.965,15.965,0,0,0,8.152-1.4,14.248,14.248,0,0,0,6.341-5.214,19.124,19.124,0,0,0,2.944-8.387,18.745,18.745,0,0,0-.868-8.425,11.536,11.536,0,0,0-5.623-6.574.594.594,0,0,0-.6,1.02" transform="translate(-96.916 -67.91)"/>
            <path id="Path_649" data-name="Path 649" d="M131.008,108.855a12.573,12.573,0,0,0-6.567,3.854,11.853,11.853,0,0,0-3.02,7.027c-.453,5.44,3.472,10.465,8.568,12.09,5.209,1.625,11.4-1.247,14.154-5.818a13.29,13.29,0,0,0,1.321-8.765,11.534,11.534,0,0,0-3.586-6.838,11.348,11.348,0,0,0-6.077-2.418,12.328,12.328,0,0,0-4.076.3,12.74,12.74,0,0,0-4.114,1.587,12.873,12.873,0,0,0-1.812,1.4c-.755.718.34,2.153,1.208,1.473a12.7,12.7,0,0,1,7.1-2.569,5.569,5.569,0,0,1,.793-.038h.3a.478.478,0,0,1,.226.038,11.235,11.235,0,0,1,1.623.34c.528.151,1.019.3,1.547.491.038,0,.377.151.189.076.076.038.189.076.264.113l.453.227a3.147,3.147,0,0,1,.453.3s.151.113.038.038.075.076.075.076a1.89,1.89,0,0,1,.3.264,13.957,13.957,0,0,1,1.057,1.058,9.094,9.094,0,0,1,1.51,3.022,12.143,12.143,0,0,1,0,7.329,9.492,9.492,0,0,1-4.341,4.987,12.31,12.31,0,0,1-3.246,1.36,8.822,8.822,0,0,1-3.133.264,10.094,10.094,0,0,1-8.606-8.652,9.759,9.759,0,0,1,1.434-6.234,11.436,11.436,0,0,1,4.869-4.307,7.736,7.736,0,0,1,1.548-.6c.793-.416.415-1.7-.453-1.473" transform="translate(-75.57 -67.145)"/>
            <path id="Path_650" data-name="Path 650" d="M273.959,142.865a14.484,14.484,0,0,0-2.906,6.5,8.319,8.319,0,0,0,2.114,6.725,11.009,11.009,0,0,0,12.3,2.871,10.262,10.262,0,0,0,4.68-4.08,12.509,12.509,0,0,0,1.623-6.158,8.519,8.519,0,0,0-2.227-5.969,12.319,12.319,0,0,0-2.34-1.851,8.272,8.272,0,0,0-2.906-1.247,10.7,10.7,0,0,0-7.171.831c-2.265,1.171-3.548,3.4-5.02,5.365-.529.68.377,1.625,1.019.945a27.811,27.811,0,0,1,4-4.156,8.1,8.1,0,0,1,5.209-1.285c3.4.189,6.718,2.645,7.285,6.083a10.279,10.279,0,0,1-.642,5.1,7.909,7.909,0,0,1-3.057,3.778,8.859,8.859,0,0,1-10.228-.6,7.1,7.1,0,0,1-2.944-5.7,12.237,12.237,0,0,1,2.491-6.536.686.686,0,0,0-.264-.945.877.877,0,0,0-1.019.34" transform="translate(-168.699 -86.723)"/>
            <path id="Path_651" data-name="Path 651" d="M137.474,271.551c.227,2.116.717,4.118.755,6.272.038,2.078-.793,4.307-.491,6.309a1.178,1.178,0,0,0,2.189.529c1.17-1.776,1.019-4.836.906-6.914a17.457,17.457,0,0,0-1.51-6.763,1.021,1.021,0,0,0-1.849.567" transform="translate(-85.585 -168.335)"/>
            <path id="Path_652" data-name="Path 652" d="M201.4,300.506a3.774,3.774,0,0,0,.34,3.778c.679.982,2.189,2.418,3.51,1.851a1.1,1.1,0,0,0,.6-1.625c-.491-.718-1.4-.944-1.925-1.625a5.868,5.868,0,0,1-.905-2.191.906.906,0,0,0-1.623-.189" transform="translate(-125.161 -186.712)"/>
            <path id="Path_653" data-name="Path 653" d="M162.5,339.133a10.221,10.221,0,0,1,6.077-2.116,18.174,18.174,0,0,1,7.171,1.587c3.737,1.776,5.813,5.78,7.586,9.332.68,1.36,2.718.113,2.039-1.247-2.3-4.534-4.831-9.029-9.889-10.843-4.265-1.511-11.512-2.645-14.267,2.116a.914.914,0,0,0,1.283,1.171" transform="translate(-100.301 -208.148)"/>
            <path id="Path_654" data-name="Path 654" d="M221.794,343.024c.642-3.778-2-12.316,4.114-12.807a1.21,1.21,0,0,0-.076-2.418c-7.247.34-6.567,10.163-5.85,15.037.151.907,1.623,1.285,1.812.189" transform="translate(-136.69 -203.954)"/>
            <path id="Path_655" data-name="Path 655" d="M206.076,308.3c2.3,5.4,3.133,10.994,4,16.737A.963.963,0,0,0,212,325c.377-6.045-1.7-12.09-4.416-17.341-.453-.831-1.887-.189-1.51.642" transform="translate(-128.256 -191.186)"/>
            <path id="Path_656" data-name="Path 656" d="M212.569,315.555c-.528.151-.415.3.227.491.377.189.755.378,1.132.6.755.416,1.472.869,2.189,1.322,1.51,1.02,2.831,2.267,4.3,3.325a1.069,1.069,0,0,0,1.472-1.549,23.5,23.5,0,0,0-6.3-4.76c-1.321-.756-3.359-2.267-4.491-.567a.922.922,0,0,0,.189,1.1c.037.076.113.113.151.189a.68.68,0,0,0,1.132-.151" transform="translate(-131.352 -195.149)"/>
            <path id="Path_657" data-name="Path 657" d="M163.661,328.414a13.415,13.415,0,0,0,4.227-7.594c.3-1.436-1.925-1.965-2.189-.567a15.383,15.383,0,0,1-3.435,6.763.989.989,0,0,0,1.4,1.4" transform="translate(-100.862 -198.752)"/>
            <path id="Path_658" data-name="Path 658" d="M162.339,318.323c-3.7-3.438-8.643-6.007-13.1-8.312a87.754,87.754,0,0,0-14.456-5.7c-1.472-.453-2.076,1.927-.6,2.342a80.53,80.53,0,0,1,14.23,5.554c2.189,1.1,4.3,2.267,6.378,3.551,2.151,1.322,4.152,2.947,6.341,4.231a1.043,1.043,0,0,0,1.208-1.662" transform="translate(-83.009 -189.303)"/>
            <path id="Path_659" data-name="Path 659" d="M94.161,304.578c-4.379-2.758-10.078,1.7-12.833,4.8a73.416,73.416,0,0,1-5.662,6.2,52.423,52.423,0,0,1-7.285,5.251c-.755.491-.226,1.776.642,1.473a27.237,27.237,0,0,0,11.927-8.538,43.844,43.844,0,0,1,5.057-5.516,11.128,11.128,0,0,1,3.548-2.04,11.377,11.377,0,0,1,4.227-.264.734.734,0,0,0,.377-1.36" transform="translate(-42.347 -188.97)"/>
            <path id="Path_660" data-name="Path 660" d="M68.364,349.6c-1.057,5.516,4.529,11.221,8.266,14.508,4.039,3.514,11.21,6.951,16.419,3.891,1.019-.6.566-2.531-.679-2.342-2.718.416-5.02.945-7.775.264a17.986,17.986,0,0,1-7.021-3.7,27.114,27.114,0,0,1-5.246-5.554,17.184,17.184,0,0,1-2.718-7.1c-.113-.642-1.132-.567-1.246.038" transform="translate(-42.48 -217.216)"/>
            <path id="Path_661" data-name="Path 661" d="M143.6,384.678c-2.491-1.473-5.02-2.871-7.926-1.851-1.548.529-3.02,1.322-4.529,1.927a4.488,4.488,0,0,0-2.944,2.456c-.226.6.415,1.171.944,1.171a4.035,4.035,0,0,0,2.717-1.171,17.967,17.967,0,0,1,3.208-2.078c2.831-1.322,5.171-.68,7.813.756a.7.7,0,0,0,.717-1.209" transform="translate(-79.785 -237.976)"/>
            <path id="Path_662" data-name="Path 662" d="M139.971,390.661a17.25,17.25,0,0,0,2.491,6.045,36.6,36.6,0,0,0,3.85,5.969c.868.982,2.415-.34,1.736-1.436-1.17-1.927-2.6-3.7-3.737-5.667-1.057-1.813-1.812-3.816-3.17-5.4a.691.691,0,0,0-1.17.491" transform="translate(-87.138 -242.638)"/>
            <path id="Path_663" data-name="Path 663" d="M126.321,397.642c0-.076-.038-.113-.038-.189-.151.264-.3.567-.453.831.075,0,.113-.038.189-.038-.3-.113-.6-.227-.868-.34.944,1.511,2.265,2.8,3.322,4.269,1.17,1.587,2.265,3.249,3.321,4.949,1.019,1.625,2,3.287,2.906,4.949.981,1.7,1.849,4.042,3.4,5.289a1.065,1.065,0,0,0,1.736-1.1,12,12,0,0,0-2-3.665l-2.378-3.514c-1.547-2.3-2.944-4.647-4.567-6.914q-1.019-1.473-2.152-2.834c-.641-.756-1.472-2.229-2.415-2.569a.975.975,0,0,0-1.246,1.4c.415.718,1.4.151,1.246-.529" transform="translate(-77.79 -246.823)"/>
            <path id="Path_664" data-name="Path 664" d="M159.341,446.3c4.038-.529,7.662-1.1,11.7,0,1.66.453,2.3-2.3.641-2.569-4.038-.6-8.756-.869-12.606.793-.868.416-.83,1.927.264,1.776" transform="translate(-98.656 -275.801)"/>
            <path id="Path_665" data-name="Path 665" d="M191.541,445.1c1.434,2.947,3.661,5.176,4.6,8.387.868,2.909.944,5.818,1.472,8.8.226,1.247,2,.793,2.076-.34A25,25,0,0,0,192.862,444c-.717-.718-1.7.3-1.321,1.1" transform="translate(-119.194 -276.104)"/>
            <path id="Path_666" data-name="Path 666" d="M194.563,487.657a13.913,13.913,0,0,0,5.662,2.758c1.246.227,1.737-1.662.491-1.927a16.527,16.527,0,0,1-5.284-1.965c-.717-.453-1.548.642-.868,1.133" transform="translate(-120.97 -302.647)"/>
            <path id="Path_667" data-name="Path 667" d="M174.638,459.226c.642,2.04,1.51,4,2.3,6.007.793,1.965,1.887,4.118,1.963,6.309.075,2.04-1.095,4.307-1.963,6.12-.906,2-1.925,4.043-3.02,5.931.566-.076,1.132-.189,1.7-.264a35.665,35.665,0,0,1-3.51-5.591c-.566-.982-1.85-.189-1.661.756a12.891,12.891,0,0,0,3.7,6.423,1.1,1.1,0,0,0,1.7-.264,58.649,58.649,0,0,0,3.4-6.914c.755-1.889,1.849-4,2-6.083.151-2.04-1.321-4.458-2.076-6.309a37.231,37.231,0,0,0-3.284-6.612.674.674,0,0,0-1.246.491" transform="translate(-106.103 -285.21)"/>
            <path id="Path_668" data-name="Path 668" d="M140.072,485.341a7.848,7.848,0,0,0-2.831,3.7,5.887,5.887,0,0,0,.528,4.647c1.472,3.136,3.321,6.309,6.567,7.9,1.4.68,2.529-1.473,1.132-2.078-2.378-1.02-3.661-3.1-4.793-5.327a12.918,12.918,0,0,1-1.4-3.325c-.34-1.776.717-3.1,1.736-4.42.453-.567-.226-1.662-.944-1.1" transform="translate(-85.275 -301.879)"/>
            <path id="Path_669" data-name="Path 669" d="M157.364,493.685c2.982-2.229,4.793-6.158,5.586-9.71.755-3.287.038-8.387-2.076-11.07a.838.838,0,0,0-1.51.68,26.788,26.788,0,0,1,1.4,4.8,20.106,20.106,0,0,1-.226,4.987c-.453,3.627-2.076,6.12-4.378,8.878-.6.756.3,2.116,1.208,1.436" transform="translate(-97.095 -294.016)"/>
            <path id="Path_670" data-name="Path 670" d="M138.7,474.463a16.3,16.3,0,0,1-1.925-4c-.3-1.36.453-2.72-.264-3.967a.907.907,0,0,0-1.434-.151c-1.283,1.1-.566,3.514-.189,4.949a7.563,7.563,0,0,0,2.718,4.345c.755.416,1.434-.529,1.095-1.171" transform="translate(-83.635 -289.981)"/>
            <path id="Path_671" data-name="Path 671" d="M57.117,403.291a38.438,38.438,0,0,1,6.983,8.463,33.326,33.326,0,0,0,5.813,7.556,38.8,38.8,0,0,0,7.587,5.478c2.567,1.473,5.624,3.4,8.606,3.778.944.113,1.812-1.02.981-1.738-2.3-2-5.548-3.06-8.152-4.534a48.507,48.507,0,0,1-7.851-5.44c-5.02-4.382-7.209-11.258-13.059-14.734a.749.749,0,0,0-.906,1.171" transform="translate(-35.422 -250.129)"/>
            <path id="Path_672" data-name="Path 672" d="M59.35,380.166c.793-2.116,1.4-4.307,2.19-6.46a46.486,46.486,0,0,1,3.095-6.5c.793-1.473-1.547-2.682-2.227-1.209-1.925,4.383-3.85,9.256-4.341,14.054-.113.793,1.056.756,1.283.113" transform="translate(-36.146 -227.306)"/>
            <path id="Path_673" data-name="Path 673" d="M107.7,408.633a5.183,5.183,0,0,0,1.4,5.365c1.321,1.171,3.812,1.851,4.793-.113,1.057-2.078-1.057-3.7-2.491-4.8-.83-.642-1.774-1.625-2.906-1.587a1.542,1.542,0,0,0-1.51,1.625c-.038.945,1.359,1.02,1.585.189,0,.038,2.416,1.738,2.642,1.927.491.416,2,2.078.491,2.191-.868.076-1.774-.869-2.151-1.549a4.086,4.086,0,0,1-.528-2.871.687.687,0,0,0-1.321-.378" transform="translate(-66.6 -253.544)"/>
            <path id="Path_674" data-name="Path 674" d="M128.683,422.891a3.522,3.522,0,0,0-.642,4,2.94,2.94,0,0,0,3.435,1.247,2.591,2.591,0,0,0,1.623-3.287c-.491-1.662-2.114-2.342-3.7-2.456-.83-.038-.868,1.171-.151,1.4a3.248,3.248,0,0,1,2.038,1.322c.264.491.189,1.058-.415,1.209-1.359.378-1.812-1.549-1.132-2.418.566-.756-.453-1.738-1.057-1.02" transform="translate(-79.472 -262.815)"/>
            <path id="Path_675" data-name="Path 675" d="M150.8,415.4c-1.095.151-1.585,1.36-2.114,2.229-.528.831-1.4,1.927-.717,2.909a1.176,1.176,0,0,0,2.114-.34,1.031,1.031,0,0,0-.3-1.02l-.038-.038a.966.966,0,0,0-1.095-.113.037.037,0,0,0-.038.038.821.821,0,0,0-.264,1.171l.038.038c.264-.453.491-.907.755-1.36h-.075c.34.264.717.491,1.057.756a.2.2,0,0,0-.076-.151v.642a8.939,8.939,0,0,1,.981-2c.3-.642.83-1.436.49-2.154-.113-.34-.377-.642-.717-.6" transform="translate(-91.964 -258.456)"/>
            <path id="Path_676" data-name="Path 676" d="M176.165,434.8c2.227-.453,5.246-1.511,7.473-.869-.264-.264-.529-.491-.793-.756.566,1.4,1.887,2.3,2.906,3.4a15.239,15.239,0,0,1,3.284,5.025.771.771,0,0,0,1.472-.453,13.9,13.9,0,0,0-1.963-4.836,17.569,17.569,0,0,0-3.246-4.194c-1.132-.831-2.906-.491-4.227-.3a20.437,20.437,0,0,0-5.548,1.662c-.755.378-.113,1.511.642,1.322" transform="translate(-109.063 -268.533)"/>
            <path id="Path_677" data-name="Path 677" d="M193.973,496.146c4.227,3.362,10.983,3.778,16.192,3.967a80.5,80.5,0,0,0,9.059-.076c2.114-.151,4.6-.529,5.4-2.758.377-1.1-.981-1.851-1.849-1.36a9.2,9.2,0,0,1-2.868,1.4c-1.057.189-2.151.227-3.208.34a72.045,72.045,0,0,1-7.549.3,37.671,37.671,0,0,1-7.436-.831c-2.416-.529-4.642-1.587-6.983-2.267-.755-.189-1.359.793-.755,1.285" transform="translate(-120.607 -307.887)"/>
            <path id="Path_678" data-name="Path 678" d="M270.509,352.341a117.364,117.364,0,0,1,.453,13.639,116.923,116.923,0,0,1-1.7,14.054c-1.547,8.992-3.434,17.983-3.888,27.126-.075,1.662,2.416,1.549,2.529-.076.83-9.483,2.793-18.815,4.039-28.222,1.17-8.69,2.34-18.172-.076-26.748a.7.7,0,0,0-1.359.227" transform="translate(-165.212 -218.787)"/>
            <path id="Path_679" data-name="Path 679" d="M205.741,308.313c1.321.793,3.02.869,4.529,1.133,1.623.264,3.246.529,4.831.793,1.623.264,3.208.567,4.831.831,1.736.3,3.774.378,5.36,1.1,2.227,1.058,2.679-2.8.642-2.569a19.318,19.318,0,0,1-5.473-.6c-1.737-.264-3.472-.529-5.246-.793-1.736-.264-3.473-.567-5.209-.831a11.029,11.029,0,0,0-4.152-.264.672.672,0,0,0-.113,1.209" transform="translate(-127.883 -191.005)"/>
            <path id="Path_680" data-name="Path 680" d="M258.328,316.267c1.774,3.627,5.813,4.949,9.4,6.007,2.227.68,4.378,1.511,6.605,2.229,1.51.491,3.623.642,4.681-.68a1.136,1.136,0,0,0-.264-1.738c-1.4-.6-2.907-.189-4.416-.264A24.3,24.3,0,0,1,268.9,320.5a26.9,26.9,0,0,1-5.4-1.889,22.561,22.561,0,0,1-4-3.325.777.777,0,0,0-1.17.982" transform="translate(-160.768 -196.049)"/>
            <path id="Path_681" data-name="Path 681" d="M299.568,334.355a18.906,18.906,0,0,1,3.02,7.254,26.208,26.208,0,0,1-.528,9.067c-.981,4.8-2.227,11.75-8.417,11.372-1.132-.076-1.17,1.4-.453,1.889,2.227,1.625,5.511.378,7.209-1.436,2.34-2.531,2.831-6.271,3.51-9.483,1.321-6.2,2.491-15.074-2.755-19.91a1.015,1.015,0,0,0-1.585,1.247" transform="translate(-182.23 -207.073)"/>
            <path id="Path_682" data-name="Path 682" d="M279.1,400.5c.793.756,1.963,1.1,2.831,1.813.868.68,1.434,1.965,2.529,2.229a1.18,1.18,0,0,0,1.434-1.133c.151-1.322-1.623-2.569-2.6-3.249a5.386,5.386,0,0,0-3.85-1.247.953.953,0,0,0-.339,1.587" transform="translate(-173.58 -248.169)"/>
            <path id="Path_683" data-name="Path 683" d="M338.031,321.428a38.653,38.653,0,0,1-10.606,4.685c-1.774.491-3.51.907-5.246,1.511-1.283.453-3.246.831-4.227,1.814.717.189,1.434.34,2.151.529v-.113c-.377.529-.755,1.02-1.132,1.549h.075a1.165,1.165,0,0,0,.944-1.776c0-.038-.037-.038-.037-.076a1.255,1.255,0,0,0-1.661-.378c-.037.038-.075.038-.113.076a1.25,1.25,0,0,0-.6,1.133v.076a1.459,1.459,0,0,0,1.849,1.36c1.661-.491,3.322-1.36,4.982-1.927,1.812-.642,3.586-1.36,5.36-2.078,3.17-1.284,6.681-2.682,9.1-5.214.566-.68-.151-1.587-.83-1.171" transform="translate(-197.707 -199.926)"/>
            <path id="Path_684" data-name="Path 684" d="M340.463,346.93c-6.416,2.418-11.134,9.029-15.324,14.13-4.831,5.932-11.436,8.463-18.419,10.956-1.095.378-1.585,2.267-.3,2.8a2.783,2.783,0,0,0,3.434-.718c1.019-1.02-.453-2.947-1.623-2a.2.2,0,0,1-.34.076c-.114.945-.189,1.851-.3,2.8,6.681-2.38,13.437-5.138,18.117-10.692,2.416-2.834,4.529-5.856,7.021-8.614a93.5,93.5,0,0,1,8.492-7.443.773.773,0,0,0-.755-1.285" transform="translate(-190.288 -215.832)"/>
            <path id="Path_685" data-name="Path 685" d="M346.56,338.108c-1.887-.3-3.85.6-4,2.72-.189,2.3,1.887,3.665,4,3.325,2-.34,3.661-2.229,2.982-4.307-.566-1.813-3.1-2.493-4.227-.831-.377.529.3,1.322.906,1.1.641-.264,1.472-.189,1.51.642.037.945-.944,1.436-1.737,1.473-.868.038-1.623-.453-1.434-1.4a1.842,1.842,0,0,1,1.887-1.322c.755-.038.906-1.285.113-1.4" transform="translate(-213.257 -210.334)"/>
            <path id="Path_686" data-name="Path 686" d="M330.633,354.124a2.375,2.375,0,0,0-1.019,3.891,3.241,3.241,0,0,0,4.718-.189,2.879,2.879,0,0,0-.3-4.345c-1.246-.831-3.284-.68-3.812.907-.264.756.717,1.1,1.208.68.981-.831,2.378.076,1.585,1.284a1.389,1.389,0,0,1-1.7.567c-.453-.189-.981-1.1-.264-1.36a.747.747,0,0,0-.415-1.436" transform="translate(-204.802 -219.626)"/>
            <path id="Path_687" data-name="Path 687" d="M372.694,307.569a13.639,13.639,0,0,0,2.68-4.571c.49-1.587,1.208-3.816.528-5.4a1.067,1.067,0,0,0-2.038.038c-.529,1.4-.151,3.022-.529,4.5a18.3,18.3,0,0,1-1.812,4.571c-.415.68.642,1.511,1.17.869" transform="translate(-231.237 -184.708)"/>
            <path id="Path_688" data-name="Path 688" d="M373.411,261.481a12.409,12.409,0,0,1,2,6.158c.037,1.889-1.284,3.7-.868,5.516a1.021,1.021,0,0,0,1.51.567c2-1.1,1.812-4.76,1.585-6.687a10.409,10.409,0,0,0-3.057-6.46.751.751,0,0,0-1.17.907" transform="translate(-232.408 -162.005)"/>
            <path id="Path_689" data-name="Path 689" d="M376.822,293.868c.038,0,.075,0,.075.038a5.478,5.478,0,0,0-.491-.34,1.184,1.184,0,0,0,.265.34c.037.038.226.151.076.038a2.744,2.744,0,0,1,.3.34c-.151-.151.037.076.075.113.037.076.037.038,0-.038,0,.038.037.076.037.151,0,.038.038.076.038.151,0-.113-.038-.151,0-.038v.189a1.212,1.212,0,0,0,.189.718.969.969,0,0,0,1.132.416,1.4,1.4,0,0,0,.869-1.4,2.346,2.346,0,0,0-.34-1.209c-.453-.793-1.51-1.436-2.34-.831.113-.038.264-.076.377-.113h-.113a.746.746,0,0,0-.151,1.473" transform="translate(-234.233 -181.849)"/>
            <path id="Path_690" data-name="Path 690" d="M401.331,286.929c1.736,1.322,3.548-.982,5.02-1.813a7.715,7.715,0,0,1,2.491-1.247,2.949,2.949,0,0,1,2.189,1.1,11.929,11.929,0,0,1,2.34,3.136c.265.529,1.359,2.909,1.17,3.362a8.948,8.948,0,0,1-1.774.982c-.755.378-1.51.756-2.3,1.133a48.112,48.112,0,0,1-8.794,2.947c.529.378,1.02.756,1.548,1.133-.075-1.7-1.774-5.289.339-6.234,1.02-.453,1.02-2.229-.339-2.116a3.172,3.172,0,0,0-2.831,2.38c-.68,2.04.3,4,.415,6.045a1.217,1.217,0,0,0,1.547,1.133,49.624,49.624,0,0,0,11.059-4c1.094-.567,2.906-1.133,3.359-2.418.453-1.322-.377-3.325-.868-4.5-.981-2.3-3.246-5.743-5.888-6.347-1.4-.3-2.869.6-4.077,1.247-1.585.869-2.906,2.191-4.529,2.947-.377.113-.415.869-.075,1.133" transform="translate(-249.118 -175.175)"/>
            <path id="Path_691" data-name="Path 691" d="M393.773,320.6a12.345,12.345,0,0,0-4.529,6.385c-.641,2.418.982,4,2.869,5.176,2.415,1.511,4.944,2.456,7.662,1.133,2.416-1.171,4-2.569,3.51-5.365-.226-1.247-2.34-.907-2.227.34.151,1.776-1.774,3.022-3.36,3.325-1.811.34-3.774-.907-5.208-1.927-3.133-2.267,1.019-5.932,2.3-8.123.416-.6-.415-1.36-1.019-.945" transform="translate(-242.239 -199.405)"/>
            <path id="Path_692" data-name="Path 692" d="M384.553,324.292a10.441,10.441,0,0,0,3.019,3.4c.981.6,1.962-.831,1.17-1.587a23.444,23.444,0,0,1-2.831-2.645c-.6-.793-1.925,0-1.359.831" transform="translate(-239.322 -201.053)"/>
            <path id="Path_693" data-name="Path 693" d="M410.632,296.87a11.9,11.9,0,0,0-1.547,1.171,5.474,5.474,0,0,0-1.283,1.36.9.9,0,0,0,1.057,1.285,5.174,5.174,0,0,0,1.66-1.058,14.863,14.863,0,0,0,1.4-1.247,1.01,1.01,0,0,0-1.283-1.511" transform="translate(-253.815 -184.625)"/>
            <path id="Path_694" data-name="Path 694" d="M406.821,317.284c-2.038.907-2.151,3.325-.679,4.874,1.849,1.927,5.359,2.947,7.964,3.174,2.567.189,5.624-.831,6.341-3.589.679-2.531-.868-6.272-2.491-8.161-.906-1.058-2.227.34-1.737,1.436a21.211,21.211,0,0,1,1.963,4.194,2.9,2.9,0,0,1-2.831,3.854,10.232,10.232,0,0,1-4-.642c-.566-.189-5.511-2.116-3.7-3.4.755-.6.189-2.191-.83-1.738" transform="translate(-252.229 -194.876)"/>
            <path id="Path_695" data-name="Path 695" d="M375.309,259.807a17.383,17.383,0,0,1,1.925-.831,7.49,7.49,0,0,1,2.755.076,5.9,5.9,0,0,1,4.718,3.022,9.91,9.91,0,0,1,.793,5.629c-.189,2-.415,4.231-1.547,5.931-.49.756.377,1.587,1.132,1.4,2.491-.642,2.793-5.176,3.019-7.216a10.584,10.584,0,0,0-1.887-7.934c-1.661-2.078-4.076-2.682-6.605-2.871-1.736-.151-5.02-.151-5.133,2.229a.64.64,0,0,0,.83.567" transform="translate(-233.136 -159.877)"/>
            <path id="Path_696" data-name="Path 696" d="M175.679,128.117c4.643,0,4.454-7.216-.189-7.216s-4.454,7.216.189,7.216" transform="translate(-107.144 -75.224)" fill="#fff"/>
            <path id="Path_697" data-name="Path 697" d="M315.212,150.953c4.492,0,4.3-6.952-.189-6.952-4.454,0-4.265,6.952.189,6.952" transform="translate(-194.1 -89.597)" fill="#fff"/>
            <g id="Group_62" data-name="Group 62" transform="translate(39.699 43.326)" opacity="0.3">
              <g id="Group_61" data-name="Group 61">
                <g id="Group_60" data-name="Group 60" clip-path="url(#clip-path-3)">
                  <path id="Path_698" data-name="Path 698" d="M108.387,122.772c2.378-.416,4.982-.529,7.4-.718a42.638,42.638,0,0,1,7.284.038,29.676,29.676,0,0,1,13.286,4.42c2.265,1.436,5.322.038,6.265-2.267,1.057-2.682-.528-4.987-3.02-5.932a53.811,53.811,0,0,0-16.683-3.589,37.987,37.987,0,0,0-8.53.567,27.8,27.8,0,0,0-8.039,2.947,2.472,2.472,0,0,0-.944,3.174,2.532,2.532,0,0,0,2.981,1.36" transform="translate(-105.179 -114.678)" fill="#fff"/>
                </g>
              </g>
            </g>
            <g id="Group_65" data-name="Group 65" transform="translate(100.322 52.601)" opacity="0.3">
              <g id="Group_64" data-name="Group 64">
                <g id="Group_63" data-name="Group 63" clip-path="url(#clip-path-4)">
                  <path id="Path_699" data-name="Path 699" d="M290.626,140.957c-2.151-.416-4.341-.756-6.53-1.1a25.286,25.286,0,0,0-6.756-.567c-4,.34-8.681,1.473-11.1,4.949-1.51,2.191,1.132,4.194,3.133,3.891a38.733,38.733,0,0,0,4.869-1.625,23.151,23.151,0,0,1,4.265-.907,38.472,38.472,0,0,1,11.022-.038c2.906.378,4.114-4,1.095-4.609" transform="translate(-265.797 -139.23)" fill="#fff"/>
                </g>
              </g>
            </g>
          </g>
        </g>
      </g>
    </g>
  </g>
</svg>
