<svg xmlns="http://www.w3.org/2000/svg" xmlns:xlink="http://www.w3.org/1999/xlink" width="200" height="200.429" viewBox="0 0 200 200.429">
  <defs>
    <clipPath id="clip-path">
      <rect id="Rectangle_24" data-name="Rectangle 24" width="141.725" height="161.429" fill="none"/>
    </clipPath>
    <clipPath id="clip-path-3">
      <rect id="Rectangle_20" data-name="Rectangle 20" width="14.183" height="15.442" transform="translate(124.178 102.219)" fill="none"/>
    </clipPath>
    <clipPath id="clip-path-4">
      <rect id="Rectangle_21" data-name="Rectangle 21" width="11.202" height="15.647" transform="translate(96.291 91.691)" fill="none"/>
    </clipPath>
    <clipPath id="clip-path-5">
      <rect id="Rectangle_22" data-name="Rectangle 22" width="14.778" height="9.806" transform="translate(126.947 116.692)" fill="none"/>
    </clipPath>
  </defs>
  <g id="Group_235" data-name="Group 235" transform="translate(-420 -1177)">
    <circle id="Ellipse_8" data-name="Ellipse 8" cx="100" cy="100" r="100" transform="translate(420 1177)" fill="#fff1dc"/>
    <g id="Group_39" data-name="Group 39" transform="translate(449 1216)">
      <g id="Group_38" data-name="Group 38" clip-path="url(#clip-path)">
        <g id="Group_37" data-name="Group 37">
          <g id="Group_36" data-name="Group 36" clip-path="url(#clip-path)">
            <path id="Path_423" data-name="Path 423" d="M140.382,157.917c0-1.94-31.426-3.512-70.191-3.512S0,155.977,0,157.917s31.425,3.512,70.191,3.512,70.191-1.573,70.191-3.512" fill="#f15a24"/>
            <path id="Path_424" data-name="Path 424" d="M60.288,144.8l.525,3.31-2.479,3.264-6.444-3.046-.735-3.024,7.951-1.314Z" fill="#f2bf75"/>
            <path id="Path_425" data-name="Path 425" d="M55.268,155.543l-.672-.809a.307.307,0,0,0-.474,0l-.653.787a1.388,1.388,0,0,1-1.071.5l-14.876-.05a.8.8,0,0,1-.041-1.124c2.15-2.23,13.83-6.194,14.409-6.522s4.206,2.41,8.924-.218a50.48,50.48,0,0,1,.966,6.123,1.7,1.7,0,0,1-1.693,1.816l-3.776-.012a1.366,1.366,0,0,1-1.043-.492" fill="#1f2528"/>
            <path id="Path_426" data-name="Path 426" d="M84.126,144.932l.525,3.31-2.48,3.264-6.443-3.046-.735-3.024,7.951-1.313Z" fill="#f2bf75"/>
            <path id="Path_427" data-name="Path 427" d="M79.105,155.677l-.672-.809a.307.307,0,0,0-.474,0l-.653.787a1.388,1.388,0,0,1-1.071.5l-14.876-.05a.8.8,0,0,1-.041-1.124c2.15-2.229,13.829-6.193,14.409-6.522s4.206,2.41,8.924-.218a50.346,50.346,0,0,1,.965,6.123,1.7,1.7,0,0,1-1.693,1.816l-3.775-.012a1.359,1.359,0,0,1-1.043-.492" fill="#1f2528"/>
            <path id="Path_428" data-name="Path 428" d="M49.821,37.764,45.293,55.048,32.968,46.823,27.392,51.25,43.484,66.313,55.057,55.576Z" fill="#cee5ed"/>
            <path id="Path_429" data-name="Path 429" d="M32.95,46.827l-3.586-7.078a1.481,1.481,0,0,0-2.07-.592,5.383,5.383,0,0,0-2.531,5.753c.486,2.261,1.308,4.934,2.629,6.34Z" fill="#f2bf75"/>
            <path id="Path_430" data-name="Path 430" d="M28.517,33.165l-3.932-.32c-.571-.047-.936.32-.811.815l2.789,11.05a1.482,1.482,0,0,0,1.266.984l3.932.32c.916.075,1.445,1.7.81-.815l-2.789-11.05a1.479,1.479,0,0,0-1.265-.984" fill="#1f2528"/>
            <path id="Path_431" data-name="Path 431" d="M32.966,46.856l.824-2.625a1.493,1.493,0,0,0-.473-1.918l-1.366-.949A.975.975,0,0,0,30.8,42.936l.629.487.643.485-1.524,2.3Z" fill="#f2bf75"/>
            <path id="Path_432" data-name="Path 432" d="M84.92,145.7c0-3.862-4.486-68.147-4.486-68.147s-9.059-8.819-13.99-7.885c-4.929-.934-16.139,5.6-16.139,5.6s.234,66.566.234,70.428H61.217s.074-30.649,4.236-52.783a.972.972,0,0,1,1.886-.1c4.162,22.135,6.9,52.881,6.9,52.881Z" fill="#1f2528"/>
            <path id="Path_433" data-name="Path 433" d="M66.649,27.321s12.6,3.084,14.348,5.1,8.3,14.549,8.18,18.773c-.137,4.946-8.615,15.5-8.448,14.885v14.9S61.419,87,49.753,79.629c0,0-1.338-38.256.268-42.519.493-1.31,6.838-6.839,8.716-7.51s7.912-2.279,7.912-2.279" fill="#cee5ed"/>
            <path id="Path_434" data-name="Path 434" d="M89.176,51.19C89.055,55.6,82.3,64.474,80.957,65.9l-.008.008-.221.165L76.471,69.9,71.343,65.27s9.453-6.738,8.146-15.388c-.921-6.086-7.242-17-7.242-17A23.421,23.421,0,0,1,66.3,27.415c.222-.061.347-.093.347-.093S79.256,30.4,81,32.415s8.3,14.551,8.179,18.775" fill="#cee5ed"/>
            <path id="Path_435" data-name="Path 435" d="M87.408,47.949H45.823A4.552,4.552,0,0,0,41.271,52.5V71.432a4.552,4.552,0,0,0,4.552,4.552H87.408a4.552,4.552,0,0,0,4.552-4.552V52.5a4.552,4.552,0,0,0-4.552-4.552" fill="#f7931e"/>
            <path id="Path_436" data-name="Path 436" d="M87.408,47.949h-5.38A4.551,4.551,0,0,1,86.579,52.5V71.432a4.551,4.551,0,0,1-4.551,4.552h5.38a4.552,4.552,0,0,0,4.552-4.552V52.5a4.552,4.552,0,0,0-4.552-4.552" fill="#f15a24"/>
            <rect id="Rectangle_17" data-name="Rectangle 17" width="50.688" height="6.513" transform="translate(41.271 57.011)" fill="#1f2528"/>
            <rect id="Rectangle_18" data-name="Rectangle 18" width="9.982" height="1.381" transform="translate(46.085 67.913)" fill="#1f2528"/>
            <rect id="Rectangle_19" data-name="Rectangle 19" width="4.826" height="1.381" transform="translate(46.085 70.992)" fill="#1f2528"/>
            <path id="Path_437" data-name="Path 437" d="M67.32,20.314v8.951s-2.917,8.951-9.655,1.911l-.6-7.141Z" fill="#ea9249"/>
            <path id="Path_438" data-name="Path 438" d="M49.82,13.308s-11.4-2.414-4.358-12.136c0,0,1.207,5.163,7.376.738,3.143-2.256,7.806-2.82,13.007,0,5.565,3.017,7.509,12.27,2.749,17.1l-9.32-1.878Z" fill="#1f2528"/>
            <path id="Path_439" data-name="Path 439" d="M49.82,13.308S48.479,28.8,58.737,27.79c8.013-.785,7.711-6.838,7.711-6.838s2.615-.537,2.749-2.884-.6-4.291-2.95-2.749c0,0-4.157-2.682-4.425-4.559a26.063,26.063,0,0,1-12,2.548" fill="#f2bf75"/>
            <path id="Path_440" data-name="Path 440" d="M63.342,79.864a1.644,1.644,0,0,0,.421,2.27L65.5,83.542a1.643,1.643,0,0,0,2.307-.059l5.461-6.8-5.223-4.017-5.679,4.011a.7.7,0,0,0,.017,1.151,1.322,1.322,0,0,0,.941.194,2.324,2.324,0,0,0,1.507-.77Z" fill="#f6ba8e"/>
            <path id="Path_441" data-name="Path 441" d="M67.06,72.732l6.1,4.908S89.723,59.315,89.791,52.309c.039-3.94-4.747-13.427-7.745-18.545H71.311s7.658,11.528,9.97,17.058a3.352,3.352,0,0,1-.335,3.189c-2.8,4.077-11.058,16-13.886,18.721" fill="#cee5ed"/>
            <path id="Path_442" data-name="Path 442" d="M82.046,33.764s6.118,15.17,6.089,18.213c-.059,6.032-13.3,20.377-16.709,24.269l1.732,1.394S89.723,59.315,89.791,52.309c.038-3.94-4.747-13.427-7.745-18.545" fill="#b4ccd3"/>
            <path id="Path_443" data-name="Path 443" d="M79.695,47.826l-.338.121H51.685l-.378-.121,26.013-.667s-3.378-9.377-2.848-9.112,5.223,9.779,5.223,9.779" fill="#b4ccd3"/>
            <path id="Path_444" data-name="Path 444" d="M54.329,25.531a6.066,6.066,0,0,1-1.25-3.218,4.6,4.6,0,0,1-1.375-.157c-.156-.155.375-4.437.281-5.187-.066-.528-.344-2.593-.5-3.718a16.022,16.022,0,0,1-1.665.056S48.479,28.8,58.738,27.79c-2.5.039-3.315-1.1-4.409-2.259" fill="#ea9249"/>
            <path id="Path_445" data-name="Path 445" d="M33.242,18.635a8.713,8.713,0,1,0-7.263,10.154l1.786,2.058.368-2.676a8.716,8.716,0,0,0,5.109-9.536M20.221,20.987a1.073,1.073,0,1,1,1.073-1.073,1.072,1.072,0,0,1-1.073,1.073m4.324,0a1.073,1.073,0,1,1,1.073-1.073,1.072,1.072,0,0,1-1.073,1.073m4.27,0a1.073,1.073,0,1,1,1.073-1.073,1.072,1.072,0,0,1-1.073,1.073" fill="#0e5c77"/>
            <path id="Path_446" data-name="Path 446" d="M135.375,113.064c3.153-3.341,3.933-7.725,1.742-9.793s-6.523-1.037-9.676,2.3-5.4,9.278-3.208,11.345,7.989-.516,11.142-3.856" fill="#208476"/>
            <g id="Group_29" data-name="Group 29" opacity="0.26">
              <g id="Group_28" data-name="Group 28">
                <g id="Group_27" data-name="Group 27" clip-path="url(#clip-path-3)">
                  <path id="Path_447" data-name="Path 447" d="M137.117,103.271a4.047,4.047,0,0,0-2.56-1.052,3.6,3.6,0,0,1,.307.247c2.191,2.069,1.411,6.453-1.742,9.794-2.372,2.513-6.24,4.6-8.944,4.594.02.021.034.047.055.067,2.192,2.068,7.989-.516,11.142-3.857s3.933-7.725,1.742-9.793" fill="#0f2a3f"/>
                </g>
              </g>
            </g>
            <path id="Path_448" data-name="Path 448" d="M119.346,100.2c.422-4.506-1.49-8.37-4.271-8.63s-5.375,3.182-5.8,7.688,1.295,10.465,4.075,10.725,5.572-5.277,5.993-9.783" fill="#39b54a"/>
            <path id="Path_449" data-name="Path 449" d="M115.075,91.573a3.325,3.325,0,0,0-1.524.225c2.281.913,3.75,4.4,3.375,8.405-.349,3.732-2.324,8.16-4.571,9.428a2.261,2.261,0,0,0,1,.356c2.781.259,5.572-5.277,5.994-9.784s-1.491-8.37-4.271-8.63" fill="#208476"/>
            <path id="Path_450" data-name="Path 450" d="M105.812,96.741c-1.928-3.795-5.389-5.908-7.73-4.718s-2.678,5.23-.749,9.026,6.284,7.671,8.626,6.482,1.781-6.995-.147-10.79" fill="#208476"/>
            <g id="Group_32" data-name="Group 32" opacity="0.26">
              <g id="Group_31" data-name="Group 31">
                <g id="Group_30" data-name="Group 30" clip-path="url(#clip-path-4)">
                  <path id="Path_451" data-name="Path 451" d="M105.812,96.741c-1.928-3.795-5.389-5.908-7.73-4.718a3.651,3.651,0,0,0-1.791,2.447,3.027,3.027,0,0,1,.717-.516c2.342-1.189,5.8.923,7.731,4.719,1.353,2.664,2.028,6.313,1.5,8.666,2-1.511,1.414-6.968-.43-10.6" fill="#0f2a3f"/>
                </g>
              </g>
            </g>
            <path id="Path_452" data-name="Path 452" d="M102.088,112.6c-3.716-1.664-7.509-1.27-8.473.88s1.269,5.244,4.985,6.908,9.237,2.044,10.2-.107-3-6.016-6.712-7.681" fill="#39b54a"/>
            <path id="Path_453" data-name="Path 453" d="M102.088,112.6c-3.716-1.664-7.509-1.27-8.473.88a2.759,2.759,0,0,0-.167,1.632c1.027-2.073,4.761-2.437,8.426-.795,2.99,1.339,6.133,4.1,6.746,6.253a1.549,1.549,0,0,0,.18-.289c.963-2.15-3-6.016-6.712-7.681" fill="#208476"/>
            <path id="Path_454" data-name="Path 454" d="M136.394,125.72c3.71-1.322,6.015-4.366,5.148-6.8s-4.576-3.335-8.286-2.013-7.74,4.979-6.873,7.413,6.3,2.72,10.011,1.4" fill="#208476"/>
            <g id="Group_35" data-name="Group 35" opacity="0.26">
              <g id="Group_34" data-name="Group 34">
                <g id="Group_33" data-name="Group 33" clip-path="url(#clip-path-5)">
                  <path id="Path_455" data-name="Path 455" d="M141.542,118.921a3.823,3.823,0,0,0-2.461-2.228,3.267,3.267,0,0,1,.959,1.37c.867,2.433-1.438,5.477-5.148,6.8a13.262,13.262,0,0,1-7.945.3c1.7,1.634,6.222,1.7,9.447.555,3.71-1.322,6.015-4.366,5.148-6.8" fill="#0f2a3f"/>
                </g>
              </g>
            </g>
            <path id="Path_456" data-name="Path 456" d="M117.094,139.092a42.088,42.088,0,0,1,13.186-27.433c.3-.285-.154-.739-.455-.455a42.763,42.763,0,0,0-13.375,27.888c-.033.413.611.411.644,0" fill="#1f2528"/>
            <path id="Path_457" data-name="Path 457" d="M114.752,137.589A56.637,56.637,0,0,0,103,101.74c-.249-.324-.807,0-.556.326a56.076,56.076,0,0,1,11.668,35.523.323.323,0,0,0,.645,0" fill="#1f2528"/>
            <path id="Path_458" data-name="Path 458" d="M112.031,118.682c1.755-5.592,2.2-11.531,2.419-17.359.015-.414-.628-.413-.644,0-.213,5.776-.656,11.647-2.4,17.188-.124.4.5.566.621.171" fill="#1f2528"/>
            <path id="Path_459" data-name="Path 459" d="M102.027,117.605a57.6,57.6,0,0,0,10.129,4.728c.388.147.556-.476.171-.621a56.865,56.865,0,0,1-9.975-4.663c-.352-.221-.675.336-.325.556" fill="#1f2528"/>
            <path id="Path_460" data-name="Path 460" d="M129.452,122.618a68.675,68.675,0,0,1-9.528,3.183.322.322,0,0,0,.171.621,68.852,68.852,0,0,0,9.528-3.183c.377-.158.212-.781-.171-.621" fill="#1f2528"/>
            <path id="Path_461" data-name="Path 461" d="M103.961,136.1l1.955,17.709a4.369,4.369,0,0,0,4.342,3.89h11.29a4.371,4.371,0,0,0,4.343-3.89l1.954-17.709a1.626,1.626,0,0,0-1.616-1.806H105.577a1.626,1.626,0,0,0-1.616,1.806" fill="#cee5ed"/>
            <path id="Path_462" data-name="Path 462" d="M126.229,134.294h-7.161a1.627,1.627,0,0,1,1.617,1.806l-1.956,17.709a4.368,4.368,0,0,1-4.342,3.889h7.16a4.369,4.369,0,0,0,4.343-3.889l1.955-17.709a1.627,1.627,0,0,0-1.616-1.806" fill="#aac6ce"/>
          </g>
        </g>
      </g>
    </g>
  </g>
</svg>
