<svg id="Group_155" data-name="Group 155" xmlns="http://www.w3.org/2000/svg" xmlns:xlink="http://www.w3.org/1999/xlink" width="454" height="442" viewBox="0 0 454 442">
  <defs>
    <clipPath id="clip-path">
      <rect id="Rectangle_86" data-name="Rectangle 86" width="454" height="442" fill="none"/>
    </clipPath>
    <clipPath id="clip-path-2">
      <rect id="Rectangle_73" data-name="Rectangle 73" width="454.001" height="442" fill="none"/>
    </clipPath>
    <clipPath id="clip-path-3">
      <rect id="Rectangle_70" data-name="Rectangle 70" width="41.781" height="220.744" fill="none"/>
    </clipPath>
    <clipPath id="clip-path-4">
      <rect id="Rectangle_71" data-name="Rectangle 71" width="14.201" height="130.646" fill="none"/>
    </clipPath>
    <clipPath id="clip-path-5">
      <path id="Path_983" data-name="Path 983" d="M753.028,2682.253a3.894,3.894,0,0,0,3.724,4.219c7.525.313,23.621.923,29.4.666a1.267,1.267,0,0,0,1.115-1.736,2.835,2.835,0,0,0-1.45-1.528l-26.588-12.223-4.695-.76s-1.008,5.71-1.5,11.362" transform="translate(-753.013 -2670.891)" fill="none"/>
    </clipPath>
    <linearGradient id="linear-gradient" x1="-3.314" y1="0.83" x2="-3.31" y2="0.83" gradientUnits="objectBoundingBox">
      <stop offset="0" stop-color="#2b3582"/>
      <stop offset="1" stop-color="#150e42"/>
    </linearGradient>
    <clipPath id="clip-path-6">
      <path id="Path_984" data-name="Path 984" d="M757.4,2644.012l.81,6.83s4.658,2.169,7.839-.273l-1.929-7.611Z" transform="translate(-757.397 -2642.957)" fill="none"/>
    </clipPath>
    <linearGradient id="linear-gradient-2" x1="-13.821" y1="2.465" x2="-13.802" y2="2.465" gradientUnits="objectBoundingBox">
      <stop offset="0" stop-color="#f9b776"/>
      <stop offset="1" stop-color="#f47960"/>
    </linearGradient>
    <clipPath id="clip-path-8">
      <path id="Path_986" data-name="Path 986" d="M548.547,2700.3a2.376,2.376,0,0,0,2.09,2.846c2.485.244,6.31.559,9.374.538a2.369,2.369,0,0,0,2.345-2.643,19.986,19.986,0,0,0-4.663-10.958l-5.986-.324s-1.605,2.883-3.159,10.542" transform="translate(-548.499 -2689.762)" fill="none"/>
    </clipPath>
    <linearGradient id="linear-gradient-3" x1="-4.193" y1="1.023" x2="-4.185" y2="1.023" xlink:href="#linear-gradient"/>
    <clipPath id="clip-path-9">
      <path id="Path_987" data-name="Path 987" d="M559.892,2631.972l1.893,10.328s1.871,1.393,5.574.383l-.9-11.113Z" transform="translate(-559.892 -2631.57)" fill="none"/>
    </clipPath>
    <linearGradient id="linear-gradient-4" x1="-11.833" y1="2.193" x2="-11.812" y2="2.193" xlink:href="#linear-gradient-2"/>
    <clipPath id="clip-path-11">
      <path id="Path_993" data-name="Path 993" d="M567.229,1130.562c-1.326,3.034,3.565,6.01,6.54,5.61l-.864-3.3s-2.64-3.245-4.434-3.246a1.319,1.319,0,0,0-1.242.931" transform="translate(-567.006 -1129.631)" fill="none"/>
    </clipPath>
    <linearGradient id="linear-gradient-5" x1="-8.301" y1="25.453" x2="-8.286" y2="25.453" xlink:href="#linear-gradient-2"/>
    <clipPath id="clip-path-13">
      <rect id="Rectangle_81" data-name="Rectangle 81" width="63.156" height="63.173" fill="none"/>
    </clipPath>
    <clipPath id="clip-path-14">
      <rect id="Rectangle_82" data-name="Rectangle 82" width="39.401" height="39.412" fill="none"/>
    </clipPath>
    <clipPath id="clip-path-15">
      <rect id="Rectangle_83" data-name="Rectangle 83" width="33.404" height="33.412" fill="none"/>
    </clipPath>
    <clipPath id="clip-path-16">
      <rect id="Rectangle_84" data-name="Rectangle 84" width="51.712" height="51.727" fill="none"/>
    </clipPath>
  </defs>
  <g id="Group_154" data-name="Group 154" clip-path="url(#clip-path)">
    <g id="Group_125" data-name="Group 125">
      <g id="Group_124" data-name="Group 124" clip-path="url(#clip-path-2)">
        <path id="Path_965" data-name="Path 965" d="M430.835,299.682C386.217,404,268.442,448.808,176.162,441.169c-25.2-2.086-75.891-6.283-115.474-43.726-76.017-71.908-64.309-222.214,8.46-310.706,9.371-11.4,74.238-87.748,175.32-86.726,74.007.748,125.951,42.566,132.268,47.775a203.776,203.776,0,0,1,41.439,47.031c37.267,58.3,40.543,139.677,12.662,204.865" transform="translate(-7.468 -0.001)" fill="#fff8f1"/>
        <path id="Path_966" data-name="Path 966" d="M21.043,210.808c-.237-1.826,2.391-2.756,3.8-1.354,14.307,14.236,47.92,55.927,31.848,121.168-20.165,81.855-3.22,114.2,19.83,135.22,0,0-33.354-12.178-51.766-45.12-45.206-80.881.508-177.449-3.712-209.914" transform="translate(-3.906 -175.82)" fill="#d9efd3"/>
        <g id="Group_120" data-name="Group 120" transform="translate(20.622 61.615)" style="mix-blend-mode: soft-light;isolation: isolate">
          <g id="Group_119" data-name="Group 119">
            <g id="Group_118" data-name="Group 118" clip-path="url(#clip-path-3)">
              <path id="Path_967" data-name="Path 967" d="M136.416,390.837c1.01,9.444,1.805,18.894,2.2,28.346q.679,14.175.358,28.329c-.26,9.427-.723,18.844-1.649,28.218-.877,9.378-2.219,18.7-3.6,28.056-1.324,9.358-2.72,18.777-3,28.378a84.618,84.618,0,0,0,3.79,28.776c.765,2.343,1.581,4.683,2.548,6.963.918,2.3,1.953,4.559,3.034,6.806a102.01,102.01,0,0,0,7.607,13.072,112.184,112.184,0,0,0,21.216,22.76,2.343,2.343,0,0,0,2.983-.035,1.661,1.661,0,0,0-.083-2.548l-.006-.005c-1.934-1.675-3.844-3.368-5.664-5.125-.926-.867-1.806-1.767-2.705-2.652-.86-.913-1.761-1.8-2.588-2.732a101.771,101.771,0,0,1-21.865-37.462,82.556,82.556,0,0,1-3.062-13.691,90.928,90.928,0,0,1-.732-13.932c.192-9.327,1.483-18.662,2.73-28.03s2.4-18.8,3.108-28.264q.557-7.1.818-14.212c.1-2.371.153-4.744.207-7.116q.043-3.561.033-7.122-.085-14.246-1.184-28.482c-.789-9.483-1.868-18.952-3.365-28.38a.575.575,0,0,0-.638-.435.5.5,0,0,0-.486.519" transform="translate(-130.672 -390.316)" fill="#fff"/>
            </g>
          </g>
        </g>
        <path id="Path_968" data-name="Path 968" d="M244.39,550.441a3.945,3.945,0,0,1-6.545-.269c-8.12-13.161-27.714-52.447-10.146-102.86,14.836-42.572,18.836-67.066,19.882-78.311a2.474,2.474,0,0,1,4.582-1.047c13.614,22.557,51.894,100.313-7.773,182.487" transform="translate(-185.79 -308.86)" fill="#d9efd3"/>
        <g id="Group_123" data-name="Group 123" transform="translate(51.96 109.957)" style="mix-blend-mode: soft-light;isolation: isolate">
          <g id="Group_122" data-name="Group 122">
            <g id="Group_121" data-name="Group 121" clip-path="url(#clip-path-4)">
              <path id="Path_969" data-name="Path 969" d="M332.243,827.152a1.068,1.068,0,0,1-.207.044,1.094,1.094,0,0,1-1.21-.965c-.077-.681-7.468-68.768,10.487-128.893a1.094,1.094,0,1,1,2.1.627C325.585,757.653,332.924,825.31,333,825.986a1.094,1.094,0,0,1-.758,1.166" transform="translate(-329.255 -696.558)" fill="#fff"/>
            </g>
          </g>
        </g>
        <path id="Path_970" data-name="Path 970" d="M104.159,964.367a7.45,7.45,0,0,0,7.431,7.426H513.427a7.45,7.45,0,0,0,7.431-7.426L524.2,733.376c0-4.084-4.811-12.058-13.627-11.459l-392.72-10.164A18.728,18.728,0,0,0,98.64,730.91Z" transform="translate(-83.069 -599.392)" fill="#f9ddbe"/>
        <path id="Path_971" data-name="Path 971" d="M150.23,1004.234a7.052,7.052,0,0,0,7.03,7.032H542.471a7.052,7.052,0,0,0,7.03-7.032l3.155-209.7c-.372-12.619-11.432-17.154-18.136-16.887l-376.386-10.1a13.163,13.163,0,0,0-13.5,13.472Z" transform="translate(-121.804 -646.383)" fill="#fcecdb"/>
        <path id="Path_972" data-name="Path 972" d="M2678.3,1534.127h-.016a1.03,1.03,0,0,1-1.015-1.046l.25-17.006a1.03,1.03,0,0,1,1.029-1.015h.015a1.03,1.03,0,0,1,1.015,1.046l-.249,17.006a1.031,1.031,0,0,1-1.03,1.015" transform="translate(-2254.768 -1275.897)" fill="#fff"/>
        <path id="Path_973" data-name="Path 973" d="M1960.535,920.967h-.016a1.031,1.031,0,0,1-1.015-1.046l.956-65.133c-.018-3.869-1.192-6.958-3.49-9.16-4.289-4.111-11.1-3.9-11.386-3.887l-120.3-3.227a1.03,1.03,0,0,1-1-1.057.987.987,0,0,1,1.058-1l120.23,3.227c.748-.044,8-.17,12.827,4.458,2.717,2.6,4.1,6.191,4.125,10.659l-.957,65.154a1.03,1.03,0,0,1-1.029,1.015" transform="translate(-1536.388 -704.41)" fill="#fff"/>
        <path id="Path_974" data-name="Path 974" d="M.893,2372.3H453.109a.9.9,0,0,0,.892-.893V2352.9a.9.9,0,0,0-.892-.893H.893A.9.9,0,0,0,0,2352.9v18.51a.9.9,0,0,0,.892.893" transform="translate(-0.001 -1980.722)" fill="#f9ddbe"/>
        <path id="Rectangle_72" data-name="Rectangle 72" d="M13.934,0H59.813A13.934,13.934,0,0,1,73.748,13.934v0A13.934,13.934,0,0,1,59.813,27.868H13.934A13.934,13.934,0,0,1,0,13.934v0A13.934,13.934,0,0,1,13.934,0Z" transform="translate(321.007 241.78)" fill="#f15a24"/>
        <path id="Path_975" data-name="Path 975" d="M2136.619,1568.476a24.373,24.373,0,0,1,4.242-.332c2.156,0,3.483.261,4.573,1.019a3.369,3.369,0,0,1,1.658,2.986,3.716,3.716,0,0,1-2.654,3.46v.047a4.027,4.027,0,0,1,3.222,3.958,4.143,4.143,0,0,1-1.54,3.294c-1.137,1-3.009,1.493-5.923,1.493a28.277,28.277,0,0,1-3.578-.213Zm2.891,6.3H2141c2.014,0,3.152-.948,3.152-2.3,0-1.493-1.137-2.18-2.986-2.18a7.928,7.928,0,0,0-1.658.118Zm0,7.348a12.826,12.826,0,0,0,1.541.071c1.871,0,3.53-.711,3.53-2.678,0-1.848-1.611-2.607-3.625-2.607h-1.446Z" transform="translate(-1799.436 -1320.601)" fill="#fff"/>
        <path id="Path_976" data-name="Path 976" d="M2225.853,1568.894v9.315c0,3.129,1.3,4.575,3.27,4.575,2.109,0,3.365-1.446,3.365-4.575v-9.315h2.914v9.125c0,4.93-2.536,7.11-6.374,7.11-3.7,0-6.09-2.062-6.09-7.087v-9.149Z" transform="translate(-1872.133 -1321.233)" fill="#fff"/>
        <path id="Path_977" data-name="Path 977" d="M2319.111,1584.869v-6.66l-5.047-9.315h3.317l1.919,4.1c.545,1.185.948,2.085,1.375,3.176h.048c.4-1.019.852-2.015,1.4-3.176l1.919-4.1h3.294l-5.307,9.244v6.731Z" transform="translate(-1948.878 -1321.233)" fill="#fff"/>
        <path id="Path_978" data-name="Path 978" d="M2034.856,1001.691a2.4,2.4,0,0,0-1.974-.8l-70.652,1.483-1.785-5.671a1.838,1.838,0,0,0-1.831-1.274l-9.7.255a1.823,1.823,0,0,0-1.883,1.789,1.718,1.718,0,0,0,1.883,1.7l8.29-.2,15,47.944a1.98,1.98,0,0,0,1.868,1.374l49.59.666a1.907,1.907,0,0,0,2.109-1.816,1.962,1.962,0,0,0-2.109-1.867l-48.143-.519-3.864-12.448,52.905.08a2.45,2.45,0,0,0,2.342-1.691l8.35-27.006a2.127,2.127,0,0,0-.4-2" transform="translate(-1639.768 -838.297)" fill="#f9b39d"/>
        <path id="Path_979" data-name="Path 979" d="M2124.957,1349.035a7.157,7.157,0,0,0-7.381,7.081,7.528,7.528,0,0,0,7.381,7.39,7.156,7.156,0,0,0,7.463-7.079,7.527,7.527,0,0,0-7.463-7.392m0,10.612a3.513,3.513,0,0,1-3.455-3.449,3.34,3.34,0,0,1,3.455-3.3,3.512,3.512,0,0,1,3.473,3.449,3.34,3.34,0,0,1-3.473,3.3" transform="translate(-1783.398 -1136.079)" fill="#f9b39d"/>
        <path id="Path_980" data-name="Path 980" d="M2332.479,1352.292a7.427,7.427,0,0,0-7.747,7.251,7.813,7.813,0,0,0,7.747,7.574,7.429,7.429,0,0,0,7.834-7.249,7.813,7.813,0,0,0-7.834-7.576m0,10.872a3.646,3.646,0,0,1-3.626-3.535,3.466,3.466,0,0,1,3.626-3.383,3.646,3.646,0,0,1,3.645,3.535,3.467,3.467,0,0,1-3.645,3.383" transform="translate(-1957.862 -1138.822)" fill="#f9b39d"/>
        <path id="Path_981" data-name="Path 981" d="M989.032,173.484c52.165-32.233,96.7-31.954,147.936-7.344a9.462,9.462,0,0,1,5.376,8.633l-.024,2.132a9.442,9.442,0,0,1-12.683,8.762c-44.3-16.215-77.493-24.785-131.187,4.181a9.444,9.444,0,0,1-9.417-16.364" transform="translate(-829.172 -124.985)" fill="#39b54a"/>
        <path id="Path_982" data-name="Path 982" d="M920.646,144.391,892.752,187.14a2.056,2.056,0,0,0,1.546,3.172l48.919,4.2a2.384,2.384,0,0,0,2.369-3.371c-11.685-15.036-18.521-30.558-21.362-46.483a2.049,2.049,0,0,0-3.578-.264" transform="translate(-751.582 -120.815)" fill="#39b54a"/>
      </g>
    </g>
    <g id="Group_127" data-name="Group 127" transform="translate(118.834 421.619)">
      <g id="Group_126" data-name="Group 126" clip-path="url(#clip-path-5)">
        <rect id="Rectangle_74" data-name="Rectangle 74" width="35.666" height="36.749" transform="translate(-8.399 8.945) rotate(-47.406)" fill="url(#linear-gradient)"/>
      </g>
    </g>
    <g id="Group_129" data-name="Group 129" transform="translate(119.526 417.21)">
      <g id="Group_128" data-name="Group 128" clip-path="url(#clip-path-6)">
        <rect id="Rectangle_75" data-name="Rectangle 75" width="8.648" height="10.053" fill="url(#linear-gradient-2)"/>
      </g>
    </g>
    <g id="Group_131" data-name="Group 131">
      <g id="Group_130" data-name="Group 130" clip-path="url(#clip-path-2)">
        <path id="Path_985" data-name="Path 985" d="M648.565,1836.2c-.35,1.783-1.878,89,7.442,128.091a1.327,1.327,0,0,1-.778,1.543,23.088,23.088,0,0,1-7.591,1.543,2.284,2.284,0,0,1-2.266-1.64c-2.664-9.069-15.431-54.506-17.1-97.91-1.861-48.5,0-1.651,0-1.651l1.091-29.98Z" transform="translate(-528.43 -1546.343)" fill="#0f1216"/>
      </g>
    </g>
    <g id="Group_133" data-name="Group 133" transform="translate(86.559 424.598)">
      <g id="Group_132" data-name="Group 132" clip-path="url(#clip-path-8)">
        <rect id="Rectangle_77" data-name="Rectangle 77" width="19.915" height="19.933" transform="translate(-7.178 7.558) rotate(-47.406)" fill="url(#linear-gradient-3)"/>
      </g>
    </g>
    <g id="Group_135" data-name="Group 135" transform="translate(88.357 415.412)">
      <g id="Group_134" data-name="Group 134" clip-path="url(#clip-path-9)">
        <rect id="Rectangle_78" data-name="Rectangle 78" width="7.467" height="12.122" transform="translate(0)" fill="url(#linear-gradient-4)"/>
      </g>
    </g>
    <g id="Group_137" data-name="Group 137">
      <g id="Group_136" data-name="Group 136" clip-path="url(#clip-path-2)">
        <path id="Path_988" data-name="Path 988" d="M511.826,1827.426c-7.623,46.019,1.654,113.739,4.782,126.993a2.067,2.067,0,0,0,1.669,1.57,13.87,13.87,0,0,0,5.962-.238,1.894,1.894,0,0,0,1.362-1.744c.42-10.716-.336-76.5,6.767-102.5a5.906,5.906,0,0,1,2.277-3.258l13.786-9.8,1.057-15.847Z" transform="translate(-428.582 -1534.889)" fill="#0f1216"/>
        <path id="Path_989" data-name="Path 989" d="M494.609,1295.874s-35.02-8.73-59.511,4.244l14.58,81.311s23.2,1.87,37.662-2.733Z" transform="translate(-366.435 -1088.891)" fill="#f15a24"/>
        <path id="Path_990" data-name="Path 990" d="M548.551,1156.88l-2.68,23.073a.758.758,0,0,0,.2.954c1.8,1.38,8.38,5.58,17.7,1.473a3.567,3.567,0,0,0,2-2.273l-3.792-20Z" transform="translate(-459.652 -974.258)" fill="#ffb27d"/>
        <path id="Path_991" data-name="Path 991" d="M595.748,1080.683s3.411,16.673.715,22.208-12.062,2.321-18.956-4.851l-1.206-17.273Z" transform="translate(-485.354 -910.089)" fill="#ffb27d"/>
        <path id="Path_992" data-name="Path 992" d="M513.515,1016.451a.619.619,0,0,0,.515-.793,16.168,16.168,0,0,1-.8-5.152s-1.117-1.287,4.107-1.018,13.035.6,15.788-3.1c2.684-3.611,1.766-14.953-6.876-8.678a.619.619,0,0,1-.943-.271c-.632-1.636-2.511-5.2-6.746-4.622-3.963.54-5.113,2.989-5.445,4.3a.616.616,0,0,1-.878.4c-1.67-.859-5.832-2.4-9.1,1.374-2.69,3.109-2.227,5.453-1.553,6.732a.617.617,0,0,1-.543.909c-1.268.013-3.06.557-3.712,3.328-.9,3.829,3.408,4.738,4.658,4.92a.62.62,0,0,1,.472.342c.693,1.441,3.9,7.639,8.745,9.7a.625.625,0,0,0,.862-.607l-.312-6.949a.622.622,0,0,1,.541-.645Z" transform="translate(-418.745 -836.037)" fill="#0f1216"/>
      </g>
    </g>
    <g id="Group_139" data-name="Group 139" transform="translate(89.48 178.32)">
      <g id="Group_138" data-name="Group 138" clip-path="url(#clip-path-11)">
        <rect id="Rectangle_80" data-name="Rectangle 80" width="10.489" height="10.425" transform="matrix(0.741, -0.672, 0.672, 0.741, -4.556, 3.133)" fill="url(#linear-gradient-5)"/>
      </g>
    </g>
    <g id="Group_153" data-name="Group 153">
      <g id="Group_152" data-name="Group 152" clip-path="url(#clip-path-2)">
        <path id="Path_994" data-name="Path 994" d="M926.1,1325.293s13.209,6.141,28.657-10.254c10.558-11.2,17.017-4.335,19.058.188s-2.842,4.146-4.545,4.146-1.914-4.921-4.917-4.251-2.119-.227-2.308,2.788-16.332,37.064-36.3,20.481Z" transform="translate(-779.65 -1102.333)" fill="#ffb27d"/>
        <path id="Path_995" data-name="Path 995" d="M1048.2,1414.628l-34.907-2.2a6.052,6.052,0,0,0-6.382,5.268L999.1,1478.42a6.052,6.052,0,0,0,6,6.826h45.548a6.052,6.052,0,0,0,6.044-6.345l-2.824-58.525a6.052,6.052,0,0,0-5.664-5.749" transform="translate(-841.384 -1189.455)" fill="#f7931e"/>
        <path id="Path_996" data-name="Path 996" d="M1143.2,1346.272a1.13,1.13,0,0,0,1.128-1.084c.033-.78.647-19.122-12.258-21.14a8.842,8.842,0,0,0-7.282,1.929c-6.283,5.194-6.814,18.559-6.833,19.125a1.13,1.13,0,1,0,2.259.078c0-.128.516-12.917,6.016-17.461a6.58,6.58,0,0,1,5.49-1.436c10.934,1.708,10.356,18.64,10.349,18.811a1.131,1.131,0,0,0,1.082,1.177h.048" transform="translate(-941.525 -1114.93)" fill="#f7931e"/>
        <path id="Path_997" data-name="Path 997" d="M786.172,1311.2l21.31,15.977s.377,11.97-2.449,17.63l-23.738-5.835Z" transform="translate(-657.998 -1104.219)" fill="#f15a24"/>
        <path id="Path_998" data-name="Path 998" d="M306.036,1620.834s2.388,30.533,22.482,31.85c0,0,8.613-.79,12.351,2.147s1.927,7.461,1.927,7.461l-16.212-1.977s-23.186,3.862-37.127-34.958Z" transform="translate(-243.777 -1364.974)" fill="#ffb27d"/>
        <path id="Path_999" data-name="Path 999" d="M309.762,1338.089s-27.505,16.366-22.984,49.156c0,0,9.826,4.26,16.97-1.451,0,0,5.567-21.3,17.659-22.364Z" transform="translate(-241.098 -1126.862)" fill="#f15a24"/>
        <path id="Path_1000" data-name="Path 1000" d="M1106.41,625.937a37.309,37.309,0,1,1-37.309-37.32,37.314,37.314,0,0,1,37.309,37.32" transform="translate(-868.963 -495.7)" fill="#f7931e"/>
        <path id="Path_1001" data-name="Path 1001" d="M1068.818,622.133a.832.832,0,0,1-.742-1.208,35.123,35.123,0,0,1,31.508-19.405,35.616,35.616,0,0,1,6.362.572.833.833,0,0,1-.3,1.639,33.9,33.9,0,0,0-6.064-.546,33.468,33.468,0,0,0-30.022,18.49.832.832,0,0,1-.744.457" transform="translate(-899.445 -506.566)" fill="#fff"/>
        <g id="Group_142" data-name="Group 142" transform="translate(169.373 99.464)" opacity="0.78">
          <g id="Group_141" data-name="Group 141">
            <g id="Group_140" data-name="Group 140" clip-path="url(#clip-path-13)">
              <path id="Path_1002" data-name="Path 1002" d="M1136.417,661.673a31.578,31.578,0,1,1-31.578-31.587,31.582,31.582,0,0,1,31.578,31.587" transform="translate(-1073.262 -630.087)" fill="#fff"/>
            </g>
          </g>
        </g>
        <path id="Path_1003" data-name="Path 1003" d="M1196.036,734.406v-3.437a28.009,28.009,0,0,1-9.64-2.091,1.988,1.988,0,0,1-1.1-2.349l.873-3.2a2,2,0,0,1,2.719-1.311,23.255,23.255,0,0,0,8.9,1.875c3.45,0,6.022-1.17,6.022-3.568,0-2.164-1.988-3.45-6.782-4.737-6.841-1.872-11.752-4.854-11.752-10.878,0-5.439,3.976-9.592,10.875-10.7v-3.437a2,2,0,0,1,2-2h2.019a2,2,0,0,1,2,2v3.086a25.533,25.533,0,0,1,7.641,1.373,1.992,1.992,0,0,1,1.245,2.405l-.8,2.96a2,2,0,0,1-2.635,1.349,20.835,20.835,0,0,0-7.494-1.361c-4.093,0-5.262,1.7-5.262,3.217,0,1.871,2.455,3.158,7.776,4.8,7.6,2.281,10.758,5.439,10.758,11.112,0,5.205-3.859,9.884-11.342,11.054v3.846a2,2,0,0,1-2,2h-2.019a2,2,0,0,1-2-2" transform="translate(-998.184 -579.873)" fill="#f7931e"/>
        <path id="Path_1004" data-name="Path 1004" d="M1584.575,954.954a23.276,23.276,0,1,1-23.276-23.283,23.279,23.279,0,0,1,23.276,23.283" transform="translate(-1295.305 -784.6)" fill="#f7931e"/>
        <path id="Path_1005" data-name="Path 1005" d="M1559.069,950.913a.9.9,0,0,1-.806-1.312,22.294,22.294,0,0,1,20-12.317,22.6,22.6,0,0,1,4.038.363.9.9,0,0,1-.324,1.78,20.733,20.733,0,0,0-3.714-.334,20.5,20.5,0,0,0-18.386,11.324.9.9,0,0,1-.808.5" transform="translate(-1312.269 -789.327)" fill="#fff"/>
        <g id="Group_145" data-name="Group 145" transform="translate(246.8 151.155)" opacity="0.78">
          <g id="Group_144" data-name="Group 144">
            <g id="Group_143" data-name="Group 143" clip-path="url(#clip-path-14)">
              <path id="Path_1006" data-name="Path 1006" d="M1603.295,977.249a19.7,19.7,0,1,1-19.7-19.706,19.7,19.7,0,0,1,19.7,19.706" transform="translate(-1563.893 -957.542)" fill="#fff"/>
            </g>
          </g>
        </g>
        <path id="Path_1007" data-name="Path 1007" d="M1640.489,1022.624v-2.144a17.466,17.466,0,0,1-6.014-1.3,1.24,1.24,0,0,1-.686-1.465l.545-2a1.25,1.25,0,0,1,1.7-.818,14.507,14.507,0,0,0,5.553,1.169c2.152,0,3.757-.73,3.757-2.226,0-1.35-1.24-2.153-4.231-2.955-4.267-1.168-7.331-3.029-7.331-6.786,0-3.393,2.48-5.984,6.784-6.677v-2.144a1.249,1.249,0,0,1,1.249-1.249h1.259a1.249,1.249,0,0,1,1.249,1.249V997.2a15.93,15.93,0,0,1,4.767.856,1.243,1.243,0,0,1,.777,1.5l-.5,1.847a1.245,1.245,0,0,1-1.644.841,13,13,0,0,0-4.675-.849c-2.553,0-3.283,1.058-3.283,2.007,0,1.168,1.532,1.97,4.851,2.992,4.742,1.423,6.711,3.393,6.711,6.932,0,3.247-2.407,6.166-7.076,6.9v2.4a1.249,1.249,0,0,1-1.249,1.249h-1.259a1.249,1.249,0,0,1-1.249-1.249" transform="translate(-1375.922 -837.114)" fill="#f7931e"/>
        <path id="Path_1008" data-name="Path 1008" d="M1301.406,1148.682a19.733,19.733,0,1,1-19.733-19.738,19.736,19.736,0,0,1,19.733,19.738" transform="translate(-1062.791 -950.732)" fill="#f7931e"/>
        <path id="Path_1009" data-name="Path 1009" d="M1279.782,1145.258a.766.766,0,0,1-.683-1.112,18.9,18.9,0,0,1,16.955-10.442,19.154,19.154,0,0,1,3.424.308.767.767,0,0,1-.275,1.509,17.585,17.585,0,0,0-3.149-.283,17.375,17.375,0,0,0-15.587,9.6.766.766,0,0,1-.685.421" transform="translate(-1077.173 -954.74)" fill="#fff"/>
        <g id="Group_148" data-name="Group 148" transform="translate(202.609 181.675)" opacity="0.78">
          <g id="Group_147" data-name="Group 147">
            <g id="Group_146" data-name="Group 146" clip-path="url(#clip-path-15)">
              <path id="Path_1010" data-name="Path 1010" d="M1317.276,1167.583a16.7,16.7,0,1,1-16.7-16.706,16.7,16.7,0,0,1,16.7,16.706" transform="translate(-1283.873 -1150.877)" fill="#fff"/>
            </g>
          </g>
        </g>
        <path id="Path_1011" data-name="Path 1011" d="M1348.809,1206.051v-1.818a14.8,14.8,0,0,1-5.1-1.106,1.051,1.051,0,0,1-.581-1.242l.461-1.693a1.06,1.06,0,0,1,1.438-.693,12.3,12.3,0,0,0,4.707.991c1.824,0,3.185-.619,3.185-1.887,0-1.144-1.051-1.825-3.587-2.505-3.618-.99-6.215-2.567-6.215-5.753,0-2.877,2.1-5.073,5.752-5.661v-1.818a1.059,1.059,0,0,1,1.059-1.059H1351a1.059,1.059,0,0,1,1.059,1.059v1.632a13.508,13.508,0,0,1,4.041.726,1.054,1.054,0,0,1,.658,1.272l-.424,1.566a1.056,1.056,0,0,1-1.394.713,11.026,11.026,0,0,0-3.964-.719c-2.165,0-2.783.9-2.783,1.7,0,.99,1.3,1.67,4.113,2.536,4.02,1.206,5.69,2.876,5.69,5.877,0,2.753-2.041,5.227-6,5.846v2.034a1.059,1.059,0,0,1-1.059,1.059h-1.068a1.059,1.059,0,0,1-1.059-1.059" transform="translate(-1131.137 -995.251)" fill="#f7931e"/>
        <path id="Path_1012" data-name="Path 1012" d="M1612.644,460.071a30.549,30.549,0,1,1-30.549-30.558,30.553,30.553,0,0,1,30.549,30.558" transform="translate(-1306.694 -361.711)" fill="#f7931e"/>
        <path id="Path_1013" data-name="Path 1013" d="M1580.677,455.992a.894.894,0,0,1-.406-.1.9.9,0,0,1-.4-1.215,28.981,28.981,0,0,1,26-16.011,29.336,29.336,0,0,1,5.25.472.9.9,0,0,1-.325,1.78,27.507,27.507,0,0,0-4.925-.443,27.181,27.181,0,0,0-24.383,15.018.9.9,0,0,1-.808.5" transform="translate(-1330.467 -369.422)" fill="#fff"/>
        <g id="Group_151" data-name="Group 151" transform="translate(250.21 73.162)" opacity="0.78">
          <g id="Group_150" data-name="Group 150">
            <g id="Group_149" data-name="Group 149" clip-path="url(#clip-path-16)">
              <path id="Path_1014" data-name="Path 1014" d="M1637.214,489.331a25.856,25.856,0,1,1-25.856-25.863,25.86,25.86,0,0,1,25.856,25.863" transform="translate(-1585.502 -463.468)" fill="#fff"/>
            </g>
          </g>
        </g>
        <path id="Path_1015" data-name="Path 1015" d="M1686.03,548.884v-2.814a22.936,22.936,0,0,1-7.893-1.712,1.628,1.628,0,0,1-.9-1.923l.715-2.621a1.64,1.64,0,0,1,2.226-1.074,19.04,19.04,0,0,0,7.288,1.535c2.824,0,4.931-.958,4.931-2.921,0-1.772-1.628-2.825-5.553-3.878-5.6-1.532-9.622-3.975-9.622-8.907,0-4.454,3.255-7.854,8.9-8.763v-2.814a1.639,1.639,0,0,1,1.639-1.64h1.653a1.64,1.64,0,0,1,1.639,1.64v2.526a20.91,20.91,0,0,1,6.256,1.124,1.632,1.632,0,0,1,1.019,1.969l-.657,2.424a1.634,1.634,0,0,1-2.158,1.1,17.064,17.064,0,0,0-6.136-1.114c-3.351,0-4.308,1.388-4.308,2.634,0,1.532,2.01,2.586,6.367,3.927,6.224,1.868,8.809,4.453,8.809,9.1,0,4.262-3.16,8.093-9.287,9.051v3.149a1.639,1.639,0,0,1-1.639,1.64h-1.653a1.64,1.64,0,0,1-1.639-1.64" transform="translate(-1412.501 -430.632)" fill="#f7931e"/>
        <path id="Path_1016" data-name="Path 1016" d="M1202.5,1834.778c-45.542,41.067-89.4,48.781-144.222,33.76a9.462,9.462,0,0,1-6.836-7.529l-.358-2.1a9.443,9.443,0,0,1,10.907-10.9c46.493,8.006,80.68,10.484,128.311-27.644a9.437,9.437,0,0,1,14.948,4.744h0a9.456,9.456,0,0,1-2.75,9.665" transform="translate(-885.095 -1531.269)" fill="#39b54a"/>
        <path id="Path_1017" data-name="Path 1017" d="M1804.256,1822.19l19.778-47.059a2.056,2.056,0,0,0-2.089-2.844l-48.879,4.646a2.384,2.384,0,0,0-1.726,3.741c14.191,12.7,23.7,26.741,29.348,41.9a2.049,2.049,0,0,0,3.567-.382" transform="translate(-1491.436 -1492.511)" fill="#39b54a"/>
      </g>
    </g>
  </g>
</svg>
