<svg xmlns="http://www.w3.org/2000/svg" xmlns:xlink="http://www.w3.org/1999/xlink" width="200" height="200" viewBox="0 0 200 200">
  <defs>
    <clipPath id="clip-path">
      <rect id="Rectangle_28" data-name="Rectangle 28" width="144.762" height="192.883" fill="none"/>
    </clipPath>
    <clipPath id="clip-path-3">
      <rect id="Rectangle_25" data-name="Rectangle 25" width="9.567" height="26.542" transform="translate(12.545 93.134)" fill="none"/>
    </clipPath>
    <clipPath id="clip-path-4">
      <rect id="Rectangle_26" data-name="Rectangle 26" width="11.803" height="18.392" transform="translate(28.728 116.62)" fill="none"/>
    </clipPath>
  </defs>
  <g id="Group_234" data-name="Group 234" transform="translate(-860 -1177)">
    <circle id="Ellipse_6" data-name="Ellipse 6" cx="100" cy="100" r="100" transform="translate(860 1177)" fill="#fff1dc"/>
    <g id="Group_49" data-name="Group 49" transform="translate(882 1184)">
      <g id="Group_48" data-name="Group 48" clip-path="url(#clip-path)">
        <g id="Group_47" data-name="Group 47">
          <g id="Group_46" data-name="Group 46" clip-path="url(#clip-path)">
            <path id="Path_463" data-name="Path 463" d="M119.94,188.648c.227-6.289-26.068-17.293-58.729-24.579s-59.324-8.093-59.551-1.8,26.068,17.293,58.73,24.579,59.323,8.093,59.55,1.8" fill="#f15a24"/>
            <path id="Path_464" data-name="Path 464" d="M90.043,118.694c-5.6-2.042-10.159-8.242-10.159-13.821V10.2c0-5.579,4.557-8.457,10.159-6.415l41.123,14.99c5.6,2.042,10.158,8.243,10.158,13.822v94.669c0,5.579-4.557,8.457-10.159,6.415Z" fill="#17161c"/>
            <path id="Path_465" data-name="Path 465" d="M90.7,121.822C84.8,119.669,80,113.133,80,107.252V7.456C80,1.574,84.8-1.459,90.7.693l43.35,15.8c5.9,2.153,10.708,8.689,10.708,14.57v99.8c0,5.881-4.8,8.914-10.709,6.762Z" fill="#1f2528"/>
            <path id="Path_466" data-name="Path 466" d="M90.043,114.851c-3.474-1.266-6.3-5.111-6.3-8.572V11.61c0-3.46,2.826-5.245,6.3-3.978l41.122,14.99c3.474,1.266,6.3,5.112,6.3,8.572v94.669c0,3.46-2.826,5.245-6.3,3.978Z" fill="#cee5ed"/>
            <path id="Path_467" data-name="Path 467" d="M131.165,22.622,90.043,7.632c-2.459-.9-4.588-.259-5.626,1.414a5.179,5.179,0,0,1,4.126-.039L129.665,24c3.474,1.266,6.3,5.112,6.3,8.572v94.669a4.8,4.8,0,0,1-.675,2.564,4.159,4.159,0,0,0,2.175-3.939V31.194c0-3.46-2.827-7.306-6.3-8.572" fill="#aac6ce"/>
            <path id="Path_468" data-name="Path 468" d="M125.9,19.942,95.308,8.79l1.36,3.651a6.394,6.394,0,0,0,3.6,3.673l20.676,7.536c1.565.571,2.98.159,3.6-1.049Z" fill="#1f2528"/>
            <path id="Path_469" data-name="Path 469" d="M129.495,35.633,91.713,21.861c-2.027-.739-3.67.3-3.67,2.317V41.21a5.8,5.8,0,0,0,3.67,4.993l37.782,13.772c2.027.739,3.669-.3,3.669-2.317V40.626a5.8,5.8,0,0,0-3.669-4.993" fill="#f7931e"/>
            <path id="Path_470" data-name="Path 470" d="M129.495,65.58,91.713,51.808c-2.027-.739-3.67.3-3.67,2.317V71.157a5.8,5.8,0,0,0,3.67,4.993l37.782,13.772c2.026.739,3.669-.3,3.669-2.317V70.573a5.8,5.8,0,0,0-3.669-4.993" fill="#f7931e"/>
            <path id="Path_471" data-name="Path 471" d="M129.495,95.848,91.713,82.076c-2.027-.739-3.67.3-3.67,2.317v17.032a5.8,5.8,0,0,0,3.67,4.993l37.782,13.772c2.026.739,3.669-.3,3.669-2.317V100.841a5.8,5.8,0,0,0-3.669-4.993" fill="#f7931e"/>
            <path id="Path_472" data-name="Path 472" d="M117.388,38.482l-13.052-4.758a.542.542,0,0,0-.8.506,1.268,1.268,0,0,0,.8,1.088l13.052,4.758a.541.541,0,0,0,.8-.505,1.269,1.269,0,0,0-.8-1.089" fill="#1f2528"/>
            <path id="Path_473" data-name="Path 473" d="M117.388,47.438,104.336,42.68a.542.542,0,0,0-.8.506,1.268,1.268,0,0,0,.8,1.088l13.052,4.758a.541.541,0,0,0,.8-.505,1.268,1.268,0,0,0-.8-1.089" fill="#1f2528"/>
            <path id="Path_474" data-name="Path 474" d="M121.409,44.485,99.8,36.608a.542.542,0,0,0-.8.5,1.269,1.269,0,0,0,.8,1.089l21.609,7.877a.541.541,0,0,0,.8-.5,1.269,1.269,0,0,0-.8-1.089" fill="#1f2528"/>
            <path id="Path_475" data-name="Path 475" d="M117.388,70.594l-13.052-4.758a.542.542,0,0,0-.8.506,1.268,1.268,0,0,0,.8,1.088l13.052,4.758a.541.541,0,0,0,.8-.505,1.269,1.269,0,0,0-.8-1.089" fill="#1f2528"/>
            <path id="Path_476" data-name="Path 476" d="M121.409,76.6,99.8,68.72a.542.542,0,0,0-.8.5,1.267,1.267,0,0,0,.8,1.089l21.609,7.878a.542.542,0,0,0,.8-.506,1.269,1.269,0,0,0-.8-1.089" fill="#1f2528"/>
            <path id="Path_477" data-name="Path 477" d="M117.388,98.672l-13.052-4.758a.542.542,0,0,0-.8.506,1.269,1.269,0,0,0,.8,1.088l13.052,4.758a.541.541,0,0,0,.8-.5,1.269,1.269,0,0,0-.8-1.089" fill="#1f2528"/>
            <path id="Path_478" data-name="Path 478" d="M117.388,107.547l-13.052-4.757a.542.542,0,0,0-.8.5,1.27,1.27,0,0,0,.8,1.089l13.052,4.758a.542.542,0,0,0,.8-.506,1.27,1.27,0,0,0-.8-1.089" fill="#1f2528"/>
            <path id="Path_479" data-name="Path 479" d="M121.409,104.675,99.8,96.8a.542.542,0,0,0-.8.505,1.267,1.267,0,0,0,.8,1.089l21.609,7.878a.542.542,0,0,0,.8-.506,1.269,1.269,0,0,0-.8-1.089" fill="#1f2528"/>
            <path id="Path_480" data-name="Path 480" d="M80.171,172.811s-1.968-.707-2.22-5.047H72.2l-.554,5.955,4.289,3.583,3.735-1.867Z" fill="#f2bf75"/>
            <path id="Path_481" data-name="Path 481" d="M71.643,173.719s6.711,2.22,8.528-.908c0,0,12.4,4.621,12.314,6-.142,2.183-10.4,2.631-12.667,2.076l-1.968-1.968-.858,2.271H71.34s.051-7.116.3-7.469" fill="#1f2528"/>
            <path id="Path_482" data-name="Path 482" d="M58.7,172.858s-1.933-.8-1.986-5.143l-5.747-.264-.828,5.923,4.12,3.776,3.816-1.694Z" fill="#f2bf75"/>
            <path id="Path_483" data-name="Path 483" d="M50.14,173.373s6.6,2.526,8.561-.516c0,0,10.854,3.91,11.478,5.706s-9.958,3-12.2,2.344L56.1,178.851l-.962,2.229-5.646-.26s.378-7.106.646-7.447" fill="#1f2528"/>
            <path id="Path_484" data-name="Path 484" d="M46.259,104.683s3.734,15.14,4.643,17.663,2.826,14.837,2.927,15.24-4.239,32.1-4.239,32.1,5.854,1.312,8.175-.2l6.358-31.994L61.4,106Z" fill="#1f2528"/>
            <path id="Path_485" data-name="Path 485" d="M47.067,103.876s5.752,9.841,10.9,14.231,11.506,16.2,11.506,16.2l.757,35.124a8.143,8.143,0,0,0,8.092.208l.386-.208s.908-36.486.757-38.908-13.02-30.279-13.02-30.279Z" fill="#1f2528"/>
            <path id="Path_486" data-name="Path 486" d="M69.321,39.382s-4.5,15.9-11.733,15.442c-6.333-.4-7.511-6.97-5.98-15.064,1.59-8.4,8.529-7.292,12.566-7.342,0,0,5,0,5.829-3.86,0,0,5.828,7.948-.682,10.824" fill="#1f2528"/>
            <path id="Path_487" data-name="Path 487" d="M57.838,58.769S49.025,57.207,44.947,76.02c-1.712,7.9,7.267,20.287,7.267,20.287L61.6,78.24Z" fill="#aac6ce"/>
            <path id="Path_488" data-name="Path 488" d="M94.831,48.087s3.331-9.159,3.331-11.657,1.892-.3,1.816,1.59a27.649,27.649,0,0,1-.53,4.011s2.574.227,2.574,1.439-.833,5.45-2.044,6.131Z" fill="#f2bf75"/>
            <path id="Path_489" data-name="Path 489" d="M62.736,60.048c5.853,3.012,18.395,10.9,21.271,8.327S94.832,48.088,94.832,48.088L99.979,49.6s-11,29.522-14.256,29.446-14.332-2.221-14.332-2.221-1.009,20.842-4.037,26.595c0,0-14.913,5.375-22.634.984a28.6,28.6,0,0,0,4.693-20.211c-1.74-12.6,1.628-30.165,13.323-24.147" fill="#cee5ed"/>
            <path id="Path_490" data-name="Path 490" d="M69.321,39.382a15.159,15.159,0,0,0,1.363,4.088,12.109,12.109,0,0,0,2.649,2.574L71.895,47.86a6.541,6.541,0,0,1-5.678,7.57l-.681,6.283-7.645-2.574-.3-4.315A5.172,5.172,0,0,0,58.913,52.1a3.615,3.615,0,0,1-1.022-3.217c.492-1.741,2.044-3.065,2.763-2.422a3.217,3.217,0,0,1,.8,1.93h.984s-.173-2.881.416-4.088a9.588,9.588,0,0,1,6.472-4.92" fill="#ea9249"/>
            <path id="Path_491" data-name="Path 491" d="M65.536,61.713l.681-6.283a6.54,6.54,0,0,0,5.677-7.57l1.439-1.816a12.127,12.127,0,0,1-2.65-2.574,15.181,15.181,0,0,1-1.362-4.088c-.306.071-.586.167-.87.26a22.453,22.453,0,0,1,1.324,5.565c.25,3.25-.264,6.923-4.813,9.687-1.542.938-2.1,3.483-2.269,5.862Z" fill="#f2bf75"/>
            <path id="Path_492" data-name="Path 492" d="M63.016,124.721c-5.031-1.138-9.786-4.148-13.456-7.084-1.2-4.532-2.744-10.733-3.181-12.478a13.965,13.965,0,0,0,1.8.521c1.915,3.053,6.01,9.212,9.786,12.424a34.624,34.624,0,0,1,4.979,5.744Z" fill="#1f2528"/>
            <path id="Path_493" data-name="Path 493" d="M134.184,158.828c-.072-2.39-11.83-6.51-26.26-9.2s-26.074-2.935-26-.545,11.829,6.51,26.26,9.2,26.074,2.935,26,.544" fill="#f15a24"/>
            <path id="Path_494" data-name="Path 494" d="M21.663,119.677S25.2,88.821,12.426,93.635c-13.161,4.961,3.341,25.354,9.237,26.042" fill="#208476"/>
            <path id="Path_495" data-name="Path 495" d="M18.175,138.3S14.3,107.418,3.066,115.967c-10.171,7.739,7.591,20.047,15.109,22.332" fill="#39b54a"/>
            <path id="Path_496" data-name="Path 496" d="M9.864,126.712c5.136,7.126,10.13,14.368,11.725,23.181.084.468.8.27.713-.2-1.6-8.868-6.622-16.175-11.8-23.358-.276-.383-.918-.014-.639.374" fill="#1f2528"/>
            <path id="Path_497" data-name="Path 497" d="M27.953,113.093s-4.619-22.7,7.075-20.637-4.127,19.556-7.075,20.637" fill="#39b54a"/>
            <path id="Path_498" data-name="Path 498" d="M29.034,135.006c-.6.4-1.18-19.162,7.075-18.474s4.422,10.809-7.075,18.474" fill="#208476"/>
            <path id="Path_499" data-name="Path 499" d="M25.423,133.428c-.9-11.5,3.88-24.465,8.338-34.945.184-.434-.453-.811-.639-.374-4.532,10.653-9.356,23.58-8.439,35.319.037.472.777.476.74,0" fill="#1f2528"/>
            <path id="Path_500" data-name="Path 500" d="M26.474,148.033c-.594-13.493-1.783-27.193-9.342-38.8-.259-.4-.9-.027-.639.374,7.5,11.5,8.652,25.047,9.241,38.422.021.475.761.477.74,0" fill="#1f2528"/>
            <path id="Path_501" data-name="Path 501" d="M28.21,147.442c.305-7.1.777-14.188,4.684-20.348.256-.4-.384-.776-.639-.374-3.963,6.25-4.476,13.51-4.785,20.722-.021.477.719.476.74,0" fill="#1f2528"/>
            <path id="Path_502" data-name="Path 502" d="M15.194,145.968l1.921,17.394a4.292,4.292,0,0,0,4.266,3.82H32.468a4.293,4.293,0,0,0,4.266-3.82l1.92-17.394a1.6,1.6,0,0,0-1.588-1.774H16.783a1.6,1.6,0,0,0-1.589,1.774" fill="#cee5ed"/>
            <path id="Path_503" data-name="Path 503" d="M37.066,144.194H30.033a1.6,1.6,0,0,1,1.589,1.774L29.7,163.361a4.292,4.292,0,0,1-4.265,3.821h7.032a4.291,4.291,0,0,0,4.265-3.821l1.921-17.393a1.6,1.6,0,0,0-1.588-1.774" fill="#aac6ce"/>
            <g id="Group_42" data-name="Group 42" opacity="0.26">
              <g id="Group_41" data-name="Group 41">
                <g id="Group_40" data-name="Group 40" clip-path="url(#clip-path-3)">
                  <path id="Path_504" data-name="Path 504" d="M17.32,117.3a9.709,9.709,0,0,0,4.343,2.38S25.174,89.028,12.545,93.6c3.375,4.223,10.577,14.97,4.775,23.7" fill="#0f2a3f"/>
                </g>
              </g>
            </g>
            <g id="Group_45" data-name="Group 45" opacity="0.26">
              <g id="Group_44" data-name="Group 44">
                <g id="Group_43" data-name="Group 43" clip-path="url(#clip-path-4)">
                  <path id="Path_505" data-name="Path 505" d="M36.821,116.62c.282,3.887.244,14.158-8.046,13.541-.139,2.852.059,4.979.259,4.846,11.151-7.434,15.091-17.179,7.787-18.387" fill="#0f2a3f"/>
                </g>
              </g>
            </g>
            <path id="Path_506" data-name="Path 506" d="M35.589,92.587c.257,4.024.2,15.186-8.4,14.737a52.813,52.813,0,0,0,.759,5.769c2.9-1.063,18.209-17.964,7.636-20.506" fill="#208476"/>
            <path id="Path_507" data-name="Path 507" d="M18.175,138.3S14.3,107.418,3.066,115.967a10.5,10.5,0,0,0-.962.833c3.51,1.211,15.083,6.279,11.305,19.409a27.143,27.143,0,0,0,4.766,2.09" fill="#208476"/>
          </g>
        </g>
      </g>
    </g>
  </g>
</svg>
